<?xml version="1.0" standalone="no"?>
<!DOCTYPE svg PUBLIC "-//W3C//DTD SVG 1.1//EN" "http://www.w3.org/Graphics/SVG/1.1/DTD/svg11.dtd" >
<svg xmlns="http://www.w3.org/2000/svg" xmlns:xlink="http://www.w3.org/1999/xlink" version="1.1">
<metadata>
Created by FontForge 20190801 at Mon Feb  8 13:01:49 2016
 By root
copyright missing
</metadata>
<defs>
<font id="Branding-SemiBold" horiz-adv-x="0" >
  <font-face 
    font-family="Branding SemiBold"
    font-weight="600"
    font-stretch="normal"
    units-per-em="1000"
    panose-1="0 0 7 0 0 0 0 0 0 0"
    ascent="770"
    descent="-230"
    x-height="470"
    cap-height="648"
    bbox="-697 -225 1351 873"
    underline-thickness="50"
    underline-position="-100"
    stemh="99"
    stemv="113"
    unicode-range="U+0020-FB02"
  />
<missing-glyph horiz-adv-x="398" 
d="M198 90l-168 169l168 168l169 -168z" />
    <glyph glyph-name="fi" unicode="fi" horiz-adv-x="555" 
d="M489 462v-462c-18 -4 -37 -5 -56 -5c-18 0 -38 1 -58 5v379l-167 1v-381c-18 -3 -36 -5 -55 -5s-37 2 -57 5v381h-64c-2 13 -4 25 -4 40s2 29 4 43h64c3 141 103 202 209 202c80 0 130 -28 157 -50c-3 -30 -26 -67 -50 -78c-30 21 -55 34 -102 34
c-57 0 -102 -27 -102 -100v-8z" />
    <glyph glyph-name="fl" unicode="fl" horiz-adv-x="575" 
d="M327 665c77 0 138 -17 182 -38v-627c-18 -4 -38 -5 -57 -5c-18 0 -37 1 -57 5l-3 561c-22 5 -45 8 -71 8c-65 0 -113 -26 -113 -100v-5h96c4 -14 6 -29 6 -45s-2 -29 -6 -43h-96v-377c-18 -3 -36 -5 -55 -5s-37 2 -56 5v377h-64c-3 14 -5 27 -5 43c0 17 2 31 5 46h64
c2 137 103 200 230 200z" />
    <glyph glyph-name=".notdef" horiz-adv-x="398" 
d="M198 90l-168 169l168 168l169 -168z" />
    <glyph glyph-name="A" unicode="A" horiz-adv-x="613" 
d="M364 642l241 -635c-22 -8 -45 -11 -71 -11c-15 0 -33 1 -47 4l-57 154h-252l-55 -154c-17 -3 -35 -4 -51 -4c-24 0 -45 3 -63 11l239 635c19 5 40 6 59 6c20 0 38 -1 57 -6zM213 250h182l-74 200l-18 59l-18 -59z" />
    <glyph glyph-name="Aacute" unicode="&#xc1;" horiz-adv-x="613" 
d="M214 676c-13 11 -21 26 -23 46l183 127c35 -23 50 -55 51 -98zM364 642l241 -635c-22 -8 -45 -11 -71 -11c-15 0 -33 1 -47 4l-57 154h-252l-55 -154c-17 -3 -35 -4 -51 -4c-24 0 -45 3 -63 11l239 635c19 5 40 6 59 6c20 0 38 -1 57 -6zM213 250h182l-74 200l-18 59
l-18 -59z" />
    <glyph glyph-name="Abreve" unicode="&#x102;" horiz-adv-x="613" 
d="M308 686c-100 0 -155 66 -155 136c23 9 46 11 73 8c10 -41 44 -60 84 -60s74 20 80 60c26 3 50 1 71 -8c0 -67 -55 -136 -153 -136zM364 642l241 -635c-22 -8 -45 -11 -71 -11c-15 0 -33 1 -47 4l-57 154h-252l-55 -154c-17 -3 -35 -4 -51 -4c-24 0 -45 3 -63 11l239 635
c19 5 40 6 59 6c20 0 38 -1 57 -6zM213 250h182l-74 200l-18 59l-18 -59z" />
    <glyph glyph-name="Acircumflex" unicode="&#xc2;" horiz-adv-x="613" 
d="M193 685c-18 11 -31 29 -35 53l115 94c23 6 46 6 69 0l116 -92c-5 -24 -17 -42 -36 -55l-118 68zM364 642l241 -635c-22 -8 -45 -11 -71 -11c-15 0 -33 1 -47 4l-57 154h-252l-55 -154c-17 -3 -35 -4 -51 -4c-24 0 -45 3 -63 11l239 635c19 5 40 6 59 6c20 0 38 -1 57 -6
zM213 250h182l-74 200l-18 59l-18 -59z" />
    <glyph glyph-name="Adieresis" unicode="&#xc4;" horiz-adv-x="613" 
d="M202 700c-36 0 -64 28 -64 63s28 63 64 63c34 0 62 -28 62 -63s-28 -63 -62 -63zM413 700c-35 0 -64 28 -64 63s28 63 64 63c34 0 63 -28 63 -63s-29 -63 -63 -63zM364 642l241 -635c-22 -8 -45 -11 -71 -11c-15 0 -33 1 -47 4l-57 154h-252l-55 -154
c-17 -3 -35 -4 -51 -4c-24 0 -45 3 -63 11l239 635c19 5 40 6 59 6c20 0 38 -1 57 -6zM213 250h182l-74 200l-18 59l-18 -59z" />
    <glyph glyph-name="Agrave" unicode="&#xc0;" horiz-adv-x="613" 
d="M414 722c-3 -20 -10 -35 -24 -46l-210 75c0 43 16 75 51 98zM364 642l241 -635c-22 -8 -45 -11 -71 -11c-15 0 -33 1 -47 4l-57 154h-252l-55 -154c-17 -3 -35 -4 -51 -4c-24 0 -45 3 -63 11l239 635c19 5 40 6 59 6c20 0 38 -1 57 -6zM213 250h182l-74 200l-18 59
l-18 -59z" />
    <glyph glyph-name="Amacron" unicode="&#x100;" horiz-adv-x="613" 
d="M451 718h-289c-3 13 -6 27 -6 41s3 28 6 42h289c4 -13 6 -27 6 -42c0 -14 -2 -28 -6 -41zM364 642l241 -635c-22 -8 -45 -11 -71 -11c-15 0 -33 1 -47 4l-57 154h-252l-55 -154c-17 -3 -35 -4 -51 -4c-24 0 -45 3 -63 11l239 635c19 5 40 6 59 6c20 0 38 -1 57 -6z
M213 250h182l-74 200l-18 59l-18 -59z" />
    <glyph glyph-name="Aogonek" unicode="&#x104;" horiz-adv-x="613" 
d="M615 -96c18 -12 37 -36 37 -65c-21 -20 -58 -41 -115 -41c-55 0 -99 33 -99 87c0 49 33 87 64 113c-5 0 -10 1 -15 2l-57 154h-252l-55 -154c-17 -3 -35 -4 -51 -4c-24 0 -45 3 -63 11l239 635c19 5 40 6 59 6c20 0 38 -1 57 -6l241 -635c-44 -25 -75 -59 -75 -89
c0 -26 17 -34 34 -34c22 0 41 12 51 20zM213 250h182l-74 200l-18 59l-18 -59z" />
    <glyph glyph-name="Aring" unicode="&#xc5;" horiz-adv-x="613" 
d="M308 658c-60 0 -108 48 -108 107c0 60 48 108 108 108c58 0 106 -48 106 -108c0 -59 -48 -107 -106 -107zM307 808c-24 0 -40 -20 -40 -43c0 -22 16 -42 40 -42s40 20 40 42c0 23 -16 43 -40 43zM364 642l241 -635c-22 -8 -45 -11 -71 -11c-15 0 -33 1 -47 4l-57 154
h-252l-55 -154c-17 -3 -35 -4 -51 -4c-24 0 -45 3 -63 11l239 635c19 5 40 6 59 6c20 0 38 -1 57 -6zM213 250h182l-74 200l-18 59l-18 -59z" />
    <glyph glyph-name="Atilde" unicode="&#xc3;" horiz-adv-x="613" 
d="M197 688c-25 0 -63 10 -79 28c14 67 61 106 120 106c54 0 99 -38 131 -38c25 0 41 17 47 43c30 0 62 -10 79 -27c-14 -67 -62 -106 -117 -106c-53 0 -100 36 -132 36c-26 0 -43 -16 -49 -42zM364 642l241 -635c-22 -8 -45 -11 -71 -11c-15 0 -33 1 -47 4l-57 154h-252
l-55 -154c-17 -3 -35 -4 -51 -4c-24 0 -45 3 -63 11l239 635c19 5 40 6 59 6c20 0 38 -1 57 -6zM213 250h182l-74 200l-18 59l-18 -59z" />
    <glyph glyph-name="AE" unicode="&#xc6;" horiz-adv-x="849" 
d="M804 103c4 -17 6 -33 6 -50c0 -18 -2 -35 -6 -53h-384v236h-174l-137 -236c-18 -3 -36 -4 -52 -4c-25 0 -48 4 -66 11l364 635h437c4 -17 6 -35 6 -52c0 -18 -2 -34 -6 -51h-258v-196h229c4 -16 6 -32 6 -48s-2 -32 -6 -49h-229v-143h270zM302 333h118v155l3 62l-32 -63z
" />
    <glyph glyph-name="AEacute" unicode="&#x1fc;" horiz-adv-x="849" 
d="M404 676c-13 11 -21 26 -23 46l183 127c35 -23 50 -55 51 -98zM804 103c4 -17 6 -33 6 -50c0 -18 -2 -35 -6 -53h-384v236h-174l-137 -236c-18 -3 -36 -4 -52 -4c-25 0 -48 4 -66 11l364 635h437c4 -17 6 -35 6 -52c0 -18 -2 -34 -6 -51h-258v-196h229c4 -16 6 -32 6 -48
s-2 -32 -6 -49h-229v-143h270zM302 333h118v155l3 62l-32 -63z" />
    <glyph glyph-name="B" unicode="B" horiz-adv-x="586" 
d="M436 334c68 -23 110 -71 110 -152c0 -122 -87 -197 -268 -197c-85 0 -149 6 -200 16v630c51 10 118 18 196 18c169 0 243 -64 243 -177c0 -72 -32 -114 -81 -138zM281 556c-29 0 -59 -1 -90 -4v-177h99c84 0 117 34 117 94c0 55 -43 87 -126 87zM282 80
c106 0 150 32 150 104c0 64 -47 96 -133 96h-108v-195c26 -3 56 -5 91 -5z" />
    <glyph glyph-name="C" unicode="C" horiz-adv-x="595" 
d="M364 -17c-196 0 -324 139 -324 338c0 198 141 340 330 340c89 0 153 -26 197 -60c-6 -34 -30 -72 -62 -89c-41 28 -81 42 -133 42c-121 0 -210 -88 -210 -233c0 -143 89 -231 205 -231c75 0 114 20 148 48c36 -21 52 -46 60 -89c-38 -32 -101 -66 -211 -66z" />
    <glyph glyph-name="Cacute" unicode="&#x106;" horiz-adv-x="595" 
d="M260 676c-13 11 -21 26 -23 46l183 127c35 -23 50 -55 51 -98zM364 -17c-196 0 -324 139 -324 338c0 198 141 340 330 340c89 0 153 -26 197 -60c-6 -34 -30 -72 -62 -89c-41 28 -81 42 -133 42c-121 0 -210 -88 -210 -233c0 -143 89 -231 205 -231c75 0 114 20 148 48
c36 -21 52 -46 60 -89c-38 -32 -101 -66 -211 -66z" />
    <glyph glyph-name="Ccaron" unicode="&#x10c;" horiz-adv-x="595" 
d="M319 692l-116 93c5 23 17 41 36 54l118 -68l111 68c18 -10 31 -29 35 -52l-115 -95c-23 -6 -46 -6 -69 0zM364 -17c-196 0 -324 139 -324 338c0 198 141 340 330 340c89 0 153 -26 197 -60c-6 -34 -30 -72 -62 -89c-41 28 -81 42 -133 42c-121 0 -210 -88 -210 -233
c0 -143 89 -231 205 -231c75 0 114 20 148 48c36 -21 52 -46 60 -89c-38 -32 -101 -66 -211 -66z" />
    <glyph glyph-name="Ccedilla" unicode="&#xc7;" horiz-adv-x="595" 
d="M381 -37c40 -8 76 -27 76 -73c0 -75 -72 -94 -122 -94c-31 0 -68 10 -83 21c1 24 12 46 26 59c14 -9 29 -14 46 -14c22 0 39 9 39 29c0 26 -27 33 -65 34l23 60c-171 19 -281 152 -281 336c0 198 141 340 330 340c89 0 153 -26 197 -60c-6 -34 -30 -72 -62 -89
c-41 28 -81 42 -133 42c-121 0 -210 -88 -210 -233c0 -143 89 -231 205 -231c75 0 114 20 148 48c36 -21 52 -46 60 -89c-35 -30 -92 -61 -187 -65z" />
    <glyph glyph-name="Cdotaccent" unicode="&#x10a;" horiz-adv-x="595" 
d="M353 692c-40 0 -72 31 -72 71s32 71 72 71c39 0 71 -31 71 -71s-32 -71 -71 -71zM364 -17c-196 0 -324 139 -324 338c0 198 141 340 330 340c89 0 153 -26 197 -60c-6 -34 -30 -72 -62 -89c-41 28 -81 42 -133 42c-121 0 -210 -88 -210 -233c0 -143 89 -231 205 -231
c75 0 114 20 148 48c36 -21 52 -46 60 -89c-38 -32 -101 -66 -211 -66z" />
    <glyph glyph-name="D" unicode="D" horiz-adv-x="673" 
d="M266 653c237 0 366 -131 366 -326c0 -203 -140 -337 -360 -337c-73 0 -127 2 -194 12v637c63 10 112 14 188 14zM278 94c151 0 231 93 231 230c0 133 -79 223 -240 223c-24 0 -48 0 -77 -3v-447c26 -2 54 -3 86 -3z" />
    <glyph glyph-name="Eth" unicode="&#xd0;" horiz-adv-x="673" 
d="M266 653c237 0 366 -131 366 -326c0 -203 -140 -337 -360 -337c-73 0 -127 2 -194 12v276h-74c-4 13 -7 28 -7 42c0 15 3 30 7 44h74v275c63 10 112 14 188 14zM278 94c151 0 231 93 231 230c0 133 -79 223 -240 223c-24 0 -48 0 -77 -3v-180h105c3 -13 6 -27 6 -43
c0 -14 -3 -28 -6 -43h-105v-181c26 -2 54 -3 86 -3z" />
    <glyph glyph-name="Dcaron" unicode="&#x10e;" horiz-adv-x="673" 
d="M342 692c-23 -6 -46 -6 -69 0l-116 93c5 23 17 41 36 54l118 -68l111 68c18 -10 31 -29 35 -52zM266 653c237 0 366 -131 366 -326c0 -203 -140 -337 -360 -337c-73 0 -127 2 -194 12v637c63 10 112 14 188 14zM278 94c151 0 231 93 231 230c0 133 -79 223 -240 223
c-24 0 -48 0 -77 -3v-447c26 -2 54 -3 86 -3z" />
    <glyph glyph-name="Dcroat" unicode="&#x110;" horiz-adv-x="673" 
d="M266 653c237 0 366 -131 366 -326c0 -203 -140 -337 -360 -337c-73 0 -127 2 -194 12v276h-74c-4 13 -7 28 -7 42c0 15 3 30 7 44h74v275c63 10 112 14 188 14zM278 94c151 0 231 93 231 230c0 133 -79 223 -240 223c-24 0 -48 0 -77 -3v-180h105c3 -13 6 -27 6 -43
c0 -14 -3 -28 -6 -43h-105v-181c26 -2 54 -3 86 -3z" />
    <glyph glyph-name="E" unicode="E" horiz-adv-x="546" 
d="M499 102c5 -16 7 -33 7 -49c0 -18 -2 -36 -7 -53h-420v642h411c4 -16 6 -35 6 -52c0 -18 -2 -34 -6 -51h-298v-159h265c4 -17 6 -34 6 -51s-2 -33 -6 -51h-265v-176h307z" />
    <glyph glyph-name="Eacute" unicode="&#xc9;" horiz-adv-x="546" 
d="M201 676c-13 11 -21 26 -23 46l183 127c35 -23 50 -55 51 -98zM499 102c5 -16 7 -33 7 -49c0 -18 -2 -36 -7 -53h-420v642h411c4 -16 6 -35 6 -52c0 -18 -2 -34 -6 -51h-298v-159h265c4 -17 6 -34 6 -51s-2 -33 -6 -51h-265v-176h307z" />
    <glyph glyph-name="Ecaron" unicode="&#x11a;" horiz-adv-x="546" 
d="M330 692c-23 -6 -46 -6 -69 0l-116 93c5 23 17 41 36 54l118 -68l111 68c18 -10 31 -29 35 -52zM499 102c5 -16 7 -33 7 -49c0 -18 -2 -36 -7 -53h-420v642h411c4 -16 6 -35 6 -52c0 -18 -2 -34 -6 -51h-298v-159h265c4 -17 6 -34 6 -51s-2 -33 -6 -51h-265v-176h307z
" />
    <glyph glyph-name="Ecircumflex" unicode="&#xca;" horiz-adv-x="546" 
d="M180 685c-18 11 -31 29 -35 53l115 94c23 6 46 6 69 0l116 -92c-5 -24 -17 -42 -36 -55l-118 68zM499 102c5 -16 7 -33 7 -49c0 -18 -2 -36 -7 -53h-420v642h411c4 -16 6 -35 6 -52c0 -18 -2 -34 -6 -51h-298v-159h265c4 -17 6 -34 6 -51s-2 -33 -6 -51h-265v-176h307z
" />
    <glyph glyph-name="Edieresis" unicode="&#xcb;" horiz-adv-x="546" 
d="M189 700c-36 0 -64 28 -64 63s28 63 64 63c34 0 62 -28 62 -63s-28 -63 -62 -63zM400 700c-35 0 -64 28 -64 63s28 63 64 63c34 0 63 -28 63 -63s-29 -63 -63 -63zM499 102c5 -16 7 -33 7 -49c0 -18 -2 -36 -7 -53h-420v642h411c4 -16 6 -35 6 -52c0 -18 -2 -34 -6 -51
h-298v-159h265c4 -17 6 -34 6 -51s-2 -33 -6 -51h-265v-176h307z" />
    <glyph glyph-name="Edotaccent" unicode="&#x116;" horiz-adv-x="546" 
d="M295 692c-40 0 -72 31 -72 71s32 71 72 71c39 0 71 -31 71 -71s-32 -71 -71 -71zM499 102c5 -16 7 -33 7 -49c0 -18 -2 -36 -7 -53h-420v642h411c4 -16 6 -35 6 -52c0 -18 -2 -34 -6 -51h-298v-159h265c4 -17 6 -34 6 -51s-2 -33 -6 -51h-265v-176h307z" />
    <glyph glyph-name="Egrave" unicode="&#xc8;" horiz-adv-x="546" 
d="M401 722c-3 -20 -10 -35 -24 -46l-210 75c0 43 16 75 51 98zM499 102c5 -16 7 -33 7 -49c0 -18 -2 -36 -7 -53h-420v642h411c4 -16 6 -35 6 -52c0 -18 -2 -34 -6 -51h-298v-159h265c4 -17 6 -34 6 -51s-2 -33 -6 -51h-265v-176h307z" />
    <glyph glyph-name="Emacron" unicode="&#x112;" horiz-adv-x="546" 
d="M438 718h-289c-3 13 -6 27 -6 41s3 28 6 42h289c4 -13 6 -27 6 -42c0 -14 -2 -28 -6 -41zM499 102c5 -16 7 -33 7 -49c0 -18 -2 -36 -7 -53h-420v642h411c4 -16 6 -35 6 -52c0 -18 -2 -34 -6 -51h-298v-159h265c4 -17 6 -34 6 -51s-2 -33 -6 -51h-265v-176h307z" />
    <glyph glyph-name="Eogonek" unicode="&#x118;" horiz-adv-x="546" 
d="M520 -96c18 -11 37 -35 37 -64c-21 -21 -55 -41 -108 -41c-60 0 -106 32 -106 86c0 50 31 90 69 115h-333v642h411c4 -16 6 -35 6 -52c0 -18 -2 -34 -6 -51h-298v-159h265c4 -17 6 -34 6 -51s-2 -33 -6 -51h-265v-176h307c5 -16 7 -33 7 -49c0 -18 -2 -36 -7 -53
c-36 -27 -64 -55 -64 -82c0 -24 18 -33 34 -33c22 0 41 11 51 19z" />
    <glyph glyph-name="F" unicode="F" horiz-adv-x="516" 
d="M486 538h-294v-186h261c4 -17 5 -34 5 -51s-1 -34 -5 -51h-261v-250c-19 -4 -37 -6 -57 -6c-18 0 -37 2 -56 6v642h407c4 -17 5 -35 5 -52s-1 -35 -5 -52z" />
    <glyph glyph-name="G" unicode="G" horiz-adv-x="652" 
d="M366 352h233v-319c-52 -27 -125 -50 -224 -50c-196 0 -334 128 -334 336c0 210 146 342 334 342c98 0 168 -26 211 -56c-6 -39 -25 -75 -59 -95c-42 28 -88 43 -153 43c-118 0 -211 -83 -211 -233c0 -139 70 -231 213 -231c47 0 83 6 111 15v142h-121c-4 19 -6 36 -6 54
c0 17 2 34 6 52z" />
    <glyph glyph-name="Gbreve" unicode="&#x11e;" horiz-adv-x="652" 
d="M356 686c-100 0 -155 66 -155 136c23 9 46 11 73 8c10 -41 44 -60 84 -60s74 20 80 60c26 3 50 1 71 -8c0 -67 -55 -136 -153 -136zM366 352h233v-319c-52 -27 -125 -50 -224 -50c-196 0 -334 128 -334 336c0 210 146 342 334 342c98 0 168 -26 211 -56
c-6 -39 -25 -75 -59 -95c-42 28 -88 43 -153 43c-118 0 -211 -83 -211 -233c0 -139 70 -231 213 -231c47 0 83 6 111 15v142h-121c-4 19 -6 36 -6 54c0 17 2 34 6 52z" />
    <glyph glyph-name="Gcommaaccent" unicode="&#x122;" horiz-adv-x="652" 
d="M366 352h233v-319c-52 -27 -125 -50 -224 -50c-196 0 -334 128 -334 336c0 210 146 342 334 342c98 0 168 -26 211 -56c-6 -39 -25 -75 -59 -95c-42 28 -88 43 -153 43c-118 0 -211 -83 -211 -233c0 -139 70 -231 213 -231c47 0 83 6 111 15v142h-121c-4 19 -6 36 -6 54
c0 17 2 34 6 52zM366 -37c16 0 33 -3 46 -9c2 -13 3 -26 3 -37c0 -56 -29 -111 -80 -142c-15 2 -32 13 -40 30c24 31 28 68 28 91c0 19 -4 40 -10 57c13 6 33 10 53 10z" />
    <glyph glyph-name="Gdotaccent" unicode="&#x120;" horiz-adv-x="652" 
d="M355 692c-40 0 -72 31 -72 71s32 71 72 71c39 0 71 -31 71 -71s-32 -71 -71 -71zM366 352h233v-319c-52 -27 -125 -50 -224 -50c-196 0 -334 128 -334 336c0 210 146 342 334 342c98 0 168 -26 211 -56c-6 -39 -25 -75 -59 -95c-42 28 -88 43 -153 43
c-118 0 -211 -83 -211 -233c0 -139 70 -231 213 -231c47 0 83 6 111 15v142h-121c-4 19 -6 36 -6 54c0 17 2 34 6 52z" />
    <glyph glyph-name="H" unicode="H" horiz-adv-x="688" 
d="M552 647c19 0 38 -2 57 -6v-641c-18 -4 -35 -6 -54 -6s-39 2 -60 6v274h-303v-274c-19 -4 -38 -6 -57 -6c-18 0 -36 2 -56 6v641c18 5 36 6 54 6c20 0 40 -1 59 -6v-263h303v263c20 4 38 6 57 6z" />
    <glyph glyph-name="Hbar" unicode="&#x126;" horiz-adv-x="688" 
d="M684 490c0 -13 -2 -26 -6 -39h-69v-451c-18 -4 -35 -6 -54 -6s-39 2 -60 6v274h-303v-274c-19 -4 -38 -6 -57 -6c-18 0 -36 2 -56 6v451h-65c-5 12 -7 25 -7 38s2 27 7 39h65v113c18 5 36 6 54 6c20 0 40 -1 59 -6v-113h303v113c20 4 38 6 57 6s38 -2 57 -6v-113h69
c4 -11 6 -25 6 -38zM495 378v73h-303v-73h303z" />
    <glyph glyph-name="I" unicode="I" horiz-adv-x="271" 
d="M137 -6c-20 0 -38 2 -58 6v641c19 5 38 7 56 7c19 0 38 -2 57 -7v-641c-18 -4 -36 -6 -55 -6z" />
    <glyph glyph-name="IJ" unicode="&#x132;" horiz-adv-x="547" 
d="M130 162c-20 0 -38 1 -59 5v474c19 5 38 6 57 6c20 0 38 -1 58 -6v-474c-18 -4 -37 -5 -56 -5zM282 -25c-69 0 -120 32 -142 57c6 39 30 71 61 88c18 -20 41 -39 78 -39c51 0 82 24 82 88v472c17 5 37 6 55 6c20 0 38 -1 58 -6v-471c0 -127 -78 -195 -192 -195z" />
    <glyph glyph-name="Iacute" unicode="&#xcd;" horiz-adv-x="271" 
d="M51 678c-13 11 -22 24 -23 44l167 122c31 -19 51 -52 52 -95zM137 -6c-20 0 -38 2 -58 6v641c19 5 38 7 56 7c19 0 38 -2 57 -7v-641c-18 -4 -36 -6 -55 -6z" />
    <glyph glyph-name="Icircumflex" unicode="&#xce;" horiz-adv-x="271" 
d="M169 833l100 -99c-8 -22 -20 -37 -44 -50l-93 68l-86 -67c-22 9 -38 24 -44 44l100 104c22 5 45 5 67 0zM137 -6c-20 0 -38 2 -58 6v641c19 5 38 7 56 7c19 0 38 -2 57 -7v-641c-18 -4 -36 -6 -55 -6z" />
    <glyph glyph-name="Idieresis" unicode="&#xcf;" horiz-adv-x="271" 
d="M55 697c-36 0 -64 27 -64 63c0 35 27 62 64 62c34 0 62 -27 62 -62c0 -36 -28 -63 -62 -63zM219 697c-35 0 -63 27 -63 63c0 35 27 62 63 62c34 0 63 -27 63 -62c0 -36 -29 -63 -63 -63zM137 -6c-20 0 -38 2 -58 6v641c19 5 38 7 56 7c19 0 38 -2 57 -7v-641
c-18 -4 -36 -6 -55 -6z" />
    <glyph glyph-name="Idotaccent" unicode="&#x130;" horiz-adv-x="271" 
d="M137 692c-40 0 -72 31 -72 71s32 71 72 71c39 0 71 -31 71 -71s-32 -71 -71 -71zM137 -6c-20 0 -38 2 -58 6v641c19 5 38 7 56 7c19 0 38 -2 57 -7v-641c-18 -4 -36 -6 -55 -6z" />
    <glyph glyph-name="Igrave" unicode="&#xcc;" horiz-adv-x="271" 
d="M206 680l-196 71c1 43 21 76 52 95l167 -122c-1 -20 -10 -33 -23 -44zM137 -6c-20 0 -38 2 -58 6v641c19 5 38 7 56 7c19 0 38 -2 57 -7v-641c-18 -4 -36 -6 -55 -6z" />
    <glyph glyph-name="Imacron" unicode="&#x12a;" horiz-adv-x="271" 
d="M23 715c-4 14 -6 29 -6 44s2 30 6 45h225c4 -14 5 -29 5 -45c0 -14 -1 -29 -5 -44h-225zM137 -6c-20 0 -38 2 -58 6v641c19 5 38 7 56 7c19 0 38 -2 57 -7v-641c-18 -4 -36 -6 -55 -6z" />
    <glyph glyph-name="Iogonek" unicode="&#x12e;" horiz-adv-x="271" 
d="M210 -96c18 -12 38 -36 38 -65c-21 -20 -58 -41 -116 -41c-55 0 -98 33 -98 87c0 48 31 86 62 112l-17 3v641c19 5 38 7 56 7c19 0 38 -2 57 -7v-641c-35 -22 -66 -52 -66 -82c0 -26 17 -34 33 -34c22 0 41 12 51 20z" />
    <glyph glyph-name="Itilde" unicode="&#x128;" horiz-adv-x="271" 
d="M190 693c-44 0 -77 32 -102 32c-18 0 -32 -9 -37 -31c-31 -3 -61 9 -76 27c11 62 55 98 103 98c40 0 84 -33 104 -33c16 0 29 9 33 31c29 4 60 -6 76 -26c-12 -62 -53 -98 -101 -98zM137 -6c-20 0 -38 2 -58 6v641c19 5 38 7 56 7c19 0 38 -2 57 -7v-641
c-18 -4 -36 -6 -55 -6z" />
    <glyph glyph-name="J" unicode="J" horiz-adv-x="415" 
d="M149 -21c-69 0 -120 31 -142 57c7 38 30 70 61 87c18 -19 41 -39 78 -39c51 0 82 24 82 88v469c17 5 37 6 56 6s38 -1 57 -6v-468c0 -127 -78 -194 -192 -194z" />
    <glyph glyph-name="K" unicode="K" horiz-adv-x="612" 
d="M339 346l280 -340c-23 -5 -53 -8 -88 -8c-16 0 -44 1 -58 2l-222 272c-19 -14 -38 -29 -59 -44v-228c-18 -4 -37 -6 -57 -6c-18 0 -36 2 -56 6v641c18 4 36 6 55 6s39 -2 58 -6v-285c117 90 180 162 262 288c18 2 41 3 57 3c18 0 46 -1 75 -6
c-76 -120 -152 -210 -247 -295z" />
    <glyph glyph-name="Kcommaaccent" unicode="&#x136;" horiz-adv-x="612" 
d="M339 346l280 -340c-23 -5 -53 -8 -88 -8c-16 0 -44 1 -58 2l-222 272c-19 -14 -38 -29 -59 -44v-228c-18 -4 -37 -6 -57 -6c-18 0 -36 2 -56 6v641c18 4 36 6 55 6s39 -2 58 -6v-285c117 90 180 162 262 288c18 2 41 3 57 3c18 0 46 -1 75 -6
c-76 -120 -152 -210 -247 -295zM318 -37c16 0 33 -3 46 -9c2 -13 3 -26 3 -37c0 -56 -29 -111 -80 -142c-15 2 -32 13 -40 30c24 31 28 68 28 91c0 19 -4 40 -10 57c13 6 33 10 53 10z" />
    <glyph glyph-name="L" unicode="L" horiz-adv-x="493" 
d="M472 102c4 -17 6 -33 6 -50c0 -16 -2 -34 -6 -52h-393v642c19 4 37 6 56 6s38 -2 57 -6v-540h280z" />
    <glyph glyph-name="Lacute" unicode="&#x139;" horiz-adv-x="493" 
d="M227 849c35 -23 50 -55 51 -98l-211 -75c-13 11 -21 26 -23 46zM472 102c4 -17 6 -33 6 -50c0 -16 -2 -34 -6 -52h-393v642c19 4 37 6 56 6s38 -2 57 -6v-540h280z" />
    <glyph glyph-name="Lcaron" unicode="&#x13d;" horiz-adv-x="493" 
d="M357 511c-16 2 -32 9 -42 24c17 37 20 79 20 107c0 21 -4 50 -12 69c13 7 32 11 51 11c16 0 34 -3 46 -10c4 -16 5 -28 5 -43c0 -60 -28 -123 -68 -158zM472 102c4 -17 6 -33 6 -50c0 -16 -2 -34 -6 -52h-393v642c19 4 37 6 56 6s38 -2 57 -6v-540h280z" />
    <glyph glyph-name="Lcommaaccent" unicode="&#x13b;" horiz-adv-x="493" 
d="M472 102c4 -17 6 -33 6 -50c0 -16 -2 -34 -6 -52h-393v642c19 4 37 6 56 6s38 -2 57 -6v-540h280zM284 -37c16 0 33 -3 46 -9c2 -13 3 -26 3 -37c0 -56 -29 -111 -80 -142c-15 2 -32 13 -40 30c24 31 28 68 28 91c0 19 -4 40 -10 57c13 6 33 10 53 10z" />
    <glyph glyph-name="Ldot" unicode="&#x13f;" horiz-adv-x="496" 
d="M472 102c4 -17 6 -33 6 -50c0 -16 -2 -34 -6 -52h-393v642c19 4 37 6 56 6s38 -2 57 -6v-540h280zM372 277c-37 0 -69 31 -69 69s32 69 69 69c38 0 69 -31 69 -69s-31 -69 -69 -69z" />
    <glyph glyph-name="Lslash" unicode="&#x141;" horiz-adv-x="493" 
d="M472 102c4 -17 6 -33 6 -50c0 -16 -2 -34 -6 -52h-393v245l-51 -26c-18 14 -34 48 -36 72l87 45v306c19 4 37 6 56 6s38 -2 57 -6v-247l63 33c17 -17 33 -49 35 -73l-98 -51v-202h280z" />
    <glyph glyph-name="M" unicode="M" horiz-adv-x="793" 
d="M655 646c20 0 39 -2 60 -7v-639c-20 -4 -36 -6 -53 -6c-18 0 -34 2 -55 6v351l5 93l-17 -48l-146 -338c-19 -3 -35 -4 -50 -4c-14 0 -29 1 -49 4l-151 340l-18 45l4 -92v-351c-18 -4 -37 -6 -53 -6c-18 0 -33 2 -53 6v639c16 4 35 8 61 8c18 0 36 -1 55 -5l198 -433
l12 -32l10 32l186 433c18 3 31 4 54 4z" />
    <glyph glyph-name="N" unicode="N" horiz-adv-x="687" 
d="M552 647c19 0 37 -2 56 -6v-636c-33 -8 -72 -10 -105 -9l-297 426l-18 34l2 -40v-416c-20 -4 -37 -6 -56 -6c-18 0 -34 2 -55 6v635c24 9 69 16 106 10l296 -426l18 -32l-2 45v409c21 4 35 6 55 6z" />
    <glyph glyph-name="Nacute" unicode="&#x143;" horiz-adv-x="687" 
d="M254 676c-13 11 -21 26 -23 46l183 127c35 -23 50 -55 51 -98zM552 647c19 0 37 -2 56 -6v-636c-33 -8 -72 -10 -105 -9l-297 426l-18 34l2 -40v-416c-20 -4 -37 -6 -56 -6c-18 0 -34 2 -55 6v635c24 9 69 16 106 10l296 -426l18 -32l-2 45v409c21 4 35 6 55 6z" />
    <glyph glyph-name="Ncaron" unicode="&#x147;" horiz-adv-x="687" 
d="M382 692c-23 -6 -46 -6 -69 0l-116 93c5 23 17 41 36 54l118 -68l111 68c18 -10 31 -29 35 -52zM552 647c19 0 37 -2 56 -6v-636c-33 -8 -72 -10 -105 -9l-297 426l-18 34l2 -40v-416c-20 -4 -37 -6 -56 -6c-18 0 -34 2 -55 6v635c24 9 69 16 106 10l296 -426l18 -32
l-2 45v409c21 4 35 6 55 6z" />
    <glyph glyph-name="Ncommaaccent" unicode="&#x145;" horiz-adv-x="687" 
d="M552 647c19 0 37 -2 56 -6v-636c-33 -8 -72 -10 -105 -9l-297 426l-18 34l2 -40v-416c-20 -4 -37 -6 -56 -6c-18 0 -34 2 -55 6v635c24 9 69 16 106 10l296 -426l18 -32l-2 45v409c21 4 35 6 55 6zM352 -37c16 0 33 -3 46 -9c2 -13 3 -26 3 -37c0 -56 -29 -111 -80 -142
c-15 2 -32 13 -40 30c24 31 28 68 28 91c0 19 -4 40 -10 57c13 6 33 10 53 10z" />
    <glyph glyph-name="Eng" unicode="&#x14a;" horiz-adv-x="687" 
d="M552 647c19 0 37 -2 56 -6v-654c0 -127 -81 -194 -192 -194c-70 0 -120 32 -143 57c7 38 31 70 61 84c15 -15 40 -39 78 -39c53 0 84 25 84 91v20l-290 416l-18 34l2 -40v-416c-20 -4 -37 -6 -56 -6c-18 0 -34 2 -55 6v635c24 9 69 16 106 10l296 -426l18 -32l-2 45v409
c21 4 35 6 55 6z" />
    <glyph glyph-name="Ntilde" unicode="&#xd1;" horiz-adv-x="687" 
d="M237 688c-25 0 -63 10 -79 28c14 67 61 106 120 106c54 0 99 -38 131 -38c25 0 41 17 47 43c30 0 62 -10 79 -27c-14 -67 -62 -106 -117 -106c-53 0 -100 36 -132 36c-26 0 -43 -16 -49 -42zM552 647c19 0 37 -2 56 -6v-636c-33 -8 -72 -10 -105 -9l-297 426l-18 34
l2 -40v-416c-20 -4 -37 -6 -56 -6c-18 0 -34 2 -55 6v635c24 9 69 16 106 10l296 -426l18 -32l-2 45v409c21 4 35 6 55 6z" />
    <glyph glyph-name="O" unicode="O" horiz-adv-x="736" 
d="M368 -16c-191 0 -328 140 -328 338c0 195 137 339 328 339s328 -139 328 -339c0 -193 -137 -338 -328 -338zM368 90c125 0 206 95 206 232c0 140 -81 233 -206 233s-206 -93 -206 -233c0 -137 81 -232 206 -232z" />
    <glyph glyph-name="Oacute" unicode="&#xd3;" horiz-adv-x="736" 
d="M278 676c-13 11 -21 26 -23 46l183 127c35 -23 50 -55 51 -98zM368 -16c-191 0 -328 140 -328 338c0 195 137 339 328 339s328 -139 328 -339c0 -193 -137 -338 -328 -338zM368 90c125 0 206 95 206 232c0 140 -81 233 -206 233s-206 -93 -206 -233
c0 -137 81 -232 206 -232z" />
    <glyph glyph-name="Ocircumflex" unicode="&#xd4;" horiz-adv-x="736" 
d="M256 685c-18 11 -31 29 -35 53l115 94c23 6 46 6 69 0l116 -92c-5 -24 -17 -42 -36 -55l-118 68zM368 -16c-191 0 -328 140 -328 338c0 195 137 339 328 339s328 -139 328 -339c0 -193 -137 -338 -328 -338zM368 90c125 0 206 95 206 232c0 140 -81 233 -206 233
s-206 -93 -206 -233c0 -137 81 -232 206 -232z" />
    <glyph glyph-name="Odieresis" unicode="&#xd6;" horiz-adv-x="736" 
d="M266 700c-36 0 -64 28 -64 63s28 63 64 63c34 0 62 -28 62 -63s-28 -63 -62 -63zM477 700c-35 0 -64 28 -64 63s28 63 64 63c34 0 63 -28 63 -63s-29 -63 -63 -63zM368 -16c-191 0 -328 140 -328 338c0 195 137 339 328 339s328 -139 328 -339
c0 -193 -137 -338 -328 -338zM368 90c125 0 206 95 206 232c0 140 -81 233 -206 233s-206 -93 -206 -233c0 -137 81 -232 206 -232z" />
    <glyph glyph-name="Ograve" unicode="&#xd2;" horiz-adv-x="736" 
d="M453 676l-210 75c0 43 16 75 51 98l183 -127c-3 -20 -10 -35 -24 -46zM368 -16c-191 0 -328 140 -328 338c0 195 137 339 328 339s328 -139 328 -339c0 -193 -137 -338 -328 -338zM368 90c125 0 206 95 206 232c0 140 -81 233 -206 233s-206 -93 -206 -233
c0 -137 81 -232 206 -232z" />
    <glyph glyph-name="Ohungarumlaut" unicode="&#x150;" horiz-adv-x="736" 
d="M254 664c-19 8 -30 18 -38 36l105 144c36 -7 62 -30 73 -66zM426 664c-19 8 -30 18 -38 36l105 144c36 -7 62 -30 73 -66zM368 -16c-191 0 -328 140 -328 338c0 195 137 339 328 339s328 -139 328 -339c0 -193 -137 -338 -328 -338zM368 90c125 0 206 95 206 232
c0 140 -81 233 -206 233s-206 -93 -206 -233c0 -137 81 -232 206 -232z" />
    <glyph glyph-name="Omacron" unicode="&#x14c;" horiz-adv-x="736" 
d="M226 718c-3 13 -6 27 -6 41s3 28 6 42h289c4 -13 6 -27 6 -42c0 -14 -2 -28 -6 -41h-289zM368 -16c-191 0 -328 140 -328 338c0 195 137 339 328 339s328 -139 328 -339c0 -193 -137 -338 -328 -338zM368 90c125 0 206 95 206 232c0 140 -81 233 -206 233
s-206 -93 -206 -233c0 -137 81 -232 206 -232z" />
    <glyph glyph-name="Oslash" unicode="&#xd8;" horiz-adv-x="736" 
d="M698 616l-70 -77c43 -57 68 -132 68 -217c0 -193 -137 -338 -328 -338c-74 0 -140 21 -193 58l-69 -76c-33 10 -57 34 -68 65l70 76c-43 57 -68 131 -68 215c0 195 137 339 328 339c74 0 141 -21 194 -59l68 75c31 -10 55 -32 68 -61zM162 322c0 -48 10 -90 28 -125
l296 323c-32 23 -72 35 -118 35c-125 0 -206 -93 -206 -233zM574 322c0 49 -10 92 -28 127l-295 -324c32 -22 72 -35 117 -35c125 0 206 95 206 232z" />
    <glyph glyph-name="Oslashacute" unicode="&#x1fe;" horiz-adv-x="736" 
d="M278 676c-13 11 -21 26 -23 46l183 127c35 -23 50 -55 51 -98zM698 616l-70 -77c43 -57 68 -132 68 -217c0 -193 -137 -338 -328 -338c-74 0 -140 21 -193 58l-69 -76c-33 10 -57 34 -68 65l70 76c-43 57 -68 131 -68 215c0 195 137 339 328 339c74 0 141 -21 194 -59
l68 75c31 -10 55 -32 68 -61zM162 322c0 -48 10 -90 28 -125l296 323c-32 23 -72 35 -118 35c-125 0 -206 -93 -206 -233zM574 322c0 49 -10 92 -28 127l-295 -324c32 -22 72 -35 117 -35c125 0 206 95 206 232z" />
    <glyph glyph-name="Otilde" unicode="&#xd5;" horiz-adv-x="736" 
d="M261 688c-25 0 -63 10 -79 28c14 67 61 106 120 106c54 0 99 -38 131 -38c25 0 41 17 47 43c30 0 62 -10 79 -27c-14 -67 -62 -106 -117 -106c-53 0 -100 36 -132 36c-26 0 -43 -16 -49 -42zM368 -16c-191 0 -328 140 -328 338c0 195 137 339 328 339s328 -139 328 -339
c0 -193 -137 -338 -328 -338zM368 90c125 0 206 95 206 232c0 140 -81 233 -206 233s-206 -93 -206 -233c0 -137 81 -232 206 -232z" />
    <glyph glyph-name="OE" unicode="&#x152;" horiz-adv-x="890" 
d="M850 53c0 -18 -2 -35 -6 -53h-376c-33 -6 -66 -10 -99 -10c-194 0 -328 130 -328 331c0 191 138 329 331 329c32 0 68 -2 101 -8h361c4 -17 6 -35 6 -52c0 -18 -2 -34 -6 -52h-270v-157h237c4 -18 6 -35 6 -52s-2 -35 -6 -52h-237v-173h280c4 -17 6 -34 6 -51zM164 321
c0 -131 78 -224 208 -224c26 0 53 3 77 8v429c-23 5 -50 7 -77 7c-126 0 -208 -91 -208 -220z" />
    <glyph glyph-name="P" unicode="P" horiz-adv-x="576" 
d="M278 656c190 0 272 -85 272 -211c0 -138 -98 -227 -268 -227c-34 0 -63 1 -90 3v-221c-19 -4 -37 -6 -57 -6c-19 0 -37 2 -57 6v634c53 13 122 22 200 22zM282 316c108 0 150 54 150 128c0 69 -49 113 -151 113c-30 0 -60 -2 -89 -5v-233c26 -2 56 -3 90 -3z" />
    <glyph glyph-name="Thorn" unicode="&#xde;" horiz-adv-x="555" 
d="M267 536c180 0 260 -84 260 -209c0 -133 -96 -224 -254 -224c-29 0 -55 1 -79 3v-106c-19 -4 -37 -6 -57 -6c-19 0 -38 2 -58 6v641c19 4 38 6 57 6s38 -2 58 -6v-109c23 2 47 4 73 4zM272 202c98 0 137 52 137 124c0 68 -47 112 -140 112c-22 0 -49 -2 -75 -5v-227
c23 -3 49 -4 78 -4z" />
    <glyph glyph-name="Q" unicode="Q" horiz-adv-x="736" 
d="M545 33c76 -32 134 -82 160 -137c-24 -30 -60 -46 -100 -58c-60 96 -138 146 -243 146c-188 3 -322 142 -322 338c0 195 137 339 328 339s328 -139 328 -339c0 -126 -58 -231 -151 -289zM162 322c0 -137 81 -232 206 -232s206 95 206 232c0 140 -81 233 -206 233
s-206 -93 -206 -233z" />
    <glyph glyph-name="R" unicode="R" horiz-adv-x="594" 
d="M413 261l157 -255c-25 -7 -57 -10 -90 -10c-11 0 -26 0 -36 2l-143 238h-15c-30 0 -62 0 -94 2v-238c-19 -4 -37 -6 -57 -6c-19 0 -37 2 -57 6v632c59 13 137 21 205 21c178 0 255 -79 255 -199c0 -96 -51 -160 -125 -193zM192 335c33 -2 66 -2 97 -2
c96 0 134 50 134 115c0 67 -43 107 -135 107c-33 0 -65 -2 -96 -5v-215z" />
    <glyph glyph-name="Racute" unicode="&#x154;" horiz-adv-x="594" 
d="M190 676c-13 11 -21 26 -23 46l183 127c35 -23 50 -55 51 -98zM413 261l157 -255c-25 -7 -57 -10 -90 -10c-11 0 -26 0 -36 2l-143 238h-15c-30 0 -62 0 -94 2v-238c-19 -4 -37 -6 -57 -6c-19 0 -37 2 -57 6v632c59 13 137 21 205 21c178 0 255 -79 255 -199
c0 -96 -51 -160 -125 -193zM192 335c33 -2 66 -2 97 -2c96 0 134 50 134 115c0 67 -43 107 -135 107c-33 0 -65 -2 -96 -5v-215z" />
    <glyph glyph-name="Rcaron" unicode="&#x158;" horiz-adv-x="594" 
d="M318 692c-23 -6 -46 -6 -69 0l-116 93c5 23 17 41 36 54l118 -68l111 68c18 -10 31 -29 35 -52zM413 261l157 -255c-25 -7 -57 -10 -90 -10c-11 0 -26 0 -36 2l-143 238h-15c-30 0 -62 0 -94 2v-238c-19 -4 -37 -6 -57 -6c-19 0 -37 2 -57 6v632c59 13 137 21 205 21
c178 0 255 -79 255 -199c0 -96 -51 -160 -125 -193zM192 335c33 -2 66 -2 97 -2c96 0 134 50 134 115c0 67 -43 107 -135 107c-33 0 -65 -2 -96 -5v-215z" />
    <glyph glyph-name="Rcommaaccent" unicode="&#x156;" horiz-adv-x="594" 
d="M413 261l157 -255c-25 -7 -57 -10 -90 -10c-11 0 -26 0 -36 2l-143 238h-15c-30 0 -62 0 -94 2v-238c-19 -4 -37 -6 -57 -6c-19 0 -37 2 -57 6v632c59 13 137 21 205 21c178 0 255 -79 255 -199c0 -96 -51 -160 -125 -193zM192 335c33 -2 66 -2 97 -2
c96 0 134 50 134 115c0 67 -43 107 -135 107c-33 0 -65 -2 -96 -5v-215zM305 -37c16 0 33 -3 46 -9c2 -13 3 -26 3 -37c0 -56 -29 -111 -80 -142c-15 2 -32 13 -40 30c24 31 28 68 28 91c0 19 -4 40 -10 57c13 6 33 10 53 10z" />
    <glyph glyph-name="S" unicode="S" horiz-adv-x="540" 
d="M263 -16c-121 0 -193 44 -231 80c7 41 30 72 59 89c40 -36 100 -64 173 -64c86 0 124 36 124 87c0 42 -20 73 -139 102c-103 24 -197 66 -198 193c0 111 89 187 225 187c106 0 173 -32 214 -64c-3 -35 -25 -75 -55 -92c-40 29 -91 52 -163 52c-69 0 -110 -33 -110 -75
s20 -65 130 -92c125 -31 207 -81 208 -199c1 -130 -91 -204 -237 -204z" />
    <glyph glyph-name="Sacute" unicode="&#x15a;" horiz-adv-x="540" 
d="M180 676c-13 11 -21 26 -23 46l183 127c35 -23 50 -55 51 -98zM263 -16c-121 0 -193 44 -231 80c7 41 30 72 59 89c40 -36 100 -64 173 -64c86 0 124 36 124 87c0 42 -20 73 -139 102c-103 24 -197 66 -198 193c0 111 89 187 225 187c106 0 173 -32 214 -64
c-3 -35 -25 -75 -55 -92c-40 29 -91 52 -163 52c-69 0 -110 -33 -110 -75s20 -65 130 -92c125 -31 207 -81 208 -199c1 -130 -91 -204 -237 -204z" />
    <glyph glyph-name="Scaron" unicode="&#x160;" horiz-adv-x="540" 
d="M239 692l-116 93c5 23 17 41 36 54l118 -68l111 68c18 -10 31 -29 35 -52l-115 -95c-23 -6 -46 -6 -69 0zM263 -16c-121 0 -193 44 -231 80c7 41 30 72 59 89c40 -36 100 -64 173 -64c86 0 124 36 124 87c0 42 -20 73 -139 102c-103 24 -197 66 -198 193
c0 111 89 187 225 187c106 0 173 -32 214 -64c-3 -35 -25 -75 -55 -92c-40 29 -91 52 -163 52c-69 0 -110 -33 -110 -75s20 -65 130 -92c125 -31 207 -81 208 -199c1 -130 -91 -204 -237 -204z" />
    <glyph glyph-name="Scedilla" unicode="&#x15e;" horiz-adv-x="540" 
d="M500 188c1 -118 -74 -189 -197 -202l-8 -23c40 -8 76 -27 76 -73c0 -75 -72 -94 -122 -94c-31 0 -68 10 -83 21c1 24 12 46 26 59c14 -9 29 -14 46 -14c22 0 39 9 39 29c0 26 -27 33 -65 34l23 60c-104 6 -168 46 -203 79c7 41 30 72 59 89c40 -36 100 -64 173 -64
c86 0 124 36 124 87c0 42 -20 73 -139 102c-103 24 -197 66 -198 193c0 111 89 187 225 187c106 0 173 -32 214 -64c-3 -35 -25 -75 -55 -92c-40 29 -91 52 -163 52c-69 0 -110 -33 -110 -75s20 -65 130 -92c125 -31 207 -81 208 -199z" />
    <glyph glyph-name="Scommaaccent" unicode="&#x218;" horiz-adv-x="540" 
d="M263 -16c-121 0 -193 44 -231 80c7 41 30 72 59 89c40 -36 100 -64 173 -64c86 0 124 36 124 87c0 42 -20 73 -139 102c-103 24 -197 66 -198 193c0 111 89 187 225 187c106 0 173 -32 214 -64c-3 -35 -25 -75 -55 -92c-40 29 -91 52 -163 52c-69 0 -110 -33 -110 -75
s20 -65 130 -92c125 -31 207 -81 208 -199c1 -130 -91 -204 -237 -204zM249 -225c-15 2 -32 13 -40 30c24 31 28 68 28 91c0 19 -4 40 -10 57c13 6 33 10 53 10c16 0 33 -3 46 -9c2 -13 3 -26 3 -37c0 -56 -29 -111 -80 -142z" />
    <glyph glyph-name="T" unicode="T" horiz-adv-x="543" 
d="M528 591c0 -17 -2 -33 -6 -51h-194v-541c-19 -3 -37 -6 -57 -6c-18 0 -37 3 -56 6v541h-195c-4 17 -6 34 -6 51s2 34 6 51h502c4 -17 6 -34 6 -51z" />
    <glyph glyph-name="Tbar" unicode="&#x166;" horiz-adv-x="543" 
d="M522 540h-194v-182h93c3 -13 6 -27 6 -43c0 -14 -3 -28 -6 -43h-93v-273c-19 -3 -37 -6 -57 -6c-18 0 -37 3 -56 6v273h-94c-5 13 -7 28 -7 42c0 15 2 30 7 44h94v182h-195c-4 17 -6 34 -6 51s2 34 6 51h502c4 -17 6 -34 6 -51s-2 -33 -6 -51z" />
    <glyph glyph-name="Tcaron" unicode="&#x164;" horiz-adv-x="543" 
d="M307 692c-23 -6 -46 -6 -69 0l-116 93c5 23 17 41 36 54l118 -68l111 68c18 -10 31 -29 35 -52zM528 591c0 -17 -2 -33 -6 -51h-194v-541c-19 -3 -37 -6 -57 -6c-18 0 -37 3 -56 6v541h-195c-4 17 -6 34 -6 51s2 34 6 51h502c4 -17 6 -34 6 -51z" />
    <glyph glyph-name="U" unicode="U" horiz-adv-x="672" 
d="M337 -17c-158 0 -266 93 -266 271v387c19 4 38 6 57 6s38 -2 58 -6v-386c0 -99 53 -165 152 -165c100 0 152 66 152 165v386c19 4 37 6 56 6c18 0 37 -2 56 -6v-385c0 -176 -108 -273 -265 -273z" />
    <glyph glyph-name="Uacute" unicode="&#xda;" horiz-adv-x="672" 
d="M248 676c-13 11 -21 26 -23 46l183 127c35 -23 50 -55 51 -98zM337 -17c-158 0 -266 93 -266 271v387c19 4 38 6 57 6s38 -2 58 -6v-386c0 -99 53 -165 152 -165c100 0 152 66 152 165v386c19 4 37 6 56 6c18 0 37 -2 56 -6v-385c0 -176 -108 -273 -265 -273z" />
    <glyph glyph-name="Ucircumflex" unicode="&#xdb;" horiz-adv-x="672" 
d="M226 685c-18 11 -31 29 -35 53l115 94c23 6 46 6 69 0l116 -92c-5 -24 -17 -42 -36 -55l-118 68zM337 -17c-158 0 -266 93 -266 271v387c19 4 38 6 57 6s38 -2 58 -6v-386c0 -99 53 -165 152 -165c100 0 152 66 152 165v386c19 4 37 6 56 6c18 0 37 -2 56 -6v-385
c0 -176 -108 -273 -265 -273z" />
    <glyph glyph-name="Udieresis" unicode="&#xdc;" horiz-adv-x="672" 
d="M236 700c-36 0 -64 28 -64 63s28 63 64 63c34 0 62 -28 62 -63s-28 -63 -62 -63zM447 700c-35 0 -64 28 -64 63s28 63 64 63c34 0 63 -28 63 -63s-29 -63 -63 -63zM337 -17c-158 0 -266 93 -266 271v387c19 4 38 6 57 6s38 -2 58 -6v-386c0 -99 53 -165 152 -165
c100 0 152 66 152 165v386c19 4 37 6 56 6c18 0 37 -2 56 -6v-385c0 -176 -108 -273 -265 -273z" />
    <glyph glyph-name="Ugrave" unicode="&#xd9;" horiz-adv-x="672" 
d="M423 676l-210 75c0 43 16 75 51 98l183 -127c-3 -20 -10 -35 -24 -46zM337 -17c-158 0 -266 93 -266 271v387c19 4 38 6 57 6s38 -2 58 -6v-386c0 -99 53 -165 152 -165c100 0 152 66 152 165v386c19 4 37 6 56 6c18 0 37 -2 56 -6v-385c0 -176 -108 -273 -265 -273z" />
    <glyph glyph-name="Uhungarumlaut" unicode="&#x170;" horiz-adv-x="672" 
d="M224 664c-19 8 -30 18 -38 36l105 144c36 -7 62 -30 73 -66zM396 664c-19 8 -30 18 -38 36l105 144c36 -7 62 -30 73 -66zM337 -17c-158 0 -266 93 -266 271v387c19 4 38 6 57 6s38 -2 58 -6v-386c0 -99 53 -165 152 -165c100 0 152 66 152 165v386c19 4 37 6 56 6
c18 0 37 -2 56 -6v-385c0 -176 -108 -273 -265 -273z" />
    <glyph glyph-name="Umacron" unicode="&#x16a;" horiz-adv-x="672" 
d="M196 718c-3 13 -6 27 -6 41s3 28 6 42h289c4 -13 6 -27 6 -42c0 -14 -2 -28 -6 -41h-289zM337 -17c-158 0 -266 93 -266 271v387c19 4 38 6 57 6s38 -2 58 -6v-386c0 -99 53 -165 152 -165c100 0 152 66 152 165v386c19 4 37 6 56 6c18 0 37 -2 56 -6v-385
c0 -176 -108 -273 -265 -273z" />
    <glyph glyph-name="Uogonek" unicode="&#x172;" horiz-adv-x="672" 
d="M475 14c-35 -31 -63 -67 -63 -95c0 -24 17 -33 35 -33c21 0 39 12 50 20c18 -12 37 -36 37 -65c-21 -20 -58 -41 -115 -41c-55 0 -99 33 -99 85c0 38 20 71 45 99c-9 -1 -19 -1 -28 -1c-158 0 -266 93 -266 271v387c19 4 38 6 57 6s38 -2 58 -6v-386
c0 -99 53 -165 152 -165c100 0 152 66 152 165v386c19 4 37 6 56 6c18 0 37 -2 56 -6v-385c0 -118 -48 -200 -127 -242z" />
    <glyph glyph-name="Uring" unicode="&#x16e;" horiz-adv-x="672" 
d="M342 658c-60 0 -108 48 -108 107c0 60 48 108 108 108c58 0 106 -48 106 -108c0 -59 -48 -107 -106 -107zM341 723c24 0 40 20 40 42c0 23 -16 43 -40 43s-40 -20 -40 -43c0 -22 16 -42 40 -42zM337 -17c-158 0 -266 93 -266 271v387c19 4 38 6 57 6s38 -2 58 -6v-386
c0 -99 53 -165 152 -165c100 0 152 66 152 165v386c19 4 37 6 56 6c18 0 37 -2 56 -6v-385c0 -176 -108 -273 -265 -273z" />
    <glyph glyph-name="Utilde" unicode="&#x168;" horiz-adv-x="672" 
d="M231 688c-25 0 -63 10 -79 28c14 67 61 106 120 106c54 0 99 -38 131 -38c25 0 41 17 47 43c30 0 62 -10 79 -27c-14 -67 -62 -106 -117 -106c-53 0 -100 36 -132 36c-26 0 -43 -16 -49 -42zM337 -17c-158 0 -266 93 -266 271v387c19 4 38 6 57 6s38 -2 58 -6v-386
c0 -99 53 -165 152 -165c100 0 152 66 152 165v386c19 4 37 6 56 6c18 0 37 -2 56 -6v-385c0 -176 -108 -273 -265 -273z" />
    <glyph glyph-name="V" unicode="V" horiz-adv-x="617" 
d="M522 649c30 0 65 -4 81 -10c-51 -213 -130 -425 -235 -637c-19 -5 -39 -6 -58 -6c-21 0 -38 1 -61 6c-104 209 -180 421 -235 637c23 6 53 10 81 10c15 0 29 -1 43 -3c42 -180 101 -360 177 -536c75 178 132 358 170 536c12 2 25 3 37 3z" />
    <glyph glyph-name="W" unicode="W" horiz-adv-x="927" 
d="M831 649c29 0 63 -5 79 -11c-49 -219 -107 -431 -193 -637c-15 -3 -39 -6 -62 -6c-22 0 -44 3 -61 6l-110 377l-16 71l-16 -72l-122 -375c-14 -3 -37 -6 -60 -6c-26 0 -49 3 -67 6c-82 202 -137 414 -179 637c24 6 54 10 83 10c14 0 29 -1 42 -3
c22 -158 64 -347 122 -525l16 70l125 400c19 5 39 6 58 6s38 -1 57 -6l118 -400l17 -71c61 183 105 368 132 525c11 3 24 4 37 4z" />
    <glyph glyph-name="Wacute" unicode="&#x1e82;" horiz-adv-x="927" 
d="M377 676c-13 11 -21 26 -23 46l183 127c35 -23 50 -55 51 -98zM831 649c29 0 63 -5 79 -11c-49 -219 -107 -431 -193 -637c-15 -3 -39 -6 -62 -6c-22 0 -44 3 -61 6l-110 377l-16 71l-16 -72l-122 -375c-14 -3 -37 -6 -60 -6c-26 0 -49 3 -67 6
c-82 202 -137 414 -179 637c24 6 54 10 83 10c14 0 29 -1 42 -3c22 -158 64 -347 122 -525l16 70l125 400c19 5 39 6 58 6s38 -1 57 -6l118 -400l17 -71c61 183 105 368 132 525c11 3 24 4 37 4z" />
    <glyph glyph-name="Wcircumflex" unicode="&#x174;" horiz-adv-x="927" 
d="M355 685c-18 11 -31 29 -35 53l115 94c23 6 46 6 69 0l116 -92c-5 -24 -17 -42 -36 -55l-118 68zM831 649c29 0 63 -5 79 -11c-49 -219 -107 -431 -193 -637c-15 -3 -39 -6 -62 -6c-22 0 -44 3 -61 6l-110 377l-16 71l-16 -72l-122 -375c-14 -3 -37 -6 -60 -6
c-26 0 -49 3 -67 6c-82 202 -137 414 -179 637c24 6 54 10 83 10c14 0 29 -1 42 -3c22 -158 64 -347 122 -525l16 70l125 400c19 5 39 6 58 6s38 -1 57 -6l118 -400l17 -71c61 183 105 368 132 525c11 3 24 4 37 4z" />
    <glyph glyph-name="Wdieresis" unicode="&#x1e84;" horiz-adv-x="927" 
d="M364 700c-36 0 -64 28 -64 63s28 63 64 63c34 0 62 -28 62 -63s-28 -63 -62 -63zM575 700c-35 0 -64 28 -64 63s28 63 64 63c34 0 63 -28 63 -63s-29 -63 -63 -63zM831 649c29 0 63 -5 79 -11c-49 -219 -107 -431 -193 -637c-15 -3 -39 -6 -62 -6c-22 0 -44 3 -61 6
l-110 377l-16 71l-16 -72l-122 -375c-14 -3 -37 -6 -60 -6c-26 0 -49 3 -67 6c-82 202 -137 414 -179 637c24 6 54 10 83 10c14 0 29 -1 42 -3c22 -158 64 -347 122 -525l16 70l125 400c19 5 39 6 58 6s38 -1 57 -6l118 -400l17 -71c61 183 105 368 132 525c11 3 24 4 37 4z
" />
    <glyph glyph-name="Wgrave" unicode="&#x1e80;" horiz-adv-x="927" 
d="M576 722c-3 -20 -10 -35 -24 -46l-210 75c0 43 16 75 51 98zM831 649c29 0 63 -5 79 -11c-49 -219 -107 -431 -193 -637c-15 -3 -39 -6 -62 -6c-22 0 -44 3 -61 6l-110 377l-16 71l-16 -72l-122 -375c-14 -3 -37 -6 -60 -6c-26 0 -49 3 -67 6c-82 202 -137 414 -179 637
c24 6 54 10 83 10c14 0 29 -1 42 -3c22 -158 64 -347 122 -525l16 70l125 400c19 5 39 6 58 6s38 -1 57 -6l118 -400l17 -71c61 183 105 368 132 525c11 3 24 4 37 4z" />
    <glyph glyph-name="X" unicode="X" horiz-adv-x="603" 
d="M378 322l219 -317c-23 -5 -52 -9 -78 -9c-15 0 -39 2 -56 4l-166 246l-162 -246c-15 -2 -37 -4 -53 -4c-26 0 -57 3 -77 9l222 320l-207 315c27 6 59 9 87 9c14 0 33 -1 47 -3l153 -246l148 246c14 2 32 3 46 3c27 0 60 -3 83 -9z" />
    <glyph glyph-name="Y" unicode="Y" horiz-adv-x="597" 
d="M588 640l-233 -399v-241c-19 -4 -38 -6 -57 -6s-37 2 -57 6v247l-235 392c25 6 50 10 77 10c17 0 37 -2 52 -4l149 -255l19 -42l19 42l146 255c16 3 34 4 51 4c24 0 47 -4 69 -9z" />
    <glyph glyph-name="Yacute" unicode="&#xdd;" horiz-adv-x="597" 
d="M206 676c-13 11 -21 26 -23 46l183 127c35 -23 50 -55 51 -98zM588 640l-233 -399v-241c-19 -4 -38 -6 -57 -6s-37 2 -57 6v247l-235 392c25 6 50 10 77 10c17 0 37 -2 52 -4l149 -255l19 -42l19 42l146 255c16 3 34 4 51 4c24 0 47 -4 69 -9z" />
    <glyph glyph-name="Ycircumflex" unicode="&#x176;" horiz-adv-x="597" 
d="M185 685c-18 11 -31 29 -35 53l115 94c23 6 46 6 69 0l116 -92c-5 -24 -17 -42 -36 -55l-118 68zM588 640l-233 -399v-241c-19 -4 -38 -6 -57 -6s-37 2 -57 6v247l-235 392c25 6 50 10 77 10c17 0 37 -2 52 -4l149 -255l19 -42l19 42l146 255c16 3 34 4 51 4
c24 0 47 -4 69 -9z" />
    <glyph glyph-name="Ydieresis" unicode="&#x178;" horiz-adv-x="597" 
d="M194 700c-36 0 -64 28 -64 63s28 63 64 63c34 0 62 -28 62 -63s-28 -63 -62 -63zM405 700c-35 0 -64 28 -64 63s28 63 64 63c34 0 63 -28 63 -63s-29 -63 -63 -63zM588 640l-233 -399v-241c-19 -4 -38 -6 -57 -6s-37 2 -57 6v247l-235 392c25 6 50 10 77 10
c17 0 37 -2 52 -4l149 -255l19 -42l19 42l146 255c16 3 34 4 51 4c24 0 47 -4 69 -9z" />
    <glyph glyph-name="Ygrave" unicode="&#x1ef2;" horiz-adv-x="597" 
d="M406 722c-3 -20 -10 -35 -24 -46l-210 75c0 43 16 75 51 98zM588 640l-233 -399v-241c-19 -4 -38 -6 -57 -6s-37 2 -57 6v247l-235 392c25 6 50 10 77 10c17 0 37 -2 52 -4l149 -255l19 -42l19 42l146 255c16 3 34 4 51 4c24 0 47 -4 69 -9z" />
    <glyph glyph-name="Z" unicode="Z" horiz-adv-x="574" 
d="M538 101c5 -19 6 -31 6 -50c0 -17 -1 -33 -6 -51h-498c-4 12 -6 24 -6 40c0 25 12 52 30 75l305 405l17 22l-345 -1c-5 18 -6 31 -6 50c0 17 1 34 6 51h488c3 -12 5 -24 5 -40c0 -26 -12 -52 -29 -75l-300 -397l-23 -29h356z" />
    <glyph glyph-name="Zacute" unicode="&#x179;" horiz-adv-x="574" 
d="M193 676c-13 11 -21 26 -23 46l183 127c35 -23 50 -55 51 -98zM538 101c5 -19 6 -31 6 -50c0 -17 -1 -33 -6 -51h-498c-4 12 -6 24 -6 40c0 25 12 52 30 75l305 405l17 22l-345 -1c-5 18 -6 31 -6 50c0 17 1 34 6 51h488c3 -12 5 -24 5 -40c0 -26 -12 -52 -29 -75
l-300 -397l-23 -29h356z" />
    <glyph glyph-name="Zcaron" unicode="&#x17d;" horiz-adv-x="574" 
d="M321 692c-23 -6 -46 -6 -69 0l-116 93c5 23 17 41 36 54l118 -68l111 68c18 -10 31 -29 35 -52zM538 101c5 -19 6 -31 6 -50c0 -17 -1 -33 -6 -51h-498c-4 12 -6 24 -6 40c0 25 12 52 30 75l305 405l17 22l-345 -1c-5 18 -6 31 -6 50c0 17 1 34 6 51h488
c3 -12 5 -24 5 -40c0 -26 -12 -52 -29 -75l-300 -397l-23 -29h356z" />
    <glyph glyph-name="Zdotaccent" unicode="&#x17b;" horiz-adv-x="574" 
d="M286 692c-40 0 -72 31 -72 71s32 71 72 71c39 0 71 -31 71 -71s-32 -71 -71 -71zM538 101c5 -19 6 -31 6 -50c0 -17 -1 -33 -6 -51h-498c-4 12 -6 24 -6 40c0 25 12 52 30 75l305 405l17 22l-345 -1c-5 18 -6 31 -6 50c0 17 1 34 6 51h488c3 -12 5 -24 5 -40
c0 -26 -12 -52 -29 -75l-300 -397l-23 -29h356z" />
    <glyph glyph-name="A.ss01" horiz-adv-x="616" 
d="M365 642c94 -195 173 -406 238 -635c-22 -8 -45 -11 -71 -11c-15 0 -33 1 -47 4c-13 53 -28 104 -43 154h-272c-15 -50 -29 -102 -42 -154c-18 -3 -35 -4 -51 -4c-24 0 -45 3 -64 11c63 229 141 441 236 635c19 5 40 6 59 6c21 0 38 -1 57 -6zM200 250h211
c-27 78 -57 154 -89 227l-17 41l-16 -41c-33 -74 -63 -149 -89 -227z" />
    <glyph glyph-name="Aacute.ss01" horiz-adv-x="616" 
d="M216 676c-13 11 -21 26 -23 46l183 127c35 -23 50 -55 51 -98zM365 642c94 -195 173 -406 238 -635c-22 -8 -45 -11 -71 -11c-15 0 -33 1 -47 4c-13 53 -28 104 -43 154h-272c-15 -50 -29 -102 -42 -154c-18 -3 -35 -4 -51 -4c-24 0 -45 3 -64 11c63 229 141 441 236 635
c19 5 40 6 59 6c21 0 38 -1 57 -6zM200 250h211c-27 78 -57 154 -89 227l-17 41l-16 -41c-33 -74 -63 -149 -89 -227z" />
    <glyph glyph-name="Abreve.ss01" horiz-adv-x="616" 
d="M309 686c-100 0 -155 66 -155 136c23 9 46 11 73 8c10 -41 44 -60 84 -60s74 20 80 60c26 3 50 1 71 -8c0 -67 -55 -136 -153 -136zM365 642c94 -195 173 -406 238 -635c-22 -8 -45 -11 -71 -11c-15 0 -33 1 -47 4c-13 53 -28 104 -43 154h-272
c-15 -50 -29 -102 -42 -154c-18 -3 -35 -4 -51 -4c-24 0 -45 3 -64 11c63 229 141 441 236 635c19 5 40 6 59 6c21 0 38 -1 57 -6zM200 250h211c-27 78 -57 154 -89 227l-17 41l-16 -41c-33 -74 -63 -149 -89 -227z" />
    <glyph glyph-name="Acircumflex.ss01" horiz-adv-x="616" 
d="M194 685c-18 11 -31 29 -35 53l115 94c23 6 46 6 69 0l116 -92c-5 -24 -17 -42 -36 -55l-118 68zM365 642c94 -195 173 -406 238 -635c-22 -8 -45 -11 -71 -11c-15 0 -33 1 -47 4c-13 53 -28 104 -43 154h-272c-15 -50 -29 -102 -42 -154c-18 -3 -35 -4 -51 -4
c-24 0 -45 3 -64 11c63 229 141 441 236 635c19 5 40 6 59 6c21 0 38 -1 57 -6zM200 250h211c-27 78 -57 154 -89 227l-17 41l-16 -41c-33 -74 -63 -149 -89 -227z" />
    <glyph glyph-name="Adieresis.ss01" horiz-adv-x="616" 
d="M203 700c-36 0 -64 28 -64 63s28 63 64 63c34 0 62 -28 62 -63s-28 -63 -62 -63zM414 700c-35 0 -64 28 -64 63s28 63 64 63c34 0 63 -28 63 -63s-29 -63 -63 -63zM365 642c94 -195 173 -406 238 -635c-22 -8 -45 -11 -71 -11c-15 0 -33 1 -47 4c-13 53 -28 104 -43 154
h-272c-15 -50 -29 -102 -42 -154c-18 -3 -35 -4 -51 -4c-24 0 -45 3 -64 11c63 229 141 441 236 635c19 5 40 6 59 6c21 0 38 -1 57 -6zM200 250h211c-27 78 -57 154 -89 227l-17 41l-16 -41c-33 -74 -63 -149 -89 -227z" />
    <glyph glyph-name="Agrave.ss01" horiz-adv-x="616" 
d="M415 722c-3 -20 -10 -35 -24 -46l-210 75c0 43 16 75 51 98zM365 642c94 -195 173 -406 238 -635c-22 -8 -45 -11 -71 -11c-15 0 -33 1 -47 4c-13 53 -28 104 -43 154h-272c-15 -50 -29 -102 -42 -154c-18 -3 -35 -4 -51 -4c-24 0 -45 3 -64 11c63 229 141 441 236 635
c19 5 40 6 59 6c21 0 38 -1 57 -6zM200 250h211c-27 78 -57 154 -89 227l-17 41l-16 -41c-33 -74 -63 -149 -89 -227z" />
    <glyph glyph-name="Amacron.ss01" horiz-adv-x="616" 
d="M453 718h-289c-3 13 -6 27 -6 41s3 28 6 42h289c4 -13 6 -27 6 -42c0 -14 -2 -28 -6 -41zM365 642c94 -195 173 -406 238 -635c-22 -8 -45 -11 -71 -11c-15 0 -33 1 -47 4c-13 53 -28 104 -43 154h-272c-15 -50 -29 -102 -42 -154c-18 -3 -35 -4 -51 -4
c-24 0 -45 3 -64 11c63 229 141 441 236 635c19 5 40 6 59 6c21 0 38 -1 57 -6zM200 250h211c-27 78 -57 154 -89 227l-17 41l-16 -41c-33 -74 -63 -149 -89 -227z" />
    <glyph glyph-name="Aogonek.ss01" horiz-adv-x="616" 
d="M620 -96c18 -12 37 -36 37 -65c-21 -20 -58 -41 -115 -41c-56 0 -99 33 -99 87c0 48 29 87 57 113c-5 0 -10 1 -15 2c-13 53 -28 104 -43 154h-272c-15 -50 -29 -102 -42 -154c-18 -3 -35 -4 -51 -4c-24 0 -45 3 -64 11c63 229 141 441 236 635c19 5 40 6 59 6
c21 0 38 -1 57 -6c94 -195 173 -406 238 -635c-44 -25 -69 -57 -69 -86c0 -27 18 -37 35 -37c22 0 40 12 51 20zM200 250h211c-27 78 -57 154 -89 227l-17 41l-16 -41c-33 -74 -63 -149 -89 -227z" />
    <glyph glyph-name="Aring.ss01" horiz-adv-x="616" 
d="M309 658c-60 0 -108 48 -108 107c0 60 48 108 108 108c58 0 106 -48 106 -108c0 -59 -48 -107 -106 -107zM308 808c-24 0 -40 -20 -40 -43c0 -22 16 -42 40 -42s40 20 40 42c0 23 -16 43 -40 43zM365 642c94 -195 173 -406 238 -635c-22 -8 -45 -11 -71 -11
c-15 0 -33 1 -47 4c-13 53 -28 104 -43 154h-272c-15 -50 -29 -102 -42 -154c-18 -3 -35 -4 -51 -4c-24 0 -45 3 -64 11c63 229 141 441 236 635c19 5 40 6 59 6c21 0 38 -1 57 -6zM200 250h211c-27 78 -57 154 -89 227l-17 41l-16 -41c-33 -74 -63 -149 -89 -227z" />
    <glyph glyph-name="Atilde.ss01" horiz-adv-x="616" 
d="M199 688c-25 0 -63 10 -79 28c14 67 61 106 120 106c54 0 99 -38 131 -38c25 0 41 17 47 43c30 0 62 -10 79 -27c-14 -67 -62 -106 -117 -106c-53 0 -100 36 -132 36c-26 0 -43 -16 -49 -42zM365 642c94 -195 173 -406 238 -635c-22 -8 -45 -11 -71 -11
c-15 0 -33 1 -47 4c-13 53 -28 104 -43 154h-272c-15 -50 -29 -102 -42 -154c-18 -3 -35 -4 -51 -4c-24 0 -45 3 -64 11c63 229 141 441 236 635c19 5 40 6 59 6c21 0 38 -1 57 -6zM200 250h211c-27 78 -57 154 -89 227l-17 41l-16 -41c-33 -74 -63 -149 -89 -227z" />
    <glyph glyph-name="E.ss01" horiz-adv-x="496" 
d="M430 131c27 -16 45 -47 51 -86c-39 -32 -108 -59 -196 -59c-135 0 -243 56 -243 190c0 81 42 134 107 162c-50 28 -80 75 -80 141c0 104 80 179 206 179c80 0 135 -22 171 -45c-3 -36 -21 -68 -46 -88c-35 18 -70 30 -117 30c-66 0 -104 -31 -104 -86
c0 -56 37 -89 131 -89h54c5 -13 8 -31 8 -46c0 -16 -3 -31 -8 -46h-66c-93 0 -137 -36 -137 -101c0 -61 43 -100 124 -100c64 0 105 14 145 44z" />
    <glyph glyph-name="Eacute.ss01" horiz-adv-x="496" 
d="M179 676c-13 11 -21 26 -23 46l183 127c35 -23 50 -55 51 -98zM430 131c27 -16 45 -47 51 -86c-39 -32 -108 -59 -196 -59c-135 0 -243 56 -243 190c0 81 42 134 107 162c-50 28 -80 75 -80 141c0 104 80 179 206 179c80 0 135 -22 171 -45c-3 -36 -21 -68 -46 -88
c-35 18 -70 30 -117 30c-66 0 -104 -31 -104 -86c0 -56 37 -89 131 -89h54c5 -13 8 -31 8 -46c0 -16 -3 -31 -8 -46h-66c-93 0 -137 -36 -137 -101c0 -61 43 -100 124 -100c64 0 105 14 145 44z" />
    <glyph glyph-name="Ecaron.ss01" horiz-adv-x="496" 
d="M307 692c-23 -6 -46 -6 -69 0l-116 93c5 23 17 41 36 54l118 -68l111 68c18 -10 31 -29 35 -52zM430 131c27 -16 45 -47 51 -86c-39 -32 -108 -59 -196 -59c-135 0 -243 56 -243 190c0 81 42 134 107 162c-50 28 -80 75 -80 141c0 104 80 179 206 179
c80 0 135 -22 171 -45c-3 -36 -21 -68 -46 -88c-35 18 -70 30 -117 30c-66 0 -104 -31 -104 -86c0 -56 37 -89 131 -89h54c5 -13 8 -31 8 -46c0 -16 -3 -31 -8 -46h-66c-93 0 -137 -36 -137 -101c0 -61 43 -100 124 -100c64 0 105 14 145 44z" />
    <glyph glyph-name="Ecircumflex.ss01" horiz-adv-x="496" 
d="M157 685c-18 11 -31 29 -35 53l115 94c23 6 46 6 69 0l116 -92c-5 -24 -17 -42 -36 -55l-118 68zM430 131c27 -16 45 -47 51 -86c-39 -32 -108 -59 -196 -59c-135 0 -243 56 -243 190c0 81 42 134 107 162c-50 28 -80 75 -80 141c0 104 80 179 206 179
c80 0 135 -22 171 -45c-3 -36 -21 -68 -46 -88c-35 18 -70 30 -117 30c-66 0 -104 -31 -104 -86c0 -56 37 -89 131 -89h54c5 -13 8 -31 8 -46c0 -16 -3 -31 -8 -46h-66c-93 0 -137 -36 -137 -101c0 -61 43 -100 124 -100c64 0 105 14 145 44z" />
    <glyph glyph-name="Edieresis.ss01" horiz-adv-x="496" 
d="M166 700c-36 0 -64 28 -64 63s28 63 64 63c34 0 62 -28 62 -63s-28 -63 -62 -63zM377 700c-35 0 -64 28 -64 63s28 63 64 63c34 0 63 -28 63 -63s-29 -63 -63 -63zM430 131c27 -16 45 -47 51 -86c-39 -32 -108 -59 -196 -59c-135 0 -243 56 -243 190c0 81 42 134 107 162
c-50 28 -80 75 -80 141c0 104 80 179 206 179c80 0 135 -22 171 -45c-3 -36 -21 -68 -46 -88c-35 18 -70 30 -117 30c-66 0 -104 -31 -104 -86c0 -56 37 -89 131 -89h54c5 -13 8 -31 8 -46c0 -16 -3 -31 -8 -46h-66c-93 0 -137 -36 -137 -101c0 -61 43 -100 124 -100
c64 0 105 14 145 44z" />
    <glyph glyph-name="Edotaccent.ss01" horiz-adv-x="496" 
d="M272 692c-40 0 -72 31 -72 71s32 71 72 71c39 0 71 -31 71 -71s-32 -71 -71 -71zM430 131c27 -16 45 -47 51 -86c-39 -32 -108 -59 -196 -59c-135 0 -243 56 -243 190c0 81 42 134 107 162c-50 28 -80 75 -80 141c0 104 80 179 206 179c80 0 135 -22 171 -45
c-3 -36 -21 -68 -46 -88c-35 18 -70 30 -117 30c-66 0 -104 -31 -104 -86c0 -56 37 -89 131 -89h54c5 -13 8 -31 8 -46c0 -16 -3 -31 -8 -46h-66c-93 0 -137 -36 -137 -101c0 -61 43 -100 124 -100c64 0 105 14 145 44z" />
    <glyph glyph-name="Egrave.ss01" horiz-adv-x="496" 
d="M378 722c-3 -20 -10 -35 -24 -46l-210 75c0 43 16 75 51 98zM430 131c27 -16 45 -47 51 -86c-39 -32 -108 -59 -196 -59c-135 0 -243 56 -243 190c0 81 42 134 107 162c-50 28 -80 75 -80 141c0 104 80 179 206 179c80 0 135 -22 171 -45c-3 -36 -21 -68 -46 -88
c-35 18 -70 30 -117 30c-66 0 -104 -31 -104 -86c0 -56 37 -89 131 -89h54c5 -13 8 -31 8 -46c0 -16 -3 -31 -8 -46h-66c-93 0 -137 -36 -137 -101c0 -61 43 -100 124 -100c64 0 105 14 145 44z" />
    <glyph glyph-name="Emacron.ss01" horiz-adv-x="496" 
d="M416 718h-289c-3 13 -6 27 -6 41s3 28 6 42h289c4 -13 6 -27 6 -42c0 -14 -2 -28 -6 -41zM430 131c27 -16 45 -47 51 -86c-39 -32 -108 -59 -196 -59c-135 0 -243 56 -243 190c0 81 42 134 107 162c-50 28 -80 75 -80 141c0 104 80 179 206 179c80 0 135 -22 171 -45
c-3 -36 -21 -68 -46 -88c-35 18 -70 30 -117 30c-66 0 -104 -31 -104 -86c0 -56 37 -89 131 -89h54c5 -13 8 -31 8 -46c0 -16 -3 -31 -8 -46h-66c-93 0 -137 -36 -137 -101c0 -61 43 -100 124 -100c64 0 105 14 145 44z" />
    <glyph glyph-name="Eogonek.ss01" horiz-adv-x="496" 
d="M463 -94c18 -12 37 -36 37 -65c-21 -20 -58 -41 -115 -41c-55 0 -99 33 -99 85c0 40 22 76 50 104c-16 -2 -33 -3 -51 -3c-135 0 -243 56 -243 190c0 81 42 134 107 162c-50 28 -80 75 -80 141c0 104 80 179 206 179c80 0 135 -22 171 -45c-3 -36 -21 -68 -46 -88
c-35 18 -70 30 -117 30c-66 0 -104 -31 -104 -86c0 -56 37 -89 131 -89h54c5 -13 8 -31 8 -46c0 -16 -3 -31 -8 -46h-66c-93 0 -137 -36 -137 -101c0 -61 43 -100 124 -100c64 0 105 14 145 44c27 -16 45 -47 51 -86c-7 -6 -14 -11 -23 -16c-42 -34 -80 -78 -80 -110
c0 -24 17 -33 35 -33c21 0 39 12 50 20z" />
    <glyph glyph-name="Q.ss02" horiz-adv-x="736" 
d="M696 322c0 -110 -44 -204 -118 -265l71 -96c-17 -29 -50 -55 -85 -61l-76 105c-37 -14 -77 -21 -120 -21c-191 0 -328 140 -328 338c0 195 137 339 328 339s328 -139 328 -339zM368 90c19 0 37 2 53 6l-49 68c21 25 51 45 85 57l54 -74c40 42 63 102 63 175
c0 140 -81 233 -206 233s-206 -93 -206 -233c0 -137 81 -232 206 -232z" />
    <glyph glyph-name="a" unicode="a" horiz-adv-x="512" 
d="M242 487c125 0 217 -56 217 -196v-259c-56 -27 -139 -47 -219 -47c-140 0 -209 59 -209 154c0 98 85 151 200 150c45 0 84 -6 117 -18v27c0 57 -38 91 -114 91c-57 0 -105 -22 -132 -42c-28 14 -47 40 -52 73c28 27 100 67 192 67zM146 144c0 -43 34 -72 104 -72
c36 0 69 6 98 15v102c-31 13 -68 19 -108 19c-56 0 -94 -19 -94 -64z" />
    <glyph glyph-name="aacute" unicode="&#xe1;" horiz-adv-x="512" 
d="M171 517c-18 12 -27 25 -32 46l157 147c35 -19 54 -49 65 -90zM242 487c125 0 217 -56 217 -196v-259c-56 -27 -139 -47 -219 -47c-140 0 -209 59 -209 154c0 98 85 151 200 150c45 0 84 -6 117 -18v27c0 57 -38 91 -114 91c-57 0 -105 -22 -132 -42
c-28 14 -47 40 -52 73c28 27 100 67 192 67zM146 144c0 -43 34 -72 104 -72c36 0 69 6 98 15v102c-31 13 -68 19 -108 19c-56 0 -94 -19 -94 -64z" />
    <glyph glyph-name="abreve" unicode="&#x103;" horiz-adv-x="512" 
d="M250 529c-108 0 -157 76 -157 149c24 10 48 12 76 9c9 -48 37 -77 83 -77c47 0 74 30 79 77c28 3 54 1 75 -9c0 -71 -49 -149 -156 -149zM242 487c125 0 217 -56 217 -196v-259c-56 -27 -139 -47 -219 -47c-140 0 -209 59 -209 154c0 98 85 151 200 150
c45 0 84 -6 117 -18v27c0 57 -38 91 -114 91c-57 0 -105 -22 -132 -42c-28 14 -47 40 -52 73c28 27 100 67 192 67zM146 144c0 -43 34 -72 104 -72c36 0 69 6 98 15v102c-31 13 -68 19 -108 19c-56 0 -94 -19 -94 -64z" />
    <glyph glyph-name="acircumflex" unicode="&#xe2;" horiz-adv-x="512" 
d="M148 525c-22 8 -40 27 -47 50l114 118c23 5 46 5 69 0l111 -114c-6 -22 -24 -45 -48 -55l-101 80zM242 487c125 0 217 -56 217 -196v-259c-56 -27 -139 -47 -219 -47c-140 0 -209 59 -209 154c0 98 85 151 200 150c45 0 84 -6 117 -18v27c0 57 -38 91 -114 91
c-57 0 -105 -22 -132 -42c-28 14 -47 40 -52 73c28 27 100 67 192 67zM146 144c0 -43 34 -72 104 -72c36 0 69 6 98 15v102c-31 13 -68 19 -108 19c-56 0 -94 -19 -94 -64z" />
    <glyph glyph-name="adieresis" unicode="&#xe4;" horiz-adv-x="512" 
d="M145 545c-36 0 -65 28 -65 64c0 35 28 63 65 63c35 0 63 -28 63 -63c0 -36 -28 -64 -63 -64zM353 545c-35 0 -64 28 -64 64c0 35 28 63 64 63c35 0 64 -28 64 -63c0 -36 -29 -64 -64 -64zM242 487c125 0 217 -56 217 -196v-259c-56 -27 -139 -47 -219 -47
c-140 0 -209 59 -209 154c0 98 85 151 200 150c45 0 84 -6 117 -18v27c0 57 -38 91 -114 91c-57 0 -105 -22 -132 -42c-28 14 -47 40 -52 73c28 27 100 67 192 67zM146 144c0 -43 34 -72 104 -72c36 0 69 6 98 15v102c-31 13 -68 19 -108 19c-56 0 -94 -19 -94 -64z" />
    <glyph glyph-name="agrave" unicode="&#xe0;" horiz-adv-x="512" 
d="M352 562c-6 -20 -14 -34 -32 -45l-190 103c10 41 30 71 65 90zM242 487c125 0 217 -56 217 -196v-259c-56 -27 -139 -47 -219 -47c-140 0 -209 59 -209 154c0 98 85 151 200 150c45 0 84 -6 117 -18v27c0 57 -38 91 -114 91c-57 0 -105 -22 -132 -42
c-28 14 -47 40 -52 73c28 27 100 67 192 67zM146 144c0 -43 34 -72 104 -72c36 0 69 6 98 15v102c-31 13 -68 19 -108 19c-56 0 -94 -19 -94 -64z" />
    <glyph glyph-name="amacron" unicode="&#x101;" horiz-adv-x="512" 
d="M391 566h-283c-5 14 -6 28 -6 43s1 31 6 45h283c3 -14 5 -29 5 -44s-2 -30 -5 -44zM242 487c125 0 217 -56 217 -196v-259c-56 -27 -139 -47 -219 -47c-140 0 -209 59 -209 154c0 98 85 151 200 150c45 0 84 -6 117 -18v27c0 57 -38 91 -114 91c-57 0 -105 -22 -132 -42
c-28 14 -47 40 -52 73c28 27 100 67 192 67zM146 144c0 -43 34 -72 104 -72c36 0 69 6 98 15v102c-31 13 -68 19 -108 19c-56 0 -94 -19 -94 -64z" />
    <glyph glyph-name="aogonek" unicode="&#x105;" horiz-adv-x="512" 
d="M460 -94c18 -12 37 -36 37 -65c-21 -20 -58 -41 -115 -41c-55 0 -99 33 -99 85c0 43 25 80 54 109c-31 -6 -64 -9 -97 -9c-140 0 -209 59 -209 154c0 98 85 151 200 150c45 0 84 -6 117 -18v27c0 57 -38 91 -114 91c-57 0 -105 -22 -132 -42c-28 14 -47 40 -52 73
c28 27 100 67 192 67c125 0 217 -56 217 -196v-259c-44 -34 -84 -80 -84 -113c0 -24 17 -33 35 -33c21 0 39 12 50 20zM146 144c0 -43 34 -72 104 -72c36 0 69 6 98 15v102c-31 13 -68 19 -108 19c-56 0 -94 -19 -94 -64z" />
    <glyph glyph-name="aring" unicode="&#xe5;" horiz-adv-x="512" 
d="M250 506c-60 0 -109 48 -109 108c0 59 49 107 109 107c58 0 107 -48 107 -107c0 -60 -49 -108 -107 -108zM249 657c-23 0 -41 -20 -41 -44c0 -22 18 -42 41 -42c25 0 42 20 42 42c0 24 -17 44 -42 44zM242 487c125 0 217 -56 217 -196v-259c-56 -27 -139 -47 -219 -47
c-140 0 -209 59 -209 154c0 98 85 151 200 150c45 0 84 -6 117 -18v27c0 57 -38 91 -114 91c-57 0 -105 -22 -132 -42c-28 14 -47 40 -52 73c28 27 100 67 192 67zM146 144c0 -43 34 -72 104 -72c36 0 69 6 98 15v102c-31 13 -68 19 -108 19c-56 0 -94 -19 -94 -64z" />
    <glyph glyph-name="atilde" unicode="&#xe3;" horiz-adv-x="512" 
d="M144 546c-25 0 -64 10 -80 28c14 68 61 108 119 108c51 -1 95 -40 126 -39c23 0 39 16 47 42c29 0 59 -10 79 -27c-15 -66 -62 -105 -116 -105c-52 0 -96 38 -127 38c-25 0 -40 -17 -48 -45zM242 487c125 0 217 -56 217 -196v-259c-56 -27 -139 -47 -219 -47
c-140 0 -209 59 -209 154c0 98 85 151 200 150c45 0 84 -6 117 -18v27c0 57 -38 91 -114 91c-57 0 -105 -22 -132 -42c-28 14 -47 40 -52 73c28 27 100 67 192 67zM146 144c0 -43 34 -72 104 -72c36 0 69 6 98 15v102c-31 13 -68 19 -108 19c-56 0 -94 -19 -94 -64z" />
    <glyph glyph-name="ae" unicode="&#xe6;" horiz-adv-x="801" 
d="M201 -15c-100 0 -169 54 -169 151c0 95 81 148 195 148h108v23c0 53 -41 81 -111 81c-53 0 -101 -22 -128 -42c-25 18 -42 46 -48 77c28 26 99 64 184 64c71 0 144 -22 173 -89c32 55 95 89 162 89c120 0 195 -89 194 -222c0 -20 -1 -41 -3 -60h-307v-1
c4 -73 54 -123 125 -123c65 0 104 28 133 48c25 -17 43 -48 48 -81c-39 -30 -101 -63 -187 -63c-92 0 -155 40 -188 103c-38 -68 -102 -103 -181 -103zM450 284h202c0 51 -23 109 -89 109c-69 0 -107 -55 -113 -109zM220 74c59 0 115 38 115 131l-99 -1
c-62 0 -92 -22 -92 -65c0 -41 30 -65 76 -65z" />
    <glyph glyph-name="aeacute" unicode="&#x1fd;" horiz-adv-x="801" 
d="M326 517c-18 12 -27 25 -32 46l157 147c35 -19 54 -49 65 -90zM201 -15c-100 0 -169 54 -169 151c0 95 81 148 195 148h108v23c0 53 -41 81 -111 81c-53 0 -101 -22 -128 -42c-25 18 -42 46 -48 77c28 26 99 64 184 64c71 0 144 -22 173 -89c32 55 95 89 162 89
c120 0 195 -89 194 -222c0 -20 -1 -41 -3 -60h-307v-1c4 -73 54 -123 125 -123c65 0 104 28 133 48c25 -17 43 -48 48 -81c-39 -30 -101 -63 -187 -63c-92 0 -155 40 -188 103c-38 -68 -102 -103 -181 -103zM450 284h202c0 51 -23 109 -89 109c-69 0 -107 -55 -113 -109z
M220 74c59 0 115 38 115 131l-99 -1c-62 0 -92 -22 -92 -65c0 -41 30 -65 76 -65z" />
    <glyph glyph-name="b" unicode="b" horiz-adv-x="567" 
d="M279 487c143 0 250 -90 250 -245c0 -159 -106 -257 -265 -257c-75 0 -142 16 -201 46v627c20 3 38 5 57 5s38 -2 56 -5v-193c29 14 63 22 103 22zM269 85c93 0 146 59 146 152c0 86 -52 148 -144 148c-36 0 -68 -7 -95 -21v-262c31 -12 61 -17 93 -17z" />
    <glyph glyph-name="c" unicode="c" horiz-adv-x="479" 
d="M289 -15c-151 0 -252 92 -252 250c0 152 108 253 251 253c71 0 131 -28 160 -54c-8 -32 -31 -63 -61 -81c-24 20 -55 37 -98 37c-93 0 -137 -71 -137 -154c0 -81 43 -153 138 -153c56 0 85 23 105 40c29 -15 50 -42 60 -77c-31 -30 -91 -61 -166 -61z" />
    <glyph glyph-name="cacute" unicode="&#x107;" horiz-adv-x="479" 
d="M198 517c-18 12 -27 25 -32 46l157 147c35 -19 54 -49 65 -90zM289 -15c-151 0 -252 92 -252 250c0 152 108 253 251 253c71 0 131 -28 160 -54c-8 -32 -31 -63 -61 -81c-24 20 -55 37 -98 37c-93 0 -137 -71 -137 -154c0 -81 43 -153 138 -153c56 0 85 23 105 40
c29 -15 50 -42 60 -77c-31 -30 -91 -61 -166 -61z" />
    <glyph glyph-name="ccaron" unicode="&#x10d;" horiz-adv-x="479" 
d="M238 531l-109 114c5 22 22 45 47 55l99 -79l101 79c22 -8 40 -28 47 -51l-116 -118c-23 -5 -46 -5 -69 0zM289 -15c-151 0 -252 92 -252 250c0 152 108 253 251 253c71 0 131 -28 160 -54c-8 -32 -31 -63 -61 -81c-24 20 -55 37 -98 37c-93 0 -137 -71 -137 -154
c0 -81 43 -153 138 -153c56 0 85 23 105 40c29 -15 50 -42 60 -77c-31 -30 -91 -61 -166 -61z" />
    <glyph glyph-name="ccedilla" unicode="&#xe7;" horiz-adv-x="479" 
d="M302 -37c40 -8 76 -27 76 -73c0 -75 -72 -94 -122 -94c-31 0 -68 10 -83 21c1 24 12 46 26 59c14 -9 29 -14 46 -14c22 0 39 9 39 29c0 26 -27 33 -65 34l24 63c-125 17 -206 106 -206 247c0 152 108 253 251 253c71 0 131 -28 160 -54c-8 -32 -31 -63 -61 -81
c-24 20 -55 37 -98 37c-93 0 -137 -71 -137 -154c0 -81 43 -153 138 -153c56 0 85 23 105 40c29 -15 50 -42 60 -77c-28 -27 -80 -55 -145 -60z" />
    <glyph glyph-name="cdotaccent" unicode="&#x10b;" horiz-adv-x="479" 
d="M276 544c-41 0 -74 32 -74 72s33 72 74 72c39 0 72 -32 72 -72s-33 -72 -72 -72zM289 -15c-151 0 -252 92 -252 250c0 152 108 253 251 253c71 0 131 -28 160 -54c-8 -32 -31 -63 -61 -81c-24 20 -55 37 -98 37c-93 0 -137 -71 -137 -154c0 -81 43 -153 138 -153
c56 0 85 23 105 40c29 -15 50 -42 60 -77c-31 -30 -91 -61 -166 -61z" />
    <glyph glyph-name="d" unicode="d" horiz-adv-x="567" 
d="M447 662c18 0 38 -1 57 -5v-625c-49 -26 -128 -47 -205 -47c-156 0 -262 88 -262 248c0 156 116 253 258 253c40 0 70 -5 96 -15v186c18 4 37 5 56 5zM297 84c33 -1 64 4 94 15v266c-27 17 -58 21 -92 21c-84 0 -147 -59 -147 -151c0 -93 59 -151 145 -151z" />
    <glyph glyph-name="eth" unicode="&#xf0;" horiz-adv-x="547" 
d="M336 594c111 -75 170 -195 170 -362c0 -145 -91 -247 -240 -247c-135 0 -228 89 -228 225s102 227 228 227c37 0 71 -8 102 -22c-26 48 -64 82 -113 108l-66 -59c-9 5 -18 12 -25 22c-7 8 -13 17 -17 27l43 38c-24 8 -49 15 -76 21c-3 39 7 76 35 100
c47 -11 90 -25 128 -44l60 54c8 -5 16 -12 24 -20c7 -9 14 -19 18 -29zM271 81c77 0 119 56 119 136c0 77 -48 128 -119 128c-70 0 -119 -47 -119 -132c0 -80 45 -132 119 -132z" />
    <glyph glyph-name="dcaron" unicode="&#x10f;" horiz-adv-x="571" 
d="M659 711c4 -16 5 -27 5 -43c0 -60 -28 -122 -68 -157c-16 1 -33 9 -42 24c17 36 20 78 20 107c0 21 -4 49 -12 68c13 8 32 11 51 11c16 0 34 -3 46 -10zM391 657c18 4 37 5 56 5c18 0 38 -1 57 -5v-625c-49 -26 -128 -47 -205 -47c-156 0 -262 88 -262 248
c0 156 116 253 258 253c40 0 70 -5 96 -15v186zM297 84c33 -1 64 4 94 15v266c-27 17 -58 21 -92 21c-84 0 -147 -59 -147 -151c0 -93 59 -151 145 -151z" />
    <glyph glyph-name="dcroat" unicode="&#x111;" horiz-adv-x="567" 
d="M589 576c0 -13 -2 -26 -6 -38h-79v-506c-49 -26 -128 -47 -205 -47c-156 0 -262 88 -262 248c0 156 116 253 258 253c40 0 70 -5 96 -15v67h-82c-4 11 -6 24 -6 37s2 26 6 39h82v43c18 4 37 5 56 5c18 0 38 -1 57 -5v-43h79c4 -12 6 -25 6 -38zM297 84c33 -1 64 4 94 15
v266c-27 17 -58 21 -92 21c-84 0 -147 -59 -147 -151c0 -93 59 -151 145 -151z" />
    <glyph glyph-name="e" unicode="e" horiz-adv-x="529" 
d="M492 273c0 -25 -1 -41 -4 -67h-335c9 -78 57 -126 136 -126c69 0 109 27 140 49c25 -16 45 -48 49 -77c-40 -32 -102 -67 -197 -67c-142 0 -244 94 -244 249c0 147 103 253 238 253c127 0 217 -87 217 -214zM154 281h227c0 56 -29 113 -106 114c-70 0 -113 -49 -121 -114
z" />
    <glyph glyph-name="eacute" unicode="&#xe9;" horiz-adv-x="529" 
d="M193 517c-18 12 -27 25 -32 46l157 147c35 -19 54 -49 65 -90zM492 273c0 -25 -1 -41 -4 -67h-335c9 -78 57 -126 136 -126c69 0 109 27 140 49c25 -16 45 -48 49 -77c-40 -32 -102 -67 -197 -67c-142 0 -244 94 -244 249c0 147 103 253 238 253c127 0 217 -87 217 -214z
M154 281h227c0 56 -29 113 -106 114c-70 0 -113 -49 -121 -114z" />
    <glyph glyph-name="ecaron" unicode="&#x11b;" horiz-adv-x="529" 
d="M302 531c-23 -5 -46 -5 -69 0l-109 114c5 22 22 45 47 55l99 -79l101 79c22 -8 40 -28 47 -51zM492 273c0 -25 -1 -41 -4 -67h-335c9 -78 57 -126 136 -126c69 0 109 27 140 49c25 -16 45 -48 49 -77c-40 -32 -102 -67 -197 -67c-142 0 -244 94 -244 249
c0 147 103 253 238 253c127 0 217 -87 217 -214zM154 281h227c0 56 -29 113 -106 114c-70 0 -113 -49 -121 -114z" />
    <glyph glyph-name="ecircumflex" unicode="&#xea;" horiz-adv-x="529" 
d="M169 525c-22 8 -40 27 -47 50l114 118c23 5 46 5 69 0l111 -114c-6 -22 -24 -45 -48 -55l-101 80zM492 273c0 -25 -1 -41 -4 -67h-335c9 -78 57 -126 136 -126c69 0 109 27 140 49c25 -16 45 -48 49 -77c-40 -32 -102 -67 -197 -67c-142 0 -244 94 -244 249
c0 147 103 253 238 253c127 0 217 -87 217 -214zM154 281h227c0 56 -29 113 -106 114c-70 0 -113 -49 -121 -114z" />
    <glyph glyph-name="edieresis" unicode="&#xeb;" horiz-adv-x="529" 
d="M167 545c-36 0 -65 28 -65 64c0 35 28 63 65 63c35 0 63 -28 63 -63c0 -36 -28 -64 -63 -64zM375 545c-35 0 -64 28 -64 64c0 35 28 63 64 63c35 0 64 -28 64 -63c0 -36 -29 -64 -64 -64zM492 273c0 -25 -1 -41 -4 -67h-335c9 -78 57 -126 136 -126c69 0 109 27 140 49
c25 -16 45 -48 49 -77c-40 -32 -102 -67 -197 -67c-142 0 -244 94 -244 249c0 147 103 253 238 253c127 0 217 -87 217 -214zM154 281h227c0 56 -29 113 -106 114c-70 0 -113 -49 -121 -114z" />
    <glyph glyph-name="edotaccent" unicode="&#x117;" horiz-adv-x="529" 
d="M271 544c-41 0 -74 32 -74 72s33 72 74 72c39 0 72 -32 72 -72s-33 -72 -72 -72zM492 273c0 -25 -1 -41 -4 -67h-335c9 -78 57 -126 136 -126c69 0 109 27 140 49c25 -16 45 -48 49 -77c-40 -32 -102 -67 -197 -67c-142 0 -244 94 -244 249c0 147 103 253 238 253
c127 0 217 -87 217 -214zM154 281h227c0 56 -29 113 -106 114c-70 0 -113 -49 -121 -114z" />
    <glyph glyph-name="egrave" unicode="&#xe8;" horiz-adv-x="529" 
d="M374 562c-6 -20 -14 -34 -32 -45l-190 103c10 41 30 71 65 90zM492 273c0 -25 -1 -41 -4 -67h-335c9 -78 57 -126 136 -126c69 0 109 27 140 49c25 -16 45 -48 49 -77c-40 -32 -102 -67 -197 -67c-142 0 -244 94 -244 249c0 147 103 253 238 253c127 0 217 -87 217 -214z
M154 281h227c0 56 -29 113 -106 114c-70 0 -113 -49 -121 -114z" />
    <glyph glyph-name="emacron" unicode="&#x113;" horiz-adv-x="529" 
d="M412 566h-283c-5 14 -6 28 -6 43s1 31 6 45h283c3 -14 5 -29 5 -44s-2 -30 -5 -44zM492 273c0 -25 -1 -41 -4 -67h-335c9 -78 57 -126 136 -126c69 0 109 27 140 49c25 -16 45 -48 49 -77c-40 -32 -102 -67 -197 -67c-142 0 -244 94 -244 249c0 147 103 253 238 253
c127 0 217 -87 217 -214zM154 281h227c0 56 -29 113 -106 114c-70 0 -113 -49 -121 -114z" />
    <glyph glyph-name="eogonek" unicode="&#x119;" horiz-adv-x="529" 
d="M492 273c0 -25 -1 -41 -4 -67h-335c9 -78 57 -126 136 -126c69 0 109 27 140 49c25 -16 45 -48 49 -77c-8 -7 -18 -14 -29 -20c-43 -34 -83 -80 -83 -113c0 -24 17 -33 35 -33c21 0 39 12 50 20c18 -12 37 -36 37 -65c-21 -20 -58 -41 -115 -41c-55 0 -99 33 -99 85
c0 39 22 74 48 102c-13 -1 -27 -2 -41 -2c-142 0 -244 94 -244 249c0 147 103 253 238 253c127 0 217 -87 217 -214zM154 281h227c0 56 -29 113 -106 114c-70 0 -113 -49 -121 -114z" />
    <glyph glyph-name="f" unicode="f" horiz-adv-x="341" 
d="M275 665c62 0 106 -23 125 -40c-4 -31 -24 -63 -49 -79c-20 14 -42 24 -73 24c-38 0 -69 -19 -69 -76v-28h113c4 -15 6 -30 6 -47c0 -16 -2 -30 -6 -45h-113v-375c-18 -3 -37 -5 -55 -5c-19 0 -37 2 -57 5v376h-64c-3 14 -5 28 -5 45c0 16 2 32 5 47h64v11
c0 128 86 187 178 187z" />
    <glyph glyph-name="g" unicode="g" horiz-adv-x="560" 
d="M295 488c80 0 153 -27 203 -65v-403c0 -137 -99 -219 -237 -219c-98 0 -173 33 -220 85c7 29 30 61 66 74c33 -38 79 -65 150 -65c89 0 127 48 127 112v22c-28 -12 -59 -19 -98 -19c-137 0 -250 84 -250 232c0 149 114 246 259 246zM296 104c39 0 65 9 88 22v242
c-26 14 -55 21 -88 21c-83 0 -145 -57 -145 -145c0 -87 61 -140 145 -140z" />
    <glyph glyph-name="gbreve" unicode="&#x11f;" horiz-adv-x="560" 
d="M289 529c-108 0 -157 76 -157 149c24 10 48 12 76 9c9 -48 37 -77 83 -77c47 0 74 30 79 77c28 3 54 1 75 -9c0 -71 -49 -149 -156 -149zM295 488c80 0 153 -27 203 -65v-403c0 -137 -99 -219 -237 -219c-98 0 -173 33 -220 85c7 29 30 61 66 74c33 -38 79 -65 150 -65
c89 0 127 48 127 112v22c-28 -12 -59 -19 -98 -19c-137 0 -250 84 -250 232c0 149 114 246 259 246zM296 104c39 0 65 9 88 22v242c-26 14 -55 21 -88 21c-83 0 -145 -57 -145 -145c0 -87 61 -140 145 -140z" />
    <glyph glyph-name="gcommaaccent" unicode="&#x123;" horiz-adv-x="560" 
d="M282 508c-16 0 -33 3 -46 9c-2 13 -3 26 -3 37c0 56 29 111 80 142c15 -2 32 -13 40 -30c-24 -31 -28 -68 -28 -91c0 -19 4 -40 10 -57c-13 -6 -33 -10 -53 -10zM295 488c80 0 153 -27 203 -65v-403c0 -137 -99 -219 -237 -219c-98 0 -173 33 -220 85c7 29 30 61 66 74
c33 -38 79 -65 150 -65c89 0 127 48 127 112v22c-28 -12 -59 -19 -98 -19c-137 0 -250 84 -250 232c0 149 114 246 259 246zM296 104c39 0 65 9 88 22v242c-26 14 -55 21 -88 21c-83 0 -145 -57 -145 -145c0 -87 61 -140 145 -140z" />
    <glyph glyph-name="gdotaccent" unicode="&#x121;" horiz-adv-x="560" 
d="M288 544c-41 0 -74 32 -74 72s33 72 74 72c39 0 72 -32 72 -72s-33 -72 -72 -72zM295 488c80 0 153 -27 203 -65v-403c0 -137 -99 -219 -237 -219c-98 0 -173 33 -220 85c7 29 30 61 66 74c33 -38 79 -65 150 -65c89 0 127 48 127 112v22c-28 -12 -59 -19 -98 -19
c-137 0 -250 84 -250 232c0 149 114 246 259 246zM296 104c39 0 65 9 88 22v242c-26 14 -55 21 -88 21c-83 0 -145 -57 -145 -145c0 -87 61 -140 145 -140z" />
    <glyph glyph-name="h" unicode="h" horiz-adv-x="570" 
d="M301 488c142 0 210 -89 210 -191v-297c-19 -4 -39 -5 -58 -5c-18 0 -37 1 -56 5v263c0 69 -27 120 -114 120c-37 0 -75 -12 -104 -28v-355c-18 -4 -37 -5 -56 -5s-38 1 -58 5v656c19 4 38 5 57 5c18 0 38 -1 57 -5v-196c34 16 73 28 122 28z" />
    <glyph glyph-name="hbar" unicode="&#x127;" horiz-adv-x="570" 
d="M301 488c142 0 210 -89 210 -191v-297c-19 -4 -39 -5 -58 -5c-18 0 -37 1 -56 5v263c0 69 -27 120 -114 120c-37 0 -75 -12 -104 -28v-355c-18 -4 -37 -5 -56 -5s-38 1 -58 5v539h-59c-4 11 -6 24 -6 37s2 26 6 39h59v41c19 4 38 5 57 5c18 0 38 -1 57 -5v-41h101
c4 -12 6 -25 6 -38s-2 -26 -6 -38h-101v-79c34 16 73 28 122 28z" />
    <glyph glyph-name="i" unicode="i" horiz-adv-x="245" 
d="M123 545c-41 0 -74 32 -74 72s33 72 74 72c39 0 72 -32 72 -72s-33 -72 -72 -72zM123 -5c-18 0 -38 1 -57 5v473c19 4 38 5 57 5c18 0 38 -1 56 -5v-473c-18 -4 -37 -5 -56 -5z" />
    <glyph glyph-name="dotlessi" unicode="&#x131;" horiz-adv-x="245" 
d="M123 -5c-18 0 -38 1 -57 5v473c19 4 38 5 57 5c18 0 38 -1 56 -5v-473c-18 -4 -37 -5 -56 -5z" />
    <glyph glyph-name="iacute" unicode="&#xed;" horiz-adv-x="245" 
d="M63 516c-18 8 -29 21 -35 41l140 164c40 -15 65 -45 76 -86zM123 -5c-18 0 -38 1 -57 5v473c19 4 38 5 57 5c18 0 38 -1 56 -5v-473c-18 -4 -37 -5 -56 -5z" />
    <glyph glyph-name="icircumflex" unicode="&#xee;" horiz-adv-x="245" 
d="M146 693l101 -118c-6 -20 -23 -36 -45 -45l-85 68l-83 -68c-21 7 -38 23 -45 45l103 118c18 4 36 4 54 0zM123 -5c-18 0 -38 1 -57 5v473c19 4 38 5 57 5c18 0 38 -1 56 -5v-473c-18 -4 -37 -5 -56 -5z" />
    <glyph glyph-name="idieresis" unicode="&#xef;" horiz-adv-x="246" 
d="M32 545c-35 0 -64 27 -64 63c0 35 28 62 64 62c35 0 63 -27 63 -62c0 -36 -28 -63 -63 -63zM203 545c-35 0 -63 27 -63 63c0 35 28 62 63 62s63 -27 63 -62c0 -36 -28 -63 -63 -63zM123 -5c-18 0 -38 1 -57 5v473c19 4 38 5 57 5c18 0 38 -1 56 -5v-473
c-18 -4 -37 -5 -56 -5z" />
    <glyph glyph-name="igrave" unicode="&#xec;" horiz-adv-x="245" 
d="M186 518l-184 113c10 42 33 72 72 89l146 -159c-5 -20 -16 -34 -34 -43zM123 -5c-18 0 -38 1 -57 5v473c19 4 38 5 57 5c18 0 38 -1 56 -5v-473c-18 -4 -37 -5 -56 -5z" />
    <glyph glyph-name="ij" unicode="&#x133;" horiz-adv-x="489" 
d="M123 545c-41 0 -74 32 -74 72s33 72 74 72c39 0 72 -32 72 -72s-33 -72 -72 -72zM366 544c-41 0 -74 32 -74 72s33 72 74 72c39 0 72 -32 72 -72s-33 -72 -72 -72zM123 -5c-18 0 -38 1 -57 5v473c19 4 38 5 57 5c18 0 38 -1 56 -5v-473c-18 -4 -37 -5 -56 -5zM252 -198
c-55 0 -101 18 -124 40c4 28 25 63 53 78c18 -12 36 -22 59 -22c41 0 70 24 70 83v491c18 4 37 5 55 5c19 0 39 -1 58 -5v-488c0 -123 -83 -182 -171 -182z" />
    <glyph glyph-name="imacron" unicode="&#x12b;" horiz-adv-x="245" 
d="M20 567c-4 14 -5 28 -5 43s1 31 5 45h207c2 -14 4 -29 4 -44s-2 -30 -4 -44h-207zM123 -5c-18 0 -38 1 -57 5v473c19 4 38 5 57 5c18 0 38 -1 56 -5v-473c-18 -4 -37 -5 -56 -5z" />
    <glyph glyph-name="iogonek" unicode="&#x12f;" horiz-adv-x="245" 
d="M122 545c-40 0 -73 32 -73 72c0 41 32 73 73 73c40 0 72 -32 72 -73c0 -40 -32 -72 -72 -72zM195 -100c18 -11 37 -35 37 -64c-21 -21 -58 -41 -115 -41s-101 33 -101 87c0 50 30 84 71 115c-7 0 -14 2 -21 3v473c19 4 38 5 57 5c18 0 38 -1 56 -5v-473l-4 -1
c-43 -30 -65 -53 -65 -84c0 -24 17 -34 35 -34c21 0 40 11 50 19z" />
    <glyph glyph-name="itilde" unicode="&#x129;" horiz-adv-x="245" 
d="M170 561c-40 0 -68 25 -92 25c-21 0 -30 -13 -38 -33c-32 -3 -61 12 -76 30c15 58 58 92 102 92c37 0 64 -24 92 -24c20 0 29 11 37 30c30 2 60 -11 75 -30c-15 -57 -54 -90 -100 -90zM123 -5c-18 0 -38 1 -57 5v473c19 4 38 5 57 5c18 0 38 -1 56 -5v-473
c-18 -4 -37 -5 -56 -5z" />
    <glyph glyph-name="j" unicode="j" horiz-adv-x="257" 
d="M133 544c-40 0 -73 32 -73 72s32 72 73 72c40 0 72 -32 72 -72s-32 -72 -72 -72zM20 -198c-55 0 -101 18 -124 40c3 28 25 63 53 78c17 -12 36 -22 58 -22c42 0 70 24 70 83v491c19 4 37 5 56 5s39 -1 58 -5v-488c0 -123 -83 -182 -171 -182z" />
    <glyph glyph-name="k" unicode="k" horiz-adv-x="513" 
d="M306 242l209 -239c-17 -4 -51 -9 -82 -9c-14 0 -40 1 -57 3l-159 181c-13 -8 -26 -16 -39 -23v-155c-18 -4 -37 -5 -56 -5c-18 0 -37 1 -57 5v656c19 4 37 5 56 5s38 -1 57 -5v-382c75 48 139 113 185 197c20 3 40 3 57 3c18 0 48 -2 69 -7c-53 -94 -116 -168 -183 -225z
" />
    <glyph glyph-name="kcommaaccent" unicode="&#x137;" horiz-adv-x="513" 
d="M306 242l209 -239c-17 -4 -51 -9 -82 -9c-14 0 -40 1 -57 3l-159 181c-13 -8 -26 -16 -39 -23v-155c-18 -4 -37 -5 -56 -5c-18 0 -37 1 -57 5v656c19 4 37 5 56 5s38 -1 57 -5v-382c75 48 139 113 185 197c20 3 40 3 57 3c18 0 48 -2 69 -7c-53 -94 -116 -168 -183 -225z
M248 -37c16 0 33 -3 46 -9c2 -13 3 -26 3 -37c0 -56 -29 -111 -80 -142c-15 2 -32 13 -40 30c24 31 28 68 28 91c0 19 -4 40 -10 57c13 6 33 10 53 10z" />
    <glyph glyph-name="kgreenlandic" unicode="&#x138;" horiz-adv-x="517" 
d="M304 247l216 -244c-18 -4 -53 -9 -85 -9c-13 0 -43 1 -57 3l-165 184c-12 -8 -25 -15 -37 -22v-159c-18 -4 -37 -5 -56 -5c-18 0 -36 1 -56 5v470c18 4 36 5 55 5s38 -1 57 -5v-192c74 47 142 117 187 193c16 3 38 3 55 3c20 0 50 -2 72 -7c-54 -90 -118 -163 -186 -220z
" />
    <glyph glyph-name="l" unicode="l" horiz-adv-x="246" 
d="M123 -5c-18 0 -37 1 -57 5v656c18 4 37 5 56 5s39 -1 58 -5v-656c-18 -4 -38 -5 -57 -5z" />
    <glyph glyph-name="lacute" unicode="&#x13a;" horiz-adv-x="246" 
d="M34 676c-13 11 -21 26 -23 46l183 127c35 -23 50 -55 51 -98zM123 -5c-18 0 -37 1 -57 5v656c18 4 37 5 56 5s39 -1 58 -5v-656c-18 -4 -38 -5 -57 -5z" />
    <glyph glyph-name="lcaron" unicode="&#x13e;" horiz-adv-x="250" 
d="M270 511c-16 2 -32 9 -42 24c17 37 20 79 20 107c0 21 -4 50 -12 69c13 7 32 11 51 11c16 0 34 -3 46 -10c4 -16 6 -28 6 -43c0 -60 -28 -123 -69 -158zM123 -5c-18 0 -37 1 -57 5v656c18 4 37 5 56 5s39 -1 58 -5v-656c-18 -4 -38 -5 -57 -5z" />
    <glyph glyph-name="lcommaaccent" unicode="&#x13c;" horiz-adv-x="246" 
d="M123 -5c-18 0 -37 1 -57 5v656c18 4 37 5 56 5s39 -1 58 -5v-656c-18 -4 -38 -5 -57 -5zM94 -225c-15 2 -32 13 -40 30c24 31 28 68 28 91c0 19 -4 40 -10 57c13 6 33 10 53 10c16 0 33 -3 46 -9c2 -13 3 -26 3 -37c0 -56 -29 -111 -80 -142z" />
    <glyph glyph-name="ldot" unicode="&#x140;" horiz-adv-x="324" 
d="M123 -5c-18 0 -37 1 -57 5v656c18 4 37 5 56 5s39 -1 58 -5v-656c-18 -4 -38 -5 -57 -5zM283 258c-37 0 -68 31 -68 69s31 69 68 69c39 0 70 -31 70 -69s-31 -69 -70 -69z" />
    <glyph glyph-name="lslash" unicode="&#x142;" horiz-adv-x="246" 
d="M264 362l-84 -43v-319c-18 -4 -38 -5 -57 -5c-18 0 -37 1 -57 5v260l-52 -27c-20 16 -32 43 -34 68l86 45v310c18 4 37 5 56 5s39 -1 58 -5v-251l51 26c18 -18 30 -43 33 -69z" />
    <glyph glyph-name="m" unicode="m" horiz-adv-x="868" 
d="M601 488c137 0 207 -84 207 -187v-301c-18 -4 -38 -5 -56 -5c-20 0 -39 1 -57 5v267c0 68 -30 117 -107 117c-46 0 -78 -20 -101 -39c3 -14 5 -29 5 -44v-301c-18 -4 -38 -5 -56 -5c-20 0 -39 1 -58 5v267c0 68 -29 117 -106 117c-37 0 -72 -11 -97 -26v-358
c-18 -4 -38 -5 -57 -5c-18 0 -37 1 -56 5v413c38 33 124 75 223 75c68 0 120 -21 155 -55c39 30 97 55 161 55z" />
    <glyph glyph-name="n" unicode="n" horiz-adv-x="568" 
d="M289 488c153 0 220 -88 220 -197v-291c-19 -4 -39 -5 -57 -5c-19 0 -37 1 -57 5v264c0 87 -42 120 -115 120c-44 0 -83 -13 -105 -26v-358c-18 -4 -38 -5 -57 -5c-18 0 -37 1 -56 5v413c42 35 125 75 227 75z" />
    <glyph glyph-name="nacute" unicode="&#x144;" horiz-adv-x="568" 
d="M203 517c-18 12 -27 25 -32 46l157 147c35 -19 54 -49 65 -90zM289 488c153 0 220 -88 220 -197v-291c-19 -4 -39 -5 -57 -5c-19 0 -37 1 -57 5v264c0 87 -42 120 -115 120c-44 0 -83 -13 -105 -26v-358c-18 -4 -38 -5 -57 -5c-18 0 -37 1 -56 5v413c42 35 125 75 227 75
z" />
    <glyph glyph-name="napostrophe" unicode="&#x149;" horiz-adv-x="587" 
d="M123 679c5 -12 8 -30 8 -55c0 -77 -49 -144 -88 -175c-15 1 -36 12 -41 28c27 35 31 90 31 120c0 33 -5 59 -14 78c16 7 37 11 60 11c14 0 31 -2 44 -7zM289 488c153 0 220 -88 220 -197v-291c-19 -4 -39 -5 -57 -5c-19 0 -37 1 -57 5v264c0 87 -42 120 -115 120
c-44 0 -83 -13 -105 -26v-358c-18 -4 -38 -5 -57 -5c-18 0 -37 1 -56 5v413c42 35 125 75 227 75z" />
    <glyph glyph-name="ncaron" unicode="&#x148;" horiz-adv-x="568" 
d="M312 531c-23 -5 -46 -5 -69 0l-109 114c5 22 22 45 47 55l99 -79l101 79c22 -8 40 -28 47 -51zM289 488c153 0 220 -88 220 -197v-291c-19 -4 -39 -5 -57 -5c-19 0 -37 1 -57 5v264c0 87 -42 120 -115 120c-44 0 -83 -13 -105 -26v-358c-18 -4 -38 -5 -57 -5
c-18 0 -37 1 -56 5v413c42 35 125 75 227 75z" />
    <glyph glyph-name="ncommaaccent" unicode="&#x146;" horiz-adv-x="568" 
d="M289 488c153 0 220 -88 220 -197v-291c-19 -4 -39 -5 -57 -5c-19 0 -37 1 -57 5v264c0 87 -42 120 -115 120c-44 0 -83 -13 -105 -26v-358c-18 -4 -38 -5 -57 -5c-18 0 -37 1 -56 5v413c42 35 125 75 227 75zM288 -37c16 0 33 -3 46 -9c2 -13 3 -26 3 -37
c0 -56 -29 -111 -80 -142c-15 2 -32 13 -40 30c24 31 28 68 28 91c0 19 -4 40 -10 57c13 6 33 10 53 10z" />
    <glyph glyph-name="eng" unicode="&#x14b;" horiz-adv-x="568" 
d="M289 488c152 0 219 -88 219 -197v-317c0 -119 -85 -179 -179 -179c-55 0 -95 17 -123 43c7 31 26 62 53 77c17 -15 37 -26 63 -26c44 0 73 27 73 91v284c0 82 -43 119 -118 119c-41 0 -80 -16 -102 -30v-353c-19 -4 -38 -5 -57 -5c-18 0 -37 1 -56 5v409
c42 38 125 79 227 79z" />
    <glyph glyph-name="ntilde" unicode="&#xf1;" horiz-adv-x="568" 
d="M176 546c-25 0 -64 10 -80 28c14 68 61 108 119 108c51 -1 95 -40 126 -39c23 0 39 16 47 42c29 0 59 -10 79 -27c-15 -66 -62 -105 -116 -105c-52 0 -96 38 -127 38c-25 0 -40 -17 -48 -45zM289 488c153 0 220 -88 220 -197v-291c-19 -4 -39 -5 -57 -5
c-19 0 -37 1 -57 5v264c0 87 -42 120 -115 120c-44 0 -83 -13 -105 -26v-358c-18 -4 -38 -5 -57 -5c-18 0 -37 1 -56 5v413c42 35 125 75 227 75z" />
    <glyph glyph-name="o" unicode="o" horiz-adv-x="576" 
d="M286 -15c-146 0 -249 103 -249 251c0 147 107 252 253 252s249 -104 249 -252c0 -146 -107 -251 -253 -251zM288 84c85 0 137 62 137 152c0 91 -52 154 -137 154s-137 -63 -137 -154c0 -90 52 -152 137 -152z" />
    <glyph glyph-name="oacute" unicode="&#xf3;" horiz-adv-x="576" 
d="M210 517c-18 12 -27 25 -32 46l157 147c35 -19 54 -49 65 -90zM286 -15c-146 0 -249 103 -249 251c0 147 107 252 253 252s249 -104 249 -252c0 -146 -107 -251 -253 -251zM288 84c85 0 137 62 137 152c0 91 -52 154 -137 154s-137 -63 -137 -154c0 -90 52 -152 137 -152
z" />
    <glyph glyph-name="ocircumflex" unicode="&#xf4;" horiz-adv-x="576" 
d="M323 693l111 -114c-6 -22 -24 -45 -48 -55l-101 80l-98 -79c-22 8 -40 27 -47 50l114 118c23 5 46 5 69 0zM286 -15c-146 0 -249 103 -249 251c0 147 107 252 253 252s249 -104 249 -252c0 -146 -107 -251 -253 -251zM288 84c85 0 137 62 137 152c0 91 -52 154 -137 154
s-137 -63 -137 -154c0 -90 52 -152 137 -152z" />
    <glyph glyph-name="odieresis" unicode="&#xf6;" horiz-adv-x="576" 
d="M184 545c-36 0 -65 28 -65 64c0 35 28 63 65 63c35 0 63 -28 63 -63c0 -36 -28 -64 -63 -64zM392 545c-35 0 -64 28 -64 64c0 35 28 63 64 63c35 0 64 -28 64 -63c0 -36 -29 -64 -64 -64zM286 -15c-146 0 -249 103 -249 251c0 147 107 252 253 252s249 -104 249 -252
c0 -146 -107 -251 -253 -251zM288 84c85 0 137 62 137 152c0 91 -52 154 -137 154s-137 -63 -137 -154c0 -90 52 -152 137 -152z" />
    <glyph glyph-name="ograve" unicode="&#xf2;" horiz-adv-x="576" 
d="M359 517l-190 103c10 41 30 71 65 90l157 -148c-6 -20 -14 -34 -32 -45zM286 -15c-146 0 -249 103 -249 251c0 147 107 252 253 252s249 -104 249 -252c0 -146 -107 -251 -253 -251zM288 84c85 0 137 62 137 152c0 91 -52 154 -137 154s-137 -63 -137 -154
c0 -90 52 -152 137 -152z" />
    <glyph glyph-name="ohungarumlaut" unicode="&#x151;" horiz-adv-x="576" 
d="M180 519c-19 7 -32 15 -41 32l88 163c39 -6 61 -24 79 -58zM338 519c-20 7 -32 15 -41 33l91 161c38 -7 60 -25 77 -59zM286 -15c-146 0 -249 103 -249 251c0 147 107 252 253 252s249 -104 249 -252c0 -146 -107 -251 -253 -251zM288 84c85 0 137 62 137 152
c0 91 -52 154 -137 154s-137 -63 -137 -154c0 -90 52 -152 137 -152z" />
    <glyph glyph-name="omacron" unicode="&#x14d;" horiz-adv-x="576" 
d="M147 566c-5 14 -6 28 -6 43s1 31 6 45h283c3 -14 5 -29 5 -44s-2 -30 -5 -44h-283zM286 -15c-146 0 -249 103 -249 251c0 147 107 252 253 252s249 -104 249 -252c0 -146 -107 -251 -253 -251zM288 84c85 0 137 62 137 152c0 91 -52 154 -137 154s-137 -63 -137 -154
c0 -90 52 -152 137 -152z" />
    <glyph glyph-name="oslash" unicode="&#xf8;" horiz-adv-x="578" 
d="M483 403c36 -43 57 -100 57 -167c0 -146 -107 -251 -253 -251c-55 0 -104 15 -143 41l-51 -57c-22 8 -39 25 -47 47l48 54c-35 43 -56 100 -56 166c0 147 108 252 253 252c55 0 105 -15 144 -42l50 55c22 -7 39 -22 47 -43zM152 236c0 -31 6 -60 18 -83l195 216
c-21 13 -46 21 -76 21c-85 0 -137 -63 -137 -154zM289 84c85 0 137 62 137 152c0 32 -6 60 -18 84l-194 -216c21 -13 46 -20 75 -20z" />
    <glyph glyph-name="oslashacute" unicode="&#x1ff;" horiz-adv-x="578" 
d="M212 517c-18 12 -27 25 -32 46l157 147c35 -19 54 -49 65 -90zM483 403c36 -43 57 -100 57 -167c0 -146 -107 -251 -253 -251c-55 0 -104 15 -143 41l-51 -57c-22 8 -39 25 -47 47l48 54c-35 43 -56 100 -56 166c0 147 108 252 253 252c55 0 105 -15 144 -42l50 55
c22 -7 39 -22 47 -43zM152 236c0 -31 6 -60 18 -83l195 216c-21 13 -46 21 -76 21c-85 0 -137 -63 -137 -154zM289 84c85 0 137 62 137 152c0 32 -6 60 -18 84l-194 -216c21 -13 46 -20 75 -20z" />
    <glyph glyph-name="otilde" unicode="&#xf5;" horiz-adv-x="576" 
d="M183 546c-25 0 -64 10 -80 28c14 68 61 108 119 108c51 -1 95 -40 126 -39c23 0 39 16 47 42c29 0 59 -10 79 -27c-15 -66 -62 -105 -116 -105c-52 0 -96 38 -127 38c-25 0 -40 -17 -48 -45zM286 -15c-146 0 -249 103 -249 251c0 147 107 252 253 252s249 -104 249 -252
c0 -146 -107 -251 -253 -251zM288 84c85 0 137 62 137 152c0 91 -52 154 -137 154s-137 -63 -137 -154c0 -90 52 -152 137 -152z" />
    <glyph glyph-name="oe" unicode="&#x153;" horiz-adv-x="891" 
d="M853 273c0 -26 -1 -44 -3 -70h-321c8 -76 53 -122 132 -122c59 0 104 28 134 49c25 -17 41 -48 47 -81c-38 -30 -104 -64 -191 -64c-79 0 -145 31 -185 88c-43 -55 -110 -88 -186 -88c-141 0 -243 101 -243 251c0 144 105 252 243 252c80 0 147 -34 190 -91
c40 56 100 90 170 90c126 0 213 -87 213 -214zM529 283h215c0 52 -29 111 -105 111c-64 0 -101 -54 -110 -111zM280 83c81 0 134 62 134 153s-54 153 -134 153c-78 0 -130 -62 -130 -153s52 -153 130 -153z" />
    <glyph glyph-name="p" unicode="p" horiz-adv-x="565" 
d="M273 487c145 0 255 -85 255 -249c0 -160 -119 -253 -251 -253c-40 0 -72 4 -102 14v-184c-18 -4 -37 -5 -56 -5s-37 1 -57 5v599c46 38 121 73 211 73zM269 86c86 0 145 57 145 151c0 91 -59 146 -146 146c-33 0 -64 -7 -93 -23v-255c27 -13 57 -19 94 -19z" />
    <glyph glyph-name="thorn" unicode="&#xfe;" horiz-adv-x="568" 
d="M278 487c143 0 253 -84 253 -246c0 -156 -113 -256 -254 -256c-40 0 -71 5 -99 15v-185c-18 -4 -38 -5 -56 -5c-19 0 -38 1 -57 5v841c19 4 37 5 56 5c18 0 38 -1 57 -5v-186c30 10 63 17 100 17zM272 86c86 0 145 57 145 150c0 92 -58 147 -145 147
c-37 0 -67 -7 -94 -18v-260c27 -13 56 -19 94 -19z" />
    <glyph glyph-name="q" unicode="q" horiz-adv-x="565" 
d="M297 487c89 0 163 -32 207 -71l-1 -601c-19 -4 -38 -5 -57 -5c-18 0 -38 1 -56 5v188c-28 -12 -61 -18 -98 -18c-143 0 -255 85 -255 244c0 163 119 258 260 258zM296 87c38 0 69 7 95 20v254c-30 16 -61 24 -93 24c-85 0 -147 -59 -147 -151c0 -93 60 -147 145 -147z
" />
    <glyph glyph-name="r" unicode="r" horiz-adv-x="375" 
d="M262 487c41 0 75 -4 105 -15c0 -36 -10 -72 -30 -98c-23 6 -47 9 -72 9c-37 0 -68 -7 -89 -19v-364c-18 -4 -38 -5 -57 -5s-38 1 -57 5v419c36 32 109 68 200 68z" />
    <glyph glyph-name="racute" unicode="&#x155;" horiz-adv-x="375" 
d="M146 517c-18 12 -27 25 -32 46l157 147c35 -19 54 -49 65 -90zM262 487c41 0 75 -4 105 -15c0 -36 -10 -72 -30 -98c-23 6 -47 9 -72 9c-37 0 -68 -7 -89 -19v-364c-18 -4 -38 -5 -57 -5s-38 1 -57 5v419c36 32 109 68 200 68z" />
    <glyph glyph-name="rcaron" unicode="&#x159;" horiz-adv-x="375" 
d="M255 531c-23 -5 -46 -5 -69 0l-109 114c5 22 22 45 47 55l99 -79l101 79c22 -8 40 -28 47 -51zM62 419c36 32 109 68 200 68c41 0 75 -4 105 -15c0 -36 -10 -72 -30 -98c-23 6 -47 9 -72 9c-37 0 -68 -7 -89 -19v-364c-18 -4 -38 -5 -57 -5s-38 1 -57 5v419z" />
    <glyph glyph-name="rcommaaccent" unicode="&#x157;" horiz-adv-x="375" 
d="M262 487c41 0 75 -4 105 -15c0 -36 -10 -72 -30 -98c-23 6 -47 9 -72 9c-37 0 -68 -7 -89 -19v-364c-18 -4 -38 -5 -57 -5s-38 1 -57 5v419c36 32 109 68 200 68zM122 -37c16 0 33 -3 46 -9c2 -13 3 -26 3 -37c0 -56 -29 -111 -80 -142c-15 2 -32 13 -40 30
c24 31 28 68 28 91c0 19 -4 40 -10 57c13 6 33 10 53 10z" />
    <glyph glyph-name="s" unicode="s" horiz-adv-x="469" 
d="M228 -16c-106 0 -169 37 -196 60c9 36 28 63 52 78c29 -21 71 -47 146 -47c67 0 91 25 91 57s-27 50 -112 63c-84 13 -164 44 -164 144c0 88 79 148 199 148c86 0 147 -24 178 -46c-5 -35 -20 -63 -43 -81c-33 19 -82 36 -139 36c-60 0 -86 -19 -86 -49
c0 -31 21 -46 102 -59c103 -16 178 -51 178 -145c0 -99 -76 -159 -206 -159z" />
    <glyph glyph-name="sacute" unicode="&#x15b;" horiz-adv-x="469" 
d="M158 517c-18 12 -27 25 -32 46l157 147c35 -19 54 -49 65 -90zM228 -16c-106 0 -169 37 -196 60c9 36 28 63 52 78c29 -21 71 -47 146 -47c67 0 91 25 91 57s-27 50 -112 63c-84 13 -164 44 -164 144c0 88 79 148 199 148c86 0 147 -24 178 -46c-5 -35 -20 -63 -43 -81
c-33 19 -82 36 -139 36c-60 0 -86 -19 -86 -49c0 -31 21 -46 102 -59c103 -16 178 -51 178 -145c0 -99 -76 -159 -206 -159z" />
    <glyph glyph-name="scaron" unicode="&#x161;" horiz-adv-x="469" 
d="M198 531l-109 114c5 22 22 45 47 55l99 -79l101 79c22 -8 40 -28 47 -51l-116 -118c-23 -5 -46 -5 -69 0zM228 -16c-106 0 -169 37 -196 60c9 36 28 63 52 78c29 -21 71 -47 146 -47c67 0 91 25 91 57s-27 50 -112 63c-84 13 -164 44 -164 144c0 88 79 148 199 148
c86 0 147 -24 178 -46c-5 -35 -20 -63 -43 -81c-33 19 -82 36 -139 36c-60 0 -86 -19 -86 -49c0 -31 21 -46 102 -59c103 -16 178 -51 178 -145c0 -99 -76 -159 -206 -159z" />
    <glyph glyph-name="scedilla" unicode="&#x15f;" horiz-adv-x="469" 
d="M434 143c0 -87 -59 -144 -162 -156l-8 -24c40 -8 76 -27 76 -73c0 -75 -72 -94 -122 -94c-31 0 -68 10 -83 21c1 24 12 46 26 59c14 -9 29 -14 46 -14c22 0 39 9 39 29c0 26 -27 33 -65 34l23 60c-92 5 -147 38 -172 59c9 36 28 63 52 78c29 -21 71 -47 146 -47
c67 0 91 25 91 57s-27 50 -112 63c-84 13 -164 44 -164 144c0 88 79 148 199 148c86 0 147 -24 178 -46c-5 -35 -20 -63 -43 -81c-33 19 -82 36 -139 36c-60 0 -86 -19 -86 -49c0 -31 21 -46 102 -59c103 -16 178 -51 178 -145z" />
    <glyph glyph-name="scommaaccent" unicode="&#x219;" horiz-adv-x="469" 
d="M228 -16c-106 0 -169 37 -196 60c9 36 28 63 52 78c29 -21 71 -47 146 -47c67 0 91 25 91 57s-27 50 -112 63c-84 13 -164 44 -164 144c0 88 79 148 199 148c86 0 147 -24 178 -46c-5 -35 -20 -63 -43 -81c-33 19 -82 36 -139 36c-60 0 -86 -19 -86 -49
c0 -31 21 -46 102 -59c103 -16 178 -51 178 -145c0 -99 -76 -159 -206 -159zM218 -225c-15 2 -32 13 -40 30c24 31 28 68 28 91c0 19 -4 40 -10 57c13 6 33 10 53 10c16 0 33 -3 46 -9c2 -13 3 -26 3 -37c0 -56 -29 -111 -80 -142z" />
    <glyph glyph-name="germandbls" unicode="&#xdf;" horiz-adv-x="603" 
d="M449 286c72 -26 123 -68 123 -146c0 -96 -65 -156 -172 -156c-78 0 -139 36 -161 60c5 34 28 63 54 75c28 -24 63 -43 103 -43c47 0 66 20 66 53s-23 49 -78 69c-57 23 -125 53 -125 141c0 98 84 142 163 142h2c0 60 -39 118 -119 118c-78 0 -127 -44 -127 -136v-463
c-18 -4 -37 -5 -55 -5c-20 0 -39 1 -58 5v468c0 146 110 228 240 228s230 -78 231 -226c-1 -39 -6 -66 -13 -84c-26 6 -51 9 -80 9c-47 0 -73 -19 -73 -48c0 -23 11 -38 79 -61z" />
    <glyph glyph-name="t" unicode="t" horiz-adv-x="428" 
d="M373 116c24 -16 44 -48 48 -79c-29 -25 -77 -51 -142 -51c-102 0 -177 46 -177 160v229h-81c-3 15 -4 30 -4 47c0 15 1 30 4 45h81v126c19 4 38 5 57 5s37 -1 55 -5v-126h177c4 -15 5 -30 5 -45c0 -16 -1 -31 -5 -47h-177v-203c0 -70 33 -88 80 -88c34 0 64 18 79 32z
" />
    <glyph glyph-name="tbar" unicode="&#x167;" horiz-adv-x="428" 
d="M373 116c24 -16 44 -48 48 -79c-29 -25 -77 -51 -142 -51c-102 0 -177 46 -177 160v78h-61c-5 11 -7 24 -7 37s2 26 7 39h61v75h-81c-3 15 -4 30 -4 47c0 15 1 30 4 45h81v126c19 4 38 5 57 5s37 -1 55 -5v-126h177c4 -15 5 -30 5 -45c0 -16 -1 -31 -5 -47h-177v-75h108
c4 -12 6 -25 6 -38s-2 -26 -6 -38h-108v-52c0 -70 33 -88 80 -88c34 0 64 18 79 32z" />
    <glyph glyph-name="tcaron" unicode="&#x165;" horiz-adv-x="428" 
d="M334 511c-16 2 -32 9 -42 24c17 37 20 79 20 107c0 21 -4 50 -12 69c13 7 32 11 51 11c16 0 34 -3 46 -10c4 -16 5 -28 5 -43c0 -60 -28 -123 -68 -158zM373 116c24 -16 44 -48 48 -79c-29 -25 -77 -51 -142 -51c-102 0 -177 46 -177 160v229h-81c-3 15 -4 30 -4 47
c0 15 1 30 4 45h81v126c19 4 38 5 57 5s37 -1 55 -5v-126h177c4 -15 5 -30 5 -45c0 -16 -1 -31 -5 -47h-177v-203c0 -70 33 -88 80 -88c34 0 64 18 79 32z" />
    <glyph glyph-name="u" unicode="u" horiz-adv-x="562" 
d="M442 475c19 0 38 -1 57 -5v-435c-48 -23 -121 -50 -226 -50c-148 0 -214 73 -214 188v297c20 4 39 5 58 5c18 0 38 -1 56 -5v-264c0 -77 20 -120 115 -120c37 0 68 6 97 18v366c19 4 39 5 57 5z" />
    <glyph glyph-name="uacute" unicode="&#xfa;" horiz-adv-x="562" 
d="M203 517c-18 12 -27 25 -32 46l157 147c35 -19 54 -49 65 -90zM442 475c19 0 38 -1 57 -5v-435c-48 -23 -121 -50 -226 -50c-148 0 -214 73 -214 188v297c20 4 39 5 58 5c18 0 38 -1 56 -5v-264c0 -77 20 -120 115 -120c37 0 68 6 97 18v366c19 4 39 5 57 5z" />
    <glyph glyph-name="ucircumflex" unicode="&#xfb;" horiz-adv-x="562" 
d="M179 525c-22 8 -40 27 -47 50l114 118c23 5 46 5 69 0l111 -114c-6 -22 -24 -45 -48 -55l-101 80zM442 475c19 0 38 -1 57 -5v-435c-48 -23 -121 -50 -226 -50c-148 0 -214 73 -214 188v297c20 4 39 5 58 5c18 0 38 -1 56 -5v-264c0 -77 20 -120 115 -120
c37 0 68 6 97 18v366c19 4 39 5 57 5z" />
    <glyph glyph-name="udieresis" unicode="&#xfc;" horiz-adv-x="562" 
d="M177 545c-36 0 -65 28 -65 64c0 35 28 63 65 63c35 0 63 -28 63 -63c0 -36 -28 -64 -63 -64zM385 545c-35 0 -64 28 -64 64c0 35 28 63 64 63c35 0 64 -28 64 -63c0 -36 -29 -64 -64 -64zM442 475c19 0 38 -1 57 -5v-435c-48 -23 -121 -50 -226 -50
c-148 0 -214 73 -214 188v297c20 4 39 5 58 5c18 0 38 -1 56 -5v-264c0 -77 20 -120 115 -120c37 0 68 6 97 18v366c19 4 39 5 57 5z" />
    <glyph glyph-name="ugrave" unicode="&#xf9;" horiz-adv-x="562" 
d="M384 562c-6 -20 -14 -34 -32 -45l-190 103c10 41 30 71 65 90zM442 475c19 0 38 -1 57 -5v-435c-48 -23 -121 -50 -226 -50c-148 0 -214 73 -214 188v297c20 4 39 5 58 5c18 0 38 -1 56 -5v-264c0 -77 20 -120 115 -120c37 0 68 6 97 18v366c19 4 39 5 57 5z" />
    <glyph glyph-name="uhungarumlaut" unicode="&#x171;" horiz-adv-x="562" 
d="M172 519c-19 7 -32 15 -41 32l88 163c39 -6 61 -24 79 -58zM330 519c-20 7 -32 15 -41 33l91 161c38 -7 60 -25 77 -59zM442 475c19 0 38 -1 57 -5v-435c-48 -23 -121 -50 -226 -50c-148 0 -214 73 -214 188v297c20 4 39 5 58 5c18 0 38 -1 56 -5v-264
c0 -77 20 -120 115 -120c37 0 68 6 97 18v366c19 4 39 5 57 5z" />
    <glyph glyph-name="umacron" unicode="&#x16b;" horiz-adv-x="562" 
d="M422 566h-283c-5 14 -6 28 -6 43s1 31 6 45h283c3 -14 5 -29 5 -44s-2 -30 -5 -44zM442 475c19 0 38 -1 57 -5v-435c-48 -23 -121 -50 -226 -50c-148 0 -214 73 -214 188v297c20 4 39 5 58 5c18 0 38 -1 56 -5v-264c0 -77 20 -120 115 -120c37 0 68 6 97 18v366
c19 4 39 5 57 5z" />
    <glyph glyph-name="uogonek" unicode="&#x173;" horiz-adv-x="562" 
d="M494 -94c18 -12 37 -36 37 -65c-21 -20 -58 -41 -115 -41c-55 0 -99 33 -99 85c0 42 25 79 54 108c-29 -5 -62 -8 -98 -8c-148 0 -214 73 -214 188v297c20 4 39 5 58 5c18 0 38 -1 56 -5v-264c0 -77 20 -120 115 -120c37 0 68 6 97 18v366c19 4 39 5 57 5
c19 0 38 -1 57 -5v-435l-6 -3c-44 -34 -84 -80 -84 -113c0 -24 17 -33 35 -33c21 0 39 12 50 20z" />
    <glyph glyph-name="uring" unicode="&#x16f;" horiz-adv-x="562" 
d="M282 506c-60 0 -109 48 -109 108c0 59 49 107 109 107c58 0 107 -48 107 -107c0 -60 -49 -108 -107 -108zM281 657c-23 0 -41 -20 -41 -44c0 -22 18 -42 41 -42c25 0 42 20 42 42c0 24 -17 44 -42 44zM442 475c19 0 38 -1 57 -5v-435c-48 -23 -121 -50 -226 -50
c-148 0 -214 73 -214 188v297c20 4 39 5 58 5c18 0 38 -1 56 -5v-264c0 -77 20 -120 115 -120c37 0 68 6 97 18v366c19 4 39 5 57 5z" />
    <glyph glyph-name="utilde" unicode="&#x169;" horiz-adv-x="562" 
d="M176 546c-25 0 -64 10 -80 28c14 68 61 108 119 108c51 -1 95 -40 126 -39c23 0 39 16 47 42c29 0 59 -10 79 -27c-15 -66 -62 -105 -116 -105c-52 0 -96 38 -127 38c-25 0 -40 -17 -48 -45zM442 475c19 0 38 -1 57 -5v-435c-48 -23 -121 -50 -226 -50
c-148 0 -214 73 -214 188v297c20 4 39 5 58 5c18 0 38 -1 56 -5v-264c0 -77 20 -120 115 -120c37 0 68 6 97 18v366c19 4 39 5 57 5z" />
    <glyph glyph-name="v" unicode="v" horiz-adv-x="507" 
d="M421 476c27 0 54 -4 72 -10c-43 -176 -108 -335 -184 -466c-18 -4 -37 -5 -54 -5c-18 0 -37 1 -56 5c-87 145 -141 292 -186 466c16 5 49 10 78 10c15 0 31 -2 44 -4c36 -143 83 -274 117 -352c2 -5 4 -10 5 -15l6 15c39 90 79 209 114 352c13 2 29 4 44 4z" />
    <glyph glyph-name="w" unicode="w" horiz-adv-x="753" 
d="M668 475c26 0 52 -3 71 -9c-42 -174 -100 -335 -176 -466c-18 -4 -39 -5 -56 -5c-18 0 -36 1 -54 5c-30 56 -57 117 -80 181c-17 -63 -41 -127 -68 -181c-18 -4 -42 -5 -59 -5c-18 0 -37 1 -54 5c-87 145 -136 292 -176 466c16 5 48 9 77 9c14 0 32 -1 45 -3
c31 -147 77 -290 112 -369l3 -13c1 4 2 9 4 13c27 62 54 144 71 216c-14 48 -26 97 -38 147c16 5 48 9 76 9c14 0 29 -1 42 -3c29 -147 66 -284 101 -369l3 -16c1 6 2 11 4 16c41 96 76 219 107 369c13 2 30 3 45 3z" />
    <glyph glyph-name="wacute" unicode="&#x1e83;" horiz-adv-x="753" 
d="M296 517c-18 12 -27 25 -32 46l157 147c35 -19 54 -49 65 -90zM668 475c26 0 52 -3 71 -9c-42 -174 -100 -335 -176 -466c-18 -4 -39 -5 -56 -5c-18 0 -36 1 -54 5c-30 56 -57 117 -80 181c-17 -63 -41 -127 -68 -181c-18 -4 -42 -5 -59 -5c-18 0 -37 1 -54 5
c-87 145 -136 292 -176 466c16 5 48 9 77 9c14 0 32 -1 45 -3c31 -147 77 -290 112 -369l3 -13c1 4 2 9 4 13c27 62 54 144 71 216c-14 48 -26 97 -38 147c16 5 48 9 76 9c14 0 29 -1 42 -3c29 -147 66 -284 101 -369l3 -16c1 6 2 11 4 16c41 96 76 219 107 369
c13 2 30 3 45 3z" />
    <glyph glyph-name="wcircumflex" unicode="&#x175;" horiz-adv-x="753" 
d="M272 525c-22 8 -40 27 -47 50l114 118c23 5 46 5 69 0l111 -114c-6 -22 -24 -45 -48 -55l-101 80zM668 475c26 0 52 -3 71 -9c-42 -174 -100 -335 -176 -466c-18 -4 -39 -5 -56 -5c-18 0 -36 1 -54 5c-30 56 -57 117 -80 181c-17 -63 -41 -127 -68 -181
c-18 -4 -42 -5 -59 -5c-18 0 -37 1 -54 5c-87 145 -136 292 -176 466c16 5 48 9 77 9c14 0 32 -1 45 -3c31 -147 77 -290 112 -369l3 -13c1 4 2 9 4 13c27 62 54 144 71 216c-14 48 -26 97 -38 147c16 5 48 9 76 9c14 0 29 -1 42 -3c29 -147 66 -284 101 -369l3 -16
c1 6 2 11 4 16c41 96 76 219 107 369c13 2 30 3 45 3z" />
    <glyph glyph-name="wdieresis" unicode="&#x1e85;" horiz-adv-x="753" 
d="M270 545c-36 0 -65 28 -65 64c0 35 28 63 65 63c35 0 63 -28 63 -63c0 -36 -28 -64 -63 -64zM478 545c-35 0 -64 28 -64 64c0 35 28 63 64 63c35 0 64 -28 64 -63c0 -36 -29 -64 -64 -64zM668 475c26 0 52 -3 71 -9c-42 -174 -100 -335 -176 -466c-18 -4 -39 -5 -56 -5
c-18 0 -36 1 -54 5c-30 56 -57 117 -80 181c-17 -63 -41 -127 -68 -181c-18 -4 -42 -5 -59 -5c-18 0 -37 1 -54 5c-87 145 -136 292 -176 466c16 5 48 9 77 9c14 0 32 -1 45 -3c31 -147 77 -290 112 -369l3 -13c1 4 2 9 4 13c27 62 54 144 71 216c-14 48 -26 97 -38 147
c16 5 48 9 76 9c14 0 29 -1 42 -3c29 -147 66 -284 101 -369l3 -16c1 6 2 11 4 16c41 96 76 219 107 369c13 2 30 3 45 3z" />
    <glyph glyph-name="wgrave" unicode="&#x1e81;" horiz-adv-x="753" 
d="M477 562c-6 -20 -14 -34 -32 -45l-190 103c10 41 30 71 65 90zM668 475c26 0 52 -3 71 -9c-42 -174 -100 -335 -176 -466c-18 -4 -39 -5 -56 -5c-18 0 -36 1 -54 5c-30 56 -57 117 -80 181c-17 -63 -41 -127 -68 -181c-18 -4 -42 -5 -59 -5c-18 0 -37 1 -54 5
c-87 145 -136 292 -176 466c16 5 48 9 77 9c14 0 32 -1 45 -3c31 -147 77 -290 112 -369l3 -13c1 4 2 9 4 13c27 62 54 144 71 216c-14 48 -26 97 -38 147c16 5 48 9 76 9c14 0 29 -1 42 -3c29 -147 66 -284 101 -369l3 -16c1 6 2 11 4 16c41 96 76 219 107 369
c13 2 30 3 45 3z" />
    <glyph glyph-name="x" unicode="x" horiz-adv-x="500" 
d="M318 239l173 -237c-10 -5 -46 -8 -67 -8c-16 0 -43 1 -60 4l-118 170l-111 -170c-14 -3 -37 -4 -52 -4c-31 0 -53 3 -70 8l168 238l-162 226c18 7 62 10 83 10c16 0 29 -1 41 -3l110 -163l102 163c15 2 29 3 45 3c22 0 57 -3 76 -10z" />
    <glyph glyph-name="y" unicode="y" horiz-adv-x="517" 
d="M429 476c25 0 51 -5 71 -12c-60 -300 -162 -500 -356 -673c-37 10 -61 42 -72 74c51 49 97 98 128 147c-93 150 -144 292 -183 454c18 6 49 10 78 10c14 0 31 -2 46 -4c26 -122 63 -235 119 -352c3 -7 6 -14 8 -20c3 7 5 14 8 20c54 111 84 231 108 352c14 2 31 4 45 4z
" />
    <glyph glyph-name="yacute" unicode="&#xfd;" horiz-adv-x="517" 
d="M187 517c-18 12 -27 25 -32 46l157 147c35 -19 54 -49 65 -90zM429 476c25 0 51 -5 71 -12c-60 -300 -162 -500 -356 -673c-37 10 -61 42 -72 74c51 49 97 98 128 147c-93 150 -144 292 -183 454c18 6 49 10 78 10c14 0 31 -2 46 -4c26 -122 63 -235 119 -352
c3 -7 6 -14 8 -20c3 7 5 14 8 20c54 111 84 231 108 352c14 2 31 4 45 4z" />
    <glyph glyph-name="ycircumflex" unicode="&#x177;" horiz-adv-x="517" 
d="M163 525c-22 8 -40 27 -47 50l114 118c23 5 46 5 69 0l111 -114c-6 -22 -24 -45 -48 -55l-101 80zM429 476c25 0 51 -5 71 -12c-60 -300 -162 -500 -356 -673c-37 10 -61 42 -72 74c51 49 97 98 128 147c-93 150 -144 292 -183 454c18 6 49 10 78 10c14 0 31 -2 46 -4
c26 -122 63 -235 119 -352c3 -7 6 -14 8 -20c3 7 5 14 8 20c54 111 84 231 108 352c14 2 31 4 45 4z" />
    <glyph glyph-name="ydieresis" unicode="&#xff;" horiz-adv-x="517" 
d="M161 545c-36 0 -65 28 -65 64c0 35 28 63 65 63c35 0 63 -28 63 -63c0 -36 -28 -64 -63 -64zM369 545c-35 0 -64 28 -64 64c0 35 28 63 64 63c35 0 64 -28 64 -63c0 -36 -29 -64 -64 -64zM429 476c25 0 51 -5 71 -12c-60 -300 -162 -500 -356 -673c-37 10 -61 42 -72 74
c51 49 97 98 128 147c-93 150 -144 292 -183 454c18 6 49 10 78 10c14 0 31 -2 46 -4c26 -122 63 -235 119 -352c3 -7 6 -14 8 -20c3 7 5 14 8 20c54 111 84 231 108 352c14 2 31 4 45 4z" />
    <glyph glyph-name="ygrave" unicode="&#x1ef3;" horiz-adv-x="517" 
d="M367 562c-6 -20 -14 -34 -32 -45l-190 103c10 41 30 71 65 90zM429 476c25 0 51 -5 71 -12c-60 -300 -162 -500 -356 -673c-37 10 -61 42 -72 74c51 49 97 98 128 147c-93 150 -144 292 -183 454c18 6 49 10 78 10c14 0 31 -2 46 -4c26 -122 63 -235 119 -352
c3 -7 6 -14 8 -20c3 7 5 14 8 20c54 111 84 231 108 352c14 2 31 4 45 4z" />
    <glyph glyph-name="z" unicode="z" horiz-adv-x="471" 
d="M435 93c4 -10 7 -27 7 -46s-3 -36 -7 -47h-394c-5 13 -7 25 -7 37c0 34 14 57 32 78l212 240l21 22h-255c-3 13 -6 30 -6 47c0 18 3 34 6 46h378c4 -10 6 -22 6 -33c0 -31 -10 -60 -32 -85l-205 -241l-17 -18h261z" />
    <glyph glyph-name="zacute" unicode="&#x17a;" horiz-adv-x="471" 
d="M155 517c-18 12 -27 25 -32 46l157 147c35 -19 54 -49 65 -90zM435 93c4 -10 7 -27 7 -46s-3 -36 -7 -47h-394c-5 13 -7 25 -7 37c0 34 14 57 32 78l212 240l21 22h-255c-3 13 -6 30 -6 47c0 18 3 34 6 46h378c4 -10 6 -22 6 -33c0 -31 -10 -60 -32 -85l-205 -241
l-17 -18h261z" />
    <glyph glyph-name="zcaron" unicode="&#x17e;" horiz-adv-x="471" 
d="M264 531c-23 -5 -46 -5 -69 0l-109 114c5 22 22 45 47 55l99 -79l101 79c22 -8 40 -28 47 -51zM435 93c4 -10 7 -27 7 -46s-3 -36 -7 -47h-394c-5 13 -7 25 -7 37c0 34 14 57 32 78l212 240l21 22h-255c-3 13 -6 30 -6 47c0 18 3 34 6 46h378c4 -10 6 -22 6 -33
c0 -31 -10 -60 -32 -85l-205 -241l-17 -18h261z" />
    <glyph glyph-name="zdotaccent" unicode="&#x17c;" horiz-adv-x="471" 
d="M233 544c-41 0 -74 32 -74 72s33 72 74 72c39 0 72 -32 72 -72s-33 -72 -72 -72zM435 93c4 -10 7 -27 7 -46s-3 -36 -7 -47h-394c-5 13 -7 25 -7 37c0 34 14 57 32 78l212 240l21 22h-255c-3 13 -6 30 -6 47c0 18 3 34 6 46h378c4 -10 6 -22 6 -33c0 -31 -10 -60 -32 -85
l-205 -241l-17 -18h261z" />
    <glyph glyph-name="a.ss01" horiz-adv-x="579" 
d="M495 155c0 -49 14 -62 52 -80c-1 -38 -24 -73 -47 -89c-41 9 -72 27 -89 54c-41 -37 -89 -55 -151 -55c-130 0 -223 82 -223 239c0 150 106 263 260 263c79 0 149 -22 198 -57v-275zM279 83c40 0 78 18 103 49v236c-26 11 -54 18 -86 18c-86 0 -144 -60 -144 -161
c0 -92 54 -142 127 -142z" />
    <glyph glyph-name="aacute.ss01" horiz-adv-x="579" 
d="M206 517c-18 12 -27 25 -32 46l157 147c35 -19 54 -49 65 -90zM495 155c0 -49 14 -62 52 -80c-1 -38 -24 -73 -47 -89c-41 9 -72 27 -89 54c-41 -37 -89 -55 -151 -55c-130 0 -223 82 -223 239c0 150 106 263 260 263c79 0 149 -22 198 -57v-275zM279 83
c40 0 78 18 103 49v236c-26 11 -54 18 -86 18c-86 0 -144 -60 -144 -161c0 -92 54 -142 127 -142z" />
    <glyph glyph-name="abreve.ss01" horiz-adv-x="579" 
d="M284 529c-108 0 -157 76 -157 149c24 10 48 12 76 9c9 -48 37 -77 83 -77c47 0 74 30 79 77c28 3 54 1 75 -9c0 -71 -49 -149 -156 -149zM495 155c0 -49 14 -62 52 -80c-1 -38 -24 -73 -47 -89c-41 9 -72 27 -89 54c-41 -37 -89 -55 -151 -55c-130 0 -223 82 -223 239
c0 150 106 263 260 263c79 0 149 -22 198 -57v-275zM279 83c40 0 78 18 103 49v236c-26 11 -54 18 -86 18c-86 0 -144 -60 -144 -161c0 -92 54 -142 127 -142z" />
    <glyph glyph-name="acircumflex.ss01" horiz-adv-x="579" 
d="M182 525c-22 8 -40 27 -47 50l114 118c23 5 46 5 69 0l111 -114c-6 -22 -24 -45 -48 -55l-101 80zM495 155c0 -49 14 -62 52 -80c-1 -38 -24 -73 -47 -89c-41 9 -72 27 -89 54c-41 -37 -89 -55 -151 -55c-130 0 -223 82 -223 239c0 150 106 263 260 263
c79 0 149 -22 198 -57v-275zM279 83c40 0 78 18 103 49v236c-26 11 -54 18 -86 18c-86 0 -144 -60 -144 -161c0 -92 54 -142 127 -142z" />
    <glyph glyph-name="adieresis.ss01" horiz-adv-x="579" 
d="M180 545c-36 0 -65 28 -65 64c0 35 28 63 65 63c35 0 63 -28 63 -63c0 -36 -28 -64 -63 -64zM388 545c-35 0 -64 28 -64 64c0 35 28 63 64 63c35 0 64 -28 64 -63c0 -36 -29 -64 -64 -64zM495 155c0 -49 14 -62 52 -80c-1 -38 -24 -73 -47 -89c-41 9 -72 27 -89 54
c-41 -37 -89 -55 -151 -55c-130 0 -223 82 -223 239c0 150 106 263 260 263c79 0 149 -22 198 -57v-275zM279 83c40 0 78 18 103 49v236c-26 11 -54 18 -86 18c-86 0 -144 -60 -144 -161c0 -92 54 -142 127 -142z" />
    <glyph glyph-name="agrave.ss01" horiz-adv-x="579" 
d="M386 562c-6 -20 -14 -34 -32 -45l-190 103c10 41 30 71 65 90zM495 155c0 -49 14 -62 52 -80c-1 -38 -24 -73 -47 -89c-41 9 -72 27 -89 54c-41 -37 -89 -55 -151 -55c-130 0 -223 82 -223 239c0 150 106 263 260 263c79 0 149 -22 198 -57v-275zM279 83
c40 0 78 18 103 49v236c-26 11 -54 18 -86 18c-86 0 -144 -60 -144 -161c0 -92 54 -142 127 -142z" />
    <glyph glyph-name="amacron.ss01" horiz-adv-x="579" 
d="M425 566h-283c-5 14 -6 28 -6 43s1 31 6 45h283c3 -14 5 -29 5 -44s-2 -30 -5 -44zM495 155c0 -49 14 -62 52 -80c-1 -38 -24 -73 -47 -89c-41 9 -72 27 -89 54c-41 -37 -89 -55 -151 -55c-130 0 -223 82 -223 239c0 150 106 263 260 263c79 0 149 -22 198 -57v-275z
M279 83c40 0 78 18 103 49v236c-26 11 -54 18 -86 18c-86 0 -144 -60 -144 -161c0 -92 54 -142 127 -142z" />
    <glyph glyph-name="aogonek.ss01" horiz-adv-x="581" 
d="M511 -96c18 -11 38 -35 38 -64c-20 -21 -55 -42 -111 -42c-57 0 -104 36 -104 89c0 58 41 103 101 134c-8 6 -16 13 -22 21c-41 -39 -90 -57 -157 -57c-127 0 -218 82 -218 242c0 149 106 260 255 260c84 0 155 -22 204 -57v-281c0 -36 15 -51 50 -57
c-1 -40 -13 -78 -27 -95c-68 -17 -94 -51 -94 -78c0 -25 17 -35 37 -35c19 0 38 12 48 20zM278 83c41 0 80 18 106 49v235c-26 13 -56 20 -91 20c-83 0 -140 -60 -140 -159c0 -93 50 -145 125 -145z" />
    <glyph glyph-name="aring.ss01" horiz-adv-x="579" 
d="M284 506c-60 0 -109 48 -109 108c0 59 49 107 109 107c58 0 107 -48 107 -107c0 -60 -49 -108 -107 -108zM283 657c-23 0 -41 -20 -41 -44c0 -22 18 -42 41 -42c25 0 42 20 42 42c0 24 -17 44 -42 44zM495 155c0 -49 14 -62 52 -80c-1 -38 -24 -73 -47 -89
c-41 9 -72 27 -89 54c-41 -37 -89 -55 -151 -55c-130 0 -223 82 -223 239c0 150 106 263 260 263c79 0 149 -22 198 -57v-275zM279 83c40 0 78 18 103 49v236c-26 11 -54 18 -86 18c-86 0 -144 -60 -144 -161c0 -92 54 -142 127 -142z" />
    <glyph glyph-name="atilde.ss01" horiz-adv-x="579" 
d="M178 546c-25 0 -64 10 -80 28c14 68 61 108 119 108c51 -1 95 -40 126 -39c23 0 39 16 47 42c29 0 59 -10 79 -27c-15 -66 -62 -105 -116 -105c-52 0 -96 38 -127 38c-25 0 -40 -17 -48 -45zM495 155c0 -49 14 -62 52 -80c-1 -38 -24 -73 -47 -89c-41 9 -72 27 -89 54
c-41 -37 -89 -55 -151 -55c-130 0 -223 82 -223 239c0 150 106 263 260 263c79 0 149 -22 198 -57v-275zM279 83c40 0 78 18 103 49v236c-26 11 -54 18 -86 18c-86 0 -144 -60 -144 -161c0 -92 54 -142 127 -142z" />
    <glyph glyph-name="e.ss01" horiz-adv-x="516" 
d="M429 134c26 -19 43 -48 48 -80c-35 -31 -96 -69 -197 -69c-135 0 -243 77 -243 244c0 153 107 257 245 257c125 0 193 -69 193 -153c0 -107 -81 -145 -210 -145c-38 0 -75 5 -111 16c9 -87 57 -123 139 -123c70 0 109 33 136 53zM281 394c-69 0 -113 -42 -125 -114
c38 -12 74 -15 108 -14c78 0 100 23 100 62c0 33 -26 66 -83 66z" />
    <glyph glyph-name="eacute.ss01" horiz-adv-x="516" 
d="M193 517c-18 12 -27 25 -32 46l157 147c35 -19 54 -49 65 -90zM429 134c26 -19 43 -48 48 -80c-35 -31 -96 -69 -197 -69c-135 0 -243 77 -243 244c0 153 107 257 245 257c125 0 193 -69 193 -153c0 -107 -81 -145 -210 -145c-38 0 -75 5 -111 16c9 -87 57 -123 139 -123
c70 0 109 33 136 53zM281 394c-69 0 -113 -42 -125 -114c38 -12 74 -15 108 -14c78 0 100 23 100 62c0 33 -26 66 -83 66z" />
    <glyph glyph-name="ecaron.ss01" horiz-adv-x="516" 
d="M302 531c-23 -5 -46 -5 -69 0l-109 114c5 22 22 45 47 55l99 -79l101 79c22 -8 40 -28 47 -51zM429 134c26 -19 43 -48 48 -80c-35 -31 -96 -69 -197 -69c-135 0 -243 77 -243 244c0 153 107 257 245 257c125 0 193 -69 193 -153c0 -107 -81 -145 -210 -145
c-38 0 -75 5 -111 16c9 -87 57 -123 139 -123c70 0 109 33 136 53zM281 394c-69 0 -113 -42 -125 -114c38 -12 74 -15 108 -14c78 0 100 23 100 62c0 33 -26 66 -83 66z" />
    <glyph glyph-name="ecircumflex.ss01" horiz-adv-x="516" 
d="M169 525c-22 8 -40 27 -47 50l114 118c23 5 46 5 69 0l111 -114c-6 -22 -24 -45 -48 -55l-101 80zM429 134c26 -19 43 -48 48 -80c-35 -31 -96 -69 -197 -69c-135 0 -243 77 -243 244c0 153 107 257 245 257c125 0 193 -69 193 -153c0 -107 -81 -145 -210 -145
c-38 0 -75 5 -111 16c9 -87 57 -123 139 -123c70 0 109 33 136 53zM281 394c-69 0 -113 -42 -125 -114c38 -12 74 -15 108 -14c78 0 100 23 100 62c0 33 -26 66 -83 66z" />
    <glyph glyph-name="edieresis.ss01" horiz-adv-x="516" 
d="M167 545c-36 0 -65 28 -65 64c0 35 28 63 65 63c35 0 63 -28 63 -63c0 -36 -28 -64 -63 -64zM375 545c-35 0 -64 28 -64 64c0 35 28 63 64 63c35 0 64 -28 64 -63c0 -36 -29 -64 -64 -64zM429 134c26 -19 43 -48 48 -80c-35 -31 -96 -69 -197 -69
c-135 0 -243 77 -243 244c0 153 107 257 245 257c125 0 193 -69 193 -153c0 -107 -81 -145 -210 -145c-38 0 -75 5 -111 16c9 -87 57 -123 139 -123c70 0 109 33 136 53zM281 394c-69 0 -113 -42 -125 -114c38 -12 74 -15 108 -14c78 0 100 23 100 62c0 33 -26 66 -83 66z
" />
    <glyph glyph-name="edotaccent.ss01" horiz-adv-x="516" 
d="M271 544c-41 0 -74 32 -74 72s33 72 74 72c39 0 72 -32 72 -72s-33 -72 -72 -72zM429 134c26 -19 43 -48 48 -80c-35 -31 -96 -69 -197 -69c-135 0 -243 77 -243 244c0 153 107 257 245 257c125 0 193 -69 193 -153c0 -107 -81 -145 -210 -145c-38 0 -75 5 -111 16
c9 -87 57 -123 139 -123c70 0 109 33 136 53zM281 394c-69 0 -113 -42 -125 -114c38 -12 74 -15 108 -14c78 0 100 23 100 62c0 33 -26 66 -83 66z" />
    <glyph glyph-name="egrave.ss01" horiz-adv-x="516" 
d="M374 562c-6 -20 -14 -34 -32 -45l-190 103c10 41 30 71 65 90zM429 134c26 -19 43 -48 48 -80c-35 -31 -96 -69 -197 -69c-135 0 -243 77 -243 244c0 153 107 257 245 257c125 0 193 -69 193 -153c0 -107 -81 -145 -210 -145c-38 0 -75 5 -111 16c9 -87 57 -123 139 -123
c70 0 109 33 136 53zM281 394c-69 0 -113 -42 -125 -114c38 -12 74 -15 108 -14c78 0 100 23 100 62c0 33 -26 66 -83 66z" />
    <glyph glyph-name="emacron.ss01" horiz-adv-x="516" 
d="M412 566h-283c-5 14 -6 28 -6 43s1 31 6 45h283c3 -14 5 -29 5 -44s-2 -30 -5 -44zM429 134c26 -19 43 -48 48 -80c-35 -31 -96 -69 -197 -69c-135 0 -243 77 -243 244c0 153 107 257 245 257c125 0 193 -69 193 -153c0 -107 -81 -145 -210 -145c-38 0 -75 5 -111 16
c9 -87 57 -123 139 -123c70 0 109 33 136 53zM281 394c-69 0 -113 -42 -125 -114c38 -12 74 -15 108 -14c78 0 100 23 100 62c0 33 -26 66 -83 66z" />
    <glyph glyph-name="eogonek.ss01" horiz-adv-x="516" 
d="M448 -94c18 -12 37 -36 37 -65c-21 -20 -58 -41 -115 -41c-55 0 -99 33 -99 85c0 39 21 74 48 102c-13 -1 -25 -2 -39 -2c-135 0 -243 77 -243 244c0 153 107 257 245 257c125 0 193 -69 193 -153c0 -107 -81 -145 -210 -145c-38 0 -75 5 -111 16c9 -87 57 -123 139 -123
c70 0 109 33 136 53c26 -19 43 -48 48 -80c-10 -9 -22 -18 -36 -27c-42 -33 -78 -77 -78 -108c0 -24 17 -33 35 -33c21 0 39 12 50 20zM281 394c-69 0 -113 -42 -125 -114c38 -12 74 -15 108 -14c78 0 100 23 100 62c0 33 -26 66 -83 66z" />
    <glyph glyph-name="g.ss01" horiz-adv-x="556" 
d="M291 488c80 0 152 -27 202 -65v-406c0 -134 -99 -216 -242 -216c-104 0 -174 47 -174 130c0 52 35 92 89 118c-76 33 -129 102 -129 200c0 144 112 239 254 239zM292 390c-81 0 -140 -56 -140 -139c0 -82 58 -130 140 -130c39 0 65 9 88 22v225c-26 14 -55 22 -88 22z
M252 -111c83 0 128 50 128 118v34c-19 -7 -40 -12 -64 -14c-96 -10 -133 -41 -133 -83c0 -40 31 -55 69 -55z" />
    <glyph glyph-name="gbreve.ss01" horiz-adv-x="556" 
d="M277 529c-108 0 -157 76 -157 149c24 10 48 12 76 9c9 -48 37 -77 83 -77c47 0 74 30 79 77c28 3 54 1 75 -9c0 -71 -49 -149 -156 -149zM291 488c80 0 152 -27 202 -65v-406c0 -134 -99 -216 -242 -216c-104 0 -174 47 -174 130c0 52 35 92 89 118
c-76 33 -129 102 -129 200c0 144 112 239 254 239zM292 390c-81 0 -140 -56 -140 -139c0 -82 58 -130 140 -130c39 0 65 9 88 22v225c-26 14 -55 22 -88 22zM252 -111c83 0 128 50 128 118v34c-19 -7 -40 -12 -64 -14c-96 -10 -133 -41 -133 -83c0 -40 31 -55 69 -55z" />
    <glyph glyph-name="gcommaaccent.ss01" horiz-adv-x="556" 
d="M271 508c-16 0 -33 3 -46 9c-2 13 -3 26 -3 37c0 56 29 111 80 142c15 -2 32 -13 40 -30c-24 -31 -28 -68 -28 -91c0 -19 4 -40 10 -57c-13 -6 -33 -10 -53 -10zM291 488c80 0 152 -27 202 -65v-406c0 -134 -99 -216 -242 -216c-104 0 -174 47 -174 130
c0 52 35 92 89 118c-76 33 -129 102 -129 200c0 144 112 239 254 239zM292 390c-81 0 -140 -56 -140 -139c0 -82 58 -130 140 -130c39 0 65 9 88 22v225c-26 14 -55 22 -88 22zM252 -111c83 0 128 50 128 118v34c-19 -7 -40 -12 -64 -14c-96 -10 -133 -41 -133 -83
c0 -40 31 -55 69 -55z" />
    <glyph glyph-name="gdotaccent.ss01" horiz-adv-x="556" 
d="M277 544c-41 0 -74 32 -74 72s33 72 74 72c39 0 72 -32 72 -72s-33 -72 -72 -72zM291 488c80 0 152 -27 202 -65v-406c0 -134 -99 -216 -242 -216c-104 0 -174 47 -174 130c0 52 35 92 89 118c-76 33 -129 102 -129 200c0 144 112 239 254 239zM292 390
c-81 0 -140 -56 -140 -139c0 -82 58 -130 140 -130c39 0 65 9 88 22v225c-26 14 -55 22 -88 22zM252 -111c83 0 128 50 128 118v34c-19 -7 -40 -12 -64 -14c-96 -10 -133 -41 -133 -83c0 -40 31 -55 69 -55z" />
    <glyph glyph-name="k.ss01" horiz-adv-x="553" 
d="M395 174l134 -171c-18 -5 -52 -10 -79 -10c-17 0 -42 1 -58 3l-111 151c-16 21 -19 37 -19 65c77 13 130 42 130 101c0 42 -32 71 -80 71c-82 0 -134 -58 -134 -128v-256c-18 -4 -37 -5 -56 -5c-18 0 -37 1 -57 5v656c19 4 37 5 56 5s38 -1 57 -5v-232
c39 38 90 61 154 61c105 0 172 -57 172 -150c0 -74 -37 -131 -109 -161z" />
    <glyph glyph-name="kcommaaccent.ss01" horiz-adv-x="553" 
d="M395 174l134 -171c-18 -5 -52 -10 -79 -10c-17 0 -42 1 -58 3l-111 151c-16 21 -19 37 -19 65c77 13 130 42 130 101c0 42 -32 71 -80 71c-82 0 -134 -58 -134 -128v-256c-18 -4 -37 -5 -56 -5c-18 0 -37 1 -57 5v656c19 4 37 5 56 5s38 -1 57 -5v-232
c39 38 90 61 154 61c105 0 172 -57 172 -150c0 -74 -37 -131 -109 -161zM264 -37c16 0 33 -3 46 -9c2 -13 3 -26 3 -37c0 -56 -29 -111 -80 -142c-15 2 -32 13 -40 30c24 31 28 68 28 91c0 19 -4 40 -10 57c13 6 33 10 53 10z" />
    <glyph glyph-name="l.ss01" horiz-adv-x="313" 
d="M202 -11c-77 0 -140 38 -140 133v535c19 3 39 5 57 5c19 0 38 -2 56 -5v-517c0 -36 19 -51 47 -51c18 0 30 6 44 21c25 -18 42 -48 47 -82c-22 -21 -60 -39 -111 -39z" />
    <glyph glyph-name="lacute.ss01" horiz-adv-x="313" 
d="M31 676c-13 11 -21 26 -23 46l183 127c35 -23 50 -55 51 -98zM202 -11c-77 0 -140 38 -140 133v535c19 3 39 5 57 5c19 0 38 -2 56 -5v-517c0 -36 19 -51 47 -51c18 0 30 6 44 21c25 -18 42 -48 47 -82c-22 -21 -60 -39 -111 -39z" />
    <glyph glyph-name="lcaron.ss01" horiz-adv-x="313" 
d="M264 511c-16 2 -32 9 -42 24c17 37 20 79 20 107c0 21 -4 50 -12 69c13 7 32 11 51 11c16 0 34 -3 46 -10c4 -16 5 -28 5 -43c0 -60 -28 -123 -68 -158zM202 -11c-77 0 -140 38 -140 133v535c19 3 39 5 57 5c19 0 38 -2 56 -5v-517c0 -36 19 -51 47 -51c18 0 30 6 44 21
c25 -18 42 -48 47 -82c-22 -21 -60 -39 -111 -39z" />
    <glyph glyph-name="lcommaaccent.ss01" horiz-adv-x="313" 
d="M202 -11c-77 0 -140 38 -140 133v535c19 3 39 5 57 5c19 0 38 -2 56 -5v-517c0 -36 19 -51 47 -51c18 0 30 6 44 21c25 -18 42 -48 47 -82c-22 -21 -60 -39 -111 -39zM162 -225c-15 2 -32 13 -40 30c24 31 28 68 28 91c0 19 -4 40 -10 57c13 6 33 10 53 10
c16 0 33 -3 46 -9c2 -13 3 -26 3 -37c0 -56 -29 -111 -80 -142z" />
    <glyph glyph-name="ldot.ss01" horiz-adv-x="327" 
d="M202 -11c-77 0 -140 38 -140 133v535c19 3 39 5 57 5c19 0 38 -2 56 -5v-517c0 -36 19 -51 47 -51c18 0 30 6 44 21c25 -18 42 -48 47 -82c-22 -21 -60 -39 -111 -39zM273 266c-37 0 -69 31 -69 69s32 69 69 69c38 0 69 -31 69 -69s-31 -69 -69 -69z" />
    <glyph glyph-name="lslash.ss01" horiz-adv-x="313" 
d="M266 110c25 -18 42 -48 47 -82c-22 -21 -60 -39 -111 -39c-77 0 -140 38 -140 133v148l-53 -27c-20 16 -32 43 -34 68l87 45v301c19 3 39 5 57 5c19 0 38 -2 56 -5v-242l51 26c18 -18 30 -43 33 -69l-84 -43v-189c0 -36 19 -51 47 -51c18 0 30 6 44 21z" />
    <glyph glyph-name="y.ss01" horiz-adv-x="560" 
d="M438 476c19 0 38 -2 57 -5v-454c0 -134 -101 -216 -239 -216c-107 0 -179 43 -179 125c0 53 35 94 90 120c-71 25 -108 78 -108 159v266c20 3 38 5 57 5s38 -2 56 -5v-227c0 -77 22 -120 112 -120c34 0 71 7 98 24v323c19 3 38 5 56 5zM257 -111c80 0 125 50 125 118v33
c-23 -7 -49 -12 -76 -15c-86 -12 -121 -39 -121 -80c0 -39 30 -56 72 -56z" />
    <glyph glyph-name="yacute.ss01" horiz-adv-x="560" 
d="M202 517c-18 12 -27 25 -32 46l157 147c35 -19 54 -49 65 -90zM438 476c19 0 38 -2 57 -5v-454c0 -134 -101 -216 -239 -216c-107 0 -179 43 -179 125c0 53 35 94 90 120c-71 25 -108 78 -108 159v266c20 3 38 5 57 5s38 -2 56 -5v-227c0 -77 22 -120 112 -120
c34 0 71 7 98 24v323c19 3 38 5 56 5zM257 -111c80 0 125 50 125 118v33c-23 -7 -49 -12 -76 -15c-86 -12 -121 -39 -121 -80c0 -39 30 -56 72 -56z" />
    <glyph glyph-name="ycircumflex.ss01" horiz-adv-x="560" 
d="M178 525c-22 8 -40 27 -47 50l114 118c23 5 46 5 69 0l111 -114c-6 -22 -24 -45 -48 -55l-101 80zM438 476c19 0 38 -2 57 -5v-454c0 -134 -101 -216 -239 -216c-107 0 -179 43 -179 125c0 53 35 94 90 120c-71 25 -108 78 -108 159v266c20 3 38 5 57 5s38 -2 56 -5v-227
c0 -77 22 -120 112 -120c34 0 71 7 98 24v323c19 3 38 5 56 5zM257 -111c80 0 125 50 125 118v33c-23 -7 -49 -12 -76 -15c-86 -12 -121 -39 -121 -80c0 -39 30 -56 72 -56z" />
    <glyph glyph-name="ydieresis.ss01" horiz-adv-x="560" 
d="M176 545c-36 0 -65 28 -65 64c0 35 28 63 65 63c35 0 63 -28 63 -63c0 -36 -28 -64 -63 -64zM384 545c-35 0 -64 28 -64 64c0 35 28 63 64 63c35 0 64 -28 64 -63c0 -36 -29 -64 -64 -64zM438 476c19 0 38 -2 57 -5v-454c0 -134 -101 -216 -239 -216
c-107 0 -179 43 -179 125c0 53 35 94 90 120c-71 25 -108 78 -108 159v266c20 3 38 5 57 5s38 -2 56 -5v-227c0 -77 22 -120 112 -120c34 0 71 7 98 24v323c19 3 38 5 56 5zM257 -111c80 0 125 50 125 118v33c-23 -7 -49 -12 -76 -15c-86 -12 -121 -39 -121 -80
c0 -39 30 -56 72 -56z" />
    <glyph glyph-name="ygrave.ss01" horiz-adv-x="560" 
d="M383 562c-6 -20 -14 -34 -32 -45l-190 103c10 41 30 71 65 90zM438 476c19 0 38 -2 57 -5v-454c0 -134 -101 -216 -239 -216c-107 0 -179 43 -179 125c0 53 35 94 90 120c-71 25 -108 78 -108 159v266c20 3 38 5 57 5s38 -2 56 -5v-227c0 -77 22 -120 112 -120
c34 0 71 7 98 24v323c19 3 38 5 56 5zM257 -111c80 0 125 50 125 118v33c-23 -7 -49 -12 -76 -15c-86 -12 -121 -39 -121 -80c0 -39 30 -56 72 -56z" />
    <glyph glyph-name="a.ss02" horiz-adv-x="522" 
d="M494 74c1 -37 -10 -70 -30 -89c-64 4 -95 23 -111 65h-7c-38 -48 -89 -66 -147 -66c-96 0 -168 53 -168 148s76 148 213 149h89v25c0 55 -36 83 -103 83c-52 0 -102 -24 -129 -46c-26 16 -45 43 -52 75c29 28 103 69 193 69c112 0 204 -50 204 -196v-164
c0 -31 12 -43 48 -53zM223 70c57 0 110 31 110 134h-83c-78 0 -104 -25 -104 -67s28 -67 77 -67z" />
    <glyph glyph-name="aacute.ss02" horiz-adv-x="522" 
d="M157 517c-18 12 -27 25 -32 46l157 147c35 -19 54 -49 65 -90zM494 74c1 -37 -10 -70 -30 -89c-64 4 -95 23 -111 65h-7c-38 -48 -89 -66 -147 -66c-96 0 -168 53 -168 148s76 148 213 149h89v25c0 55 -36 83 -103 83c-52 0 -102 -24 -129 -46c-26 16 -45 43 -52 75
c29 28 103 69 193 69c112 0 204 -50 204 -196v-164c0 -31 12 -43 48 -53zM223 70c57 0 110 31 110 134h-83c-78 0 -104 -25 -104 -67s28 -67 77 -67z" />
    <glyph glyph-name="abreve.ss02" horiz-adv-x="522" 
d="M235 529c-108 0 -157 76 -157 149c24 10 48 12 76 9c9 -48 37 -77 83 -77c47 0 74 30 79 77c28 3 54 1 75 -9c0 -71 -49 -149 -156 -149zM494 74c1 -37 -10 -70 -30 -89c-64 4 -95 23 -111 65h-7c-38 -48 -89 -66 -147 -66c-96 0 -168 53 -168 148s76 148 213 149h89v25
c0 55 -36 83 -103 83c-52 0 -102 -24 -129 -46c-26 16 -45 43 -52 75c29 28 103 69 193 69c112 0 204 -50 204 -196v-164c0 -31 12 -43 48 -53zM223 70c57 0 110 31 110 134h-83c-78 0 -104 -25 -104 -67s28 -67 77 -67z" />
    <glyph glyph-name="acircumflex.ss02" horiz-adv-x="522" 
d="M133 525c-22 8 -40 27 -47 50l114 118c23 5 46 5 69 0l111 -114c-6 -22 -24 -45 -48 -55l-101 80zM494 74c1 -37 -10 -70 -30 -89c-64 4 -95 23 -111 65h-7c-38 -48 -89 -66 -147 -66c-96 0 -168 53 -168 148s76 148 213 149h89v25c0 55 -36 83 -103 83
c-52 0 -102 -24 -129 -46c-26 16 -45 43 -52 75c29 28 103 69 193 69c112 0 204 -50 204 -196v-164c0 -31 12 -43 48 -53zM223 70c57 0 110 31 110 134h-83c-78 0 -104 -25 -104 -67s28 -67 77 -67z" />
    <glyph glyph-name="adieresis.ss02" horiz-adv-x="522" 
d="M131 545c-36 0 -65 28 -65 64c0 35 28 63 65 63c35 0 63 -28 63 -63c0 -36 -28 -64 -63 -64zM339 545c-35 0 -64 28 -64 64c0 35 28 63 64 63c35 0 64 -28 64 -63c0 -36 -29 -64 -64 -64zM494 74c1 -37 -10 -70 -30 -89c-64 4 -95 23 -111 65h-7
c-38 -48 -89 -66 -147 -66c-96 0 -168 53 -168 148s76 148 213 149h89v25c0 55 -36 83 -103 83c-52 0 -102 -24 -129 -46c-26 16 -45 43 -52 75c29 28 103 69 193 69c112 0 204 -50 204 -196v-164c0 -31 12 -43 48 -53zM223 70c57 0 110 31 110 134h-83
c-78 0 -104 -25 -104 -67s28 -67 77 -67z" />
    <glyph glyph-name="agrave.ss02" horiz-adv-x="522" 
d="M337 562c-6 -20 -14 -34 -32 -45l-190 103c10 41 30 71 65 90zM494 74c1 -37 -10 -70 -30 -89c-64 4 -95 23 -111 65h-7c-38 -48 -89 -66 -147 -66c-96 0 -168 53 -168 148s76 148 213 149h89v25c0 55 -36 83 -103 83c-52 0 -102 -24 -129 -46c-26 16 -45 43 -52 75
c29 28 103 69 193 69c112 0 204 -50 204 -196v-164c0 -31 12 -43 48 -53zM223 70c57 0 110 31 110 134h-83c-78 0 -104 -25 -104 -67s28 -67 77 -67z" />
    <glyph glyph-name="amacron.ss02" horiz-adv-x="522" 
d="M376 566h-283c-5 14 -6 28 -6 43s1 31 6 45h283c3 -14 5 -29 5 -44s-2 -30 -5 -44zM494 74c1 -37 -10 -70 -30 -89c-64 4 -95 23 -111 65h-7c-38 -48 -89 -66 -147 -66c-96 0 -168 53 -168 148s76 148 213 149h89v25c0 55 -36 83 -103 83c-52 0 -102 -24 -129 -46
c-26 16 -45 43 -52 75c29 28 103 69 193 69c112 0 204 -50 204 -196v-164c0 -31 12 -43 48 -53zM223 70c57 0 110 31 110 134h-83c-78 0 -104 -25 -104 -67s28 -67 77 -67z" />
    <glyph glyph-name="aogonek.ss02" horiz-adv-x="522" 
d="M466 -97c20 -11 40 -34 40 -63c-20 -21 -55 -42 -111 -42c-57 0 -103 36 -103 91c0 53 37 96 93 126c-13 8 -23 19 -33 35h-4c-40 -48 -93 -66 -143 -66c-102 0 -174 53 -174 148s76 148 209 148l93 1v26c0 56 -36 82 -103 82c-52 0 -102 -24 -129 -46
c-26 16 -45 43 -53 75c29 28 104 69 193 69c112 0 205 -50 205 -196v-145c0 -36 12 -51 50 -57c2 -38 -10 -76 -23 -95c-67 -13 -90 -50 -90 -75s18 -35 37 -35c18 0 36 11 46 19zM222 70c45 0 111 19 111 134h-83c-78 -1 -105 -24 -105 -67c0 -42 29 -67 77 -67z" />
    <glyph glyph-name="aring.ss02" horiz-adv-x="522" 
d="M235 506c-60 0 -109 48 -109 108c0 59 49 107 109 107c58 0 107 -48 107 -107c0 -60 -49 -108 -107 -108zM234 657c-23 0 -41 -20 -41 -44c0 -22 18 -42 41 -42c25 0 42 20 42 42c0 24 -17 44 -42 44zM494 74c1 -37 -10 -70 -30 -89c-64 4 -95 23 -111 65h-7
c-38 -48 -89 -66 -147 -66c-96 0 -168 53 -168 148s76 148 213 149h89v25c0 55 -36 83 -103 83c-52 0 -102 -24 -129 -46c-26 16 -45 43 -52 75c29 28 103 69 193 69c112 0 204 -50 204 -196v-164c0 -31 12 -43 48 -53zM223 70c57 0 110 31 110 134h-83
c-78 0 -104 -25 -104 -67s28 -67 77 -67z" />
    <glyph glyph-name="atilde.ss02" horiz-adv-x="522" 
d="M129 546c-25 0 -64 10 -80 28c14 68 61 108 119 108c51 -1 95 -40 126 -39c23 0 39 16 47 42c29 0 59 -10 79 -27c-15 -66 -62 -105 -116 -105c-52 0 -96 38 -127 38c-25 0 -40 -17 -48 -45zM494 74c1 -37 -10 -70 -30 -89c-64 4 -95 23 -111 65h-7
c-38 -48 -89 -66 -147 -66c-96 0 -168 53 -168 148s76 148 213 149h89v25c0 55 -36 83 -103 83c-52 0 -102 -24 -129 -46c-26 16 -45 43 -52 75c29 28 103 69 193 69c112 0 204 -50 204 -196v-164c0 -31 12 -43 48 -53zM223 70c57 0 110 31 110 134h-83
c-78 0 -104 -25 -104 -67s28 -67 77 -67z" />
    <glyph glyph-name="e.ss02" horiz-adv-x="522" 
d="M431 132c26 -18 42 -47 48 -78c-36 -31 -105 -69 -195 -69c-140 0 -247 90 -247 251c0 147 103 251 239 251c139 0 210 -102 214 -214l-329 -101c19 -59 63 -93 132 -93c64 0 111 33 138 53zM274 393c-80 0 -119 -58 -122 -142l217 68c-2 22 -22 74 -95 74z" />
    <glyph glyph-name="eacute.ss02" horiz-adv-x="522" 
d="M186 517c-18 12 -27 25 -32 46l157 147c35 -19 54 -49 65 -90zM431 132c26 -18 42 -47 48 -78c-36 -31 -105 -69 -195 -69c-140 0 -247 90 -247 251c0 147 103 251 239 251c139 0 210 -102 214 -214l-329 -101c19 -59 63 -93 132 -93c64 0 111 33 138 53zM274 393
c-80 0 -119 -58 -122 -142l217 68c-2 22 -22 74 -95 74z" />
    <glyph glyph-name="ecaron.ss02" horiz-adv-x="522" 
d="M296 531c-23 -5 -46 -5 -69 0l-109 114c5 22 22 45 47 55l99 -79l101 79c22 -8 40 -28 47 -51zM431 132c26 -18 42 -47 48 -78c-36 -31 -105 -69 -195 -69c-140 0 -247 90 -247 251c0 147 103 251 239 251c139 0 210 -102 214 -214l-329 -101c19 -59 63 -93 132 -93
c64 0 111 33 138 53zM274 393c-80 0 -119 -58 -122 -142l217 68c-2 22 -22 74 -95 74z" />
    <glyph glyph-name="ecircumflex.ss02" horiz-adv-x="522" 
d="M163 525c-22 8 -40 27 -47 50l114 118c23 5 46 5 69 0l111 -114c-6 -22 -24 -45 -48 -55l-101 80zM431 132c26 -18 42 -47 48 -78c-36 -31 -105 -69 -195 -69c-140 0 -247 90 -247 251c0 147 103 251 239 251c139 0 210 -102 214 -214l-329 -101c19 -59 63 -93 132 -93
c64 0 111 33 138 53zM274 393c-80 0 -119 -58 -122 -142l217 68c-2 22 -22 74 -95 74z" />
    <glyph glyph-name="edieresis.ss02" horiz-adv-x="522" 
d="M160 545c-36 0 -65 28 -65 64c0 35 28 63 65 63c35 0 63 -28 63 -63c0 -36 -28 -64 -63 -64zM368 545c-35 0 -64 28 -64 64c0 35 28 63 64 63c35 0 64 -28 64 -63c0 -36 -29 -64 -64 -64zM431 132c26 -18 42 -47 48 -78c-36 -31 -105 -69 -195 -69
c-140 0 -247 90 -247 251c0 147 103 251 239 251c139 0 210 -102 214 -214l-329 -101c19 -59 63 -93 132 -93c64 0 111 33 138 53zM274 393c-80 0 -119 -58 -122 -142l217 68c-2 22 -22 74 -95 74z" />
    <glyph glyph-name="edotaccent.ss02" horiz-adv-x="522" 
d="M265 544c-41 0 -74 32 -74 72s33 72 74 72c39 0 72 -32 72 -72s-33 -72 -72 -72zM431 132c26 -18 42 -47 48 -78c-36 -31 -105 -69 -195 -69c-140 0 -247 90 -247 251c0 147 103 251 239 251c139 0 210 -102 214 -214l-329 -101c19 -59 63 -93 132 -93
c64 0 111 33 138 53zM274 393c-80 0 -119 -58 -122 -142l217 68c-2 22 -22 74 -95 74z" />
    <glyph glyph-name="egrave.ss02" horiz-adv-x="522" 
d="M367 562c-6 -20 -14 -34 -32 -45l-190 103c10 41 30 71 65 90zM431 132c26 -18 42 -47 48 -78c-36 -31 -105 -69 -195 -69c-140 0 -247 90 -247 251c0 147 103 251 239 251c139 0 210 -102 214 -214l-329 -101c19 -59 63 -93 132 -93c64 0 111 33 138 53zM274 393
c-80 0 -119 -58 -122 -142l217 68c-2 22 -22 74 -95 74z" />
    <glyph glyph-name="emacron.ss02" horiz-adv-x="522" 
d="M406 566h-283c-5 14 -6 28 -6 43s1 31 6 45h283c3 -14 5 -29 5 -44s-2 -30 -5 -44zM431 132c26 -18 42 -47 48 -78c-36 -31 -105 -69 -195 -69c-140 0 -247 90 -247 251c0 147 103 251 239 251c139 0 210 -102 214 -214l-329 -101c19 -59 63 -93 132 -93
c64 0 111 33 138 53zM274 393c-80 0 -119 -58 -122 -142l217 68c-2 22 -22 74 -95 74z" />
    <glyph glyph-name="eogonek.ss02" horiz-adv-x="522" 
d="M449 -94c18 -12 37 -36 37 -65c-21 -20 -58 -41 -115 -41c-55 0 -99 33 -99 85c0 39 21 74 48 102c-12 -1 -24 -2 -36 -2c-140 0 -247 90 -247 251c0 147 103 251 239 251c139 0 210 -102 214 -214l-329 -101c19 -59 63 -93 132 -93c64 0 111 33 138 53
c26 -18 42 -47 48 -78c-9 -8 -21 -17 -35 -25c-42 -34 -80 -78 -80 -110c0 -24 17 -33 35 -33c21 0 39 12 50 20zM274 393c-80 0 -119 -58 -122 -142l217 68c-2 22 -22 74 -95 74z" />
    <glyph glyph-name="g.ss02" horiz-adv-x="525" 
d="M517 485c-19 -44 -54 -70 -86 -83c21 -30 30 -64 29 -104c-2 -98 -88 -167 -211 -167c-28 0 -52 3 -74 8c-12 -12 -18 -24 -18 -35c0 -20 16 -29 41 -29h127c74 0 149 -23 149 -122c0 -96 -82 -157 -223 -157c-118 0 -188 35 -213 56c7 34 24 61 51 78
c27 -21 72 -47 162 -47c92 0 117 26 117 57c0 30 -20 42 -68 42h-101c-73 0 -139 20 -139 95c0 43 25 69 49 89c-44 30 -66 78 -66 137c0 105 86 179 212 179h83c55 0 83 12 103 52c32 -8 59 -25 76 -49zM353 303c1 30 -1 55 -22 90h-75c-62 0 -102 -32 -102 -90
c0 -56 32 -85 95 -85c61 0 102 32 104 85z" />
    <glyph glyph-name="gbreve.ss02" horiz-adv-x="525" 
d="M255 529c-108 0 -157 76 -157 149c24 10 48 12 76 9c9 -48 37 -77 83 -77c47 0 74 30 79 77c28 3 54 1 75 -9c0 -71 -49 -149 -156 -149zM517 485c-19 -44 -54 -70 -86 -83c21 -30 30 -64 29 -104c-2 -98 -88 -167 -211 -167c-28 0 -52 3 -74 8c-12 -12 -18 -24 -18 -35
c0 -20 16 -29 41 -29h127c74 0 149 -23 149 -122c0 -96 -82 -157 -223 -157c-118 0 -188 35 -213 56c7 34 24 61 51 78c27 -21 72 -47 162 -47c92 0 117 26 117 57c0 30 -20 42 -68 42h-101c-73 0 -139 20 -139 95c0 43 25 69 49 89c-44 30 -66 78 -66 137
c0 105 86 179 212 179h83c55 0 83 12 103 52c32 -8 59 -25 76 -49zM353 303c1 30 -1 55 -22 90h-75c-62 0 -102 -32 -102 -90c0 -56 32 -85 95 -85c61 0 102 32 104 85z" />
    <glyph glyph-name="gcommaaccent.ss02" horiz-adv-x="525" 
d="M248 508c-16 0 -33 3 -46 9c-2 13 -3 26 -3 37c0 56 29 111 80 142c15 -2 32 -13 40 -30c-24 -31 -28 -68 -28 -91c0 -19 4 -40 10 -57c-13 -6 -33 -10 -53 -10zM517 485c-19 -44 -54 -70 -86 -83c21 -30 30 -64 29 -104c-2 -98 -88 -167 -211 -167c-28 0 -52 3 -74 8
c-12 -12 -18 -24 -18 -35c0 -20 16 -29 41 -29h127c74 0 149 -23 149 -122c0 -96 -82 -157 -223 -157c-118 0 -188 35 -213 56c7 34 24 61 51 78c27 -21 72 -47 162 -47c92 0 117 26 117 57c0 30 -20 42 -68 42h-101c-73 0 -139 20 -139 95c0 43 25 69 49 89
c-44 30 -66 78 -66 137c0 105 86 179 212 179h83c55 0 83 12 103 52c32 -8 59 -25 76 -49zM353 303c1 30 -1 55 -22 90h-75c-62 0 -102 -32 -102 -90c0 -56 32 -85 95 -85c61 0 102 32 104 85z" />
    <glyph glyph-name="gdotaccent.ss02" horiz-adv-x="525" 
d="M255 544c-41 0 -74 32 -74 72s33 72 74 72c39 0 72 -32 72 -72s-33 -72 -72 -72zM517 485c-19 -44 -54 -70 -86 -83c21 -30 30 -64 29 -104c-2 -98 -88 -167 -211 -167c-28 0 -52 3 -74 8c-12 -12 -18 -24 -18 -35c0 -20 16 -29 41 -29h127c74 0 149 -23 149 -122
c0 -96 -82 -157 -223 -157c-118 0 -188 35 -213 56c7 34 24 61 51 78c27 -21 72 -47 162 -47c92 0 117 26 117 57c0 30 -20 42 -68 42h-101c-73 0 -139 20 -139 95c0 43 25 69 49 89c-44 30 -66 78 -66 137c0 105 86 179 212 179h83c55 0 83 12 103 52c32 -8 59 -25 76 -49z
M353 303c1 30 -1 55 -22 90h-75c-62 0 -102 -32 -102 -90c0 -56 32 -85 95 -85c61 0 102 32 104 85z" />
    <glyph glyph-name="w.ss02" horiz-adv-x="751" 
d="M657 476c26 0 51 -4 70 -10c-34 -182 -77 -325 -157 -466c-17 -4 -35 -5 -52 -5c-16 0 -37 1 -55 5c-40 78 -68 165 -88 274c-22 -108 -51 -197 -91 -274c-17 -4 -37 -5 -54 -5s-35 1 -52 5c-78 142 -123 284 -153 466c18 6 44 10 70 10c16 0 32 -2 46 -4
c23 -152 58 -286 92 -361c1 -5 3 -9 4 -14l5 14c30 80 61 212 79 352c12 2 36 4 53 4c18 0 43 -2 56 -4c21 -159 50 -272 84 -352l6 -17c2 6 4 11 6 17c33 73 63 209 87 361c14 2 28 4 44 4z" />
    <glyph glyph-name="wacute.ss02" horiz-adv-x="751" 
d="M298 517c-18 12 -27 25 -32 46l157 147c35 -19 54 -49 65 -90zM657 476c26 0 51 -4 70 -10c-34 -182 -77 -325 -157 -466c-17 -4 -35 -5 -52 -5c-16 0 -37 1 -55 5c-40 78 -68 165 -88 274c-22 -108 -51 -197 -91 -274c-17 -4 -37 -5 -54 -5s-35 1 -52 5
c-78 142 -123 284 -153 466c18 6 44 10 70 10c16 0 32 -2 46 -4c23 -152 58 -286 92 -361c1 -5 3 -9 4 -14l5 14c30 80 61 212 79 352c12 2 36 4 53 4c18 0 43 -2 56 -4c21 -159 50 -272 84 -352l6 -17c2 6 4 11 6 17c33 73 63 209 87 361c14 2 28 4 44 4z" />
    <glyph glyph-name="wcircumflex.ss02" horiz-adv-x="751" 
d="M274 525c-22 8 -40 27 -47 50l114 118c23 5 46 5 69 0l111 -114c-6 -22 -24 -45 -48 -55l-101 80zM657 476c26 0 51 -4 70 -10c-34 -182 -77 -325 -157 -466c-17 -4 -35 -5 -52 -5c-16 0 -37 1 -55 5c-40 78 -68 165 -88 274c-22 -108 -51 -197 -91 -274
c-17 -4 -37 -5 -54 -5s-35 1 -52 5c-78 142 -123 284 -153 466c18 6 44 10 70 10c16 0 32 -2 46 -4c23 -152 58 -286 92 -361c1 -5 3 -9 4 -14l5 14c30 80 61 212 79 352c12 2 36 4 53 4c18 0 43 -2 56 -4c21 -159 50 -272 84 -352l6 -17c2 6 4 11 6 17c33 73 63 209 87 361
c14 2 28 4 44 4z" />
    <glyph glyph-name="wdieresis.ss02" horiz-adv-x="751" 
d="M272 545c-36 0 -65 28 -65 64c0 35 28 63 65 63c35 0 63 -28 63 -63c0 -36 -28 -64 -63 -64zM480 545c-35 0 -64 28 -64 64c0 35 28 63 64 63c35 0 64 -28 64 -63c0 -36 -29 -64 -64 -64zM657 476c26 0 51 -4 70 -10c-34 -182 -77 -325 -157 -466c-17 -4 -35 -5 -52 -5
c-16 0 -37 1 -55 5c-40 78 -68 165 -88 274c-22 -108 -51 -197 -91 -274c-17 -4 -37 -5 -54 -5s-35 1 -52 5c-78 142 -123 284 -153 466c18 6 44 10 70 10c16 0 32 -2 46 -4c23 -152 58 -286 92 -361c1 -5 3 -9 4 -14l5 14c30 80 61 212 79 352c12 2 36 4 53 4
c18 0 43 -2 56 -4c21 -159 50 -272 84 -352l6 -17c2 6 4 11 6 17c33 73 63 209 87 361c14 2 28 4 44 4z" />
    <glyph glyph-name="wgrave.ss02" horiz-adv-x="751" 
d="M478 562c-6 -20 -14 -34 -32 -45l-190 103c10 41 30 71 65 90zM657 476c26 0 51 -4 70 -10c-34 -182 -77 -325 -157 -466c-17 -4 -35 -5 -52 -5c-16 0 -37 1 -55 5c-40 78 -68 165 -88 274c-22 -108 -51 -197 -91 -274c-17 -4 -37 -5 -54 -5s-35 1 -52 5
c-78 142 -123 284 -153 466c18 6 44 10 70 10c16 0 32 -2 46 -4c23 -152 58 -286 92 -361c1 -5 3 -9 4 -14l5 14c30 80 61 212 79 352c12 2 36 4 53 4c18 0 43 -2 56 -4c21 -159 50 -272 84 -352l6 -17c2 6 4 11 6 17c33 73 63 209 87 361c14 2 28 4 44 4z" />
    <glyph glyph-name="y.ss02" horiz-adv-x="560" 
d="M438 476c19 0 38 -2 57 -5v-451c0 -137 -97 -219 -236 -219c-100 0 -171 35 -212 80c6 30 29 60 66 74c31 -34 74 -60 142 -60c89 0 127 48 127 112v32c-34 -14 -73 -23 -116 -23c-141 0 -207 78 -207 188v267c20 3 38 5 57 5s38 -2 56 -5v-234c0 -77 22 -120 112 -120
c34 0 71 8 98 25v329c19 3 38 5 56 5z" />
    <glyph glyph-name="yacute.ss02" horiz-adv-x="560" 
d="M202 517c-18 12 -27 25 -32 46l157 147c35 -19 54 -49 65 -90zM438 476c19 0 38 -2 57 -5v-451c0 -137 -97 -219 -236 -219c-100 0 -171 35 -212 80c6 30 29 60 66 74c31 -34 74 -60 142 -60c89 0 127 48 127 112v32c-34 -14 -73 -23 -116 -23c-141 0 -207 78 -207 188
v267c20 3 38 5 57 5s38 -2 56 -5v-234c0 -77 22 -120 112 -120c34 0 71 8 98 25v329c19 3 38 5 56 5z" />
    <glyph glyph-name="ycircumflex.ss02" horiz-adv-x="560" 
d="M178 525c-22 8 -40 27 -47 50l114 118c23 5 46 5 69 0l111 -114c-6 -22 -24 -45 -48 -55l-101 80zM438 476c19 0 38 -2 57 -5v-451c0 -137 -97 -219 -236 -219c-100 0 -171 35 -212 80c6 30 29 60 66 74c31 -34 74 -60 142 -60c89 0 127 48 127 112v32
c-34 -14 -73 -23 -116 -23c-141 0 -207 78 -207 188v267c20 3 38 5 57 5s38 -2 56 -5v-234c0 -77 22 -120 112 -120c34 0 71 8 98 25v329c19 3 38 5 56 5z" />
    <glyph glyph-name="ydieresis.ss02" horiz-adv-x="560" 
d="M176 545c-36 0 -65 28 -65 64c0 35 28 63 65 63c35 0 63 -28 63 -63c0 -36 -28 -64 -63 -64zM384 545c-35 0 -64 28 -64 64c0 35 28 63 64 63c35 0 64 -28 64 -63c0 -36 -29 -64 -64 -64zM438 476c19 0 38 -2 57 -5v-451c0 -137 -97 -219 -236 -219
c-100 0 -171 35 -212 80c6 30 29 60 66 74c31 -34 74 -60 142 -60c89 0 127 48 127 112v32c-34 -14 -73 -23 -116 -23c-141 0 -207 78 -207 188v267c20 3 38 5 57 5s38 -2 56 -5v-234c0 -77 22 -120 112 -120c34 0 71 8 98 25v329c19 3 38 5 56 5z" />
    <glyph glyph-name="ygrave.ss02" horiz-adv-x="560" 
d="M382 562c-6 -20 -14 -34 -32 -45l-190 103c10 41 30 71 65 90zM438 476c19 0 38 -2 57 -5v-451c0 -137 -97 -219 -236 -219c-100 0 -171 35 -212 80c6 30 29 60 66 74c31 -34 74 -60 142 -60c89 0 127 48 127 112v32c-34 -14 -73 -23 -116 -23c-141 0 -207 78 -207 188
v267c20 3 38 5 57 5s38 -2 56 -5v-234c0 -77 22 -120 112 -120c34 0 71 8 98 25v329c19 3 38 5 56 5z" />
    <glyph glyph-name="a.ss03" horiz-adv-x="513" 
d="M242 487c121 0 218 -50 218 -196v-259c-57 -27 -136 -47 -219 -47c-131 0 -210 51 -210 152c0 91 76 142 191 141h125v20c0 58 -37 90 -113 90c-57 0 -105 -24 -133 -45c-26 16 -45 43 -52 75c29 28 101 69 193 69zM146 140c0 -46 39 -67 103 -67c36 0 69 6 98 16v110
h-118c-56 0 -83 -17 -83 -59z" />
    <glyph glyph-name="aacute.ss03" horiz-adv-x="513" 
d="M172 517c-18 12 -27 25 -32 46l157 147c35 -19 54 -49 65 -90zM242 487c121 0 218 -50 218 -196v-259c-57 -27 -136 -47 -219 -47c-131 0 -210 51 -210 152c0 91 76 142 191 141h125v20c0 58 -37 90 -113 90c-57 0 -105 -24 -133 -45c-26 16 -45 43 -52 75
c29 28 101 69 193 69zM146 140c0 -46 39 -67 103 -67c36 0 69 6 98 16v110h-118c-56 0 -83 -17 -83 -59z" />
    <glyph glyph-name="abreve.ss03" horiz-adv-x="513" 
d="M251 529c-108 0 -157 76 -157 149c24 10 48 12 76 9c9 -48 37 -77 83 -77c47 0 74 30 79 77c28 3 54 1 75 -9c0 -71 -49 -149 -156 -149zM242 487c121 0 218 -50 218 -196v-259c-57 -27 -136 -47 -219 -47c-131 0 -210 51 -210 152c0 91 76 142 191 141h125v20
c0 58 -37 90 -113 90c-57 0 -105 -24 -133 -45c-26 16 -45 43 -52 75c29 28 101 69 193 69zM146 140c0 -46 39 -67 103 -67c36 0 69 6 98 16v110h-118c-56 0 -83 -17 -83 -59z" />
    <glyph glyph-name="acircumflex.ss03" horiz-adv-x="513" 
d="M149 525c-22 8 -40 27 -47 50l114 118c23 5 46 5 69 0l111 -114c-6 -22 -24 -45 -48 -55l-101 80zM242 487c121 0 218 -50 218 -196v-259c-57 -27 -136 -47 -219 -47c-131 0 -210 51 -210 152c0 91 76 142 191 141h125v20c0 58 -37 90 -113 90c-57 0 -105 -24 -133 -45
c-26 16 -45 43 -52 75c29 28 101 69 193 69zM146 140c0 -46 39 -67 103 -67c36 0 69 6 98 16v110h-118c-56 0 -83 -17 -83 -59z" />
    <glyph glyph-name="adieresis.ss03" horiz-adv-x="513" 
d="M146 545c-36 0 -65 28 -65 64c0 35 28 63 65 63c35 0 63 -28 63 -63c0 -36 -28 -64 -63 -64zM354 545c-35 0 -64 28 -64 64c0 35 28 63 64 63c35 0 64 -28 64 -63c0 -36 -29 -64 -64 -64zM242 487c121 0 218 -50 218 -196v-259c-57 -27 -136 -47 -219 -47
c-131 0 -210 51 -210 152c0 91 76 142 191 141h125v20c0 58 -37 90 -113 90c-57 0 -105 -24 -133 -45c-26 16 -45 43 -52 75c29 28 101 69 193 69zM146 140c0 -46 39 -67 103 -67c36 0 69 6 98 16v110h-118c-56 0 -83 -17 -83 -59z" />
    <glyph glyph-name="agrave.ss03" horiz-adv-x="513" 
d="M353 562c-6 -20 -14 -34 -32 -45l-190 103c10 41 30 71 65 90zM242 487c121 0 218 -50 218 -196v-259c-57 -27 -136 -47 -219 -47c-131 0 -210 51 -210 152c0 91 76 142 191 141h125v20c0 58 -37 90 -113 90c-57 0 -105 -24 -133 -45c-26 16 -45 43 -52 75
c29 28 101 69 193 69zM146 140c0 -46 39 -67 103 -67c36 0 69 6 98 16v110h-118c-56 0 -83 -17 -83 -59z" />
    <glyph glyph-name="amacron.ss03" horiz-adv-x="513" 
d="M392 566h-283c-5 14 -6 28 -6 43s1 31 6 45h283c3 -14 5 -29 5 -44s-2 -30 -5 -44zM242 487c121 0 218 -50 218 -196v-259c-57 -27 -136 -47 -219 -47c-131 0 -210 51 -210 152c0 91 76 142 191 141h125v20c0 58 -37 90 -113 90c-57 0 -105 -24 -133 -45
c-26 16 -45 43 -52 75c29 28 101 69 193 69zM146 140c0 -46 39 -67 103 -67c36 0 69 6 98 16v110h-118c-56 0 -83 -17 -83 -59z" />
    <glyph glyph-name="aogonek.ss03" horiz-adv-x="513" 
d="M461 -94c18 -12 37 -36 37 -65c-21 -20 -58 -41 -115 -41c-55 0 -99 33 -99 85c0 42 25 80 54 109c-31 -6 -64 -9 -97 -9c-131 0 -210 51 -210 152c0 91 76 142 191 141h125v20c0 58 -37 90 -113 90c-57 0 -105 -24 -133 -45c-26 16 -45 43 -52 75c29 28 101 69 193 69
c121 0 218 -50 218 -196v-259c-44 -34 -84 -80 -84 -113c0 -24 17 -33 35 -33c21 0 39 12 50 20zM146 140c0 -46 39 -67 103 -67c36 0 69 6 98 16v110h-118c-56 0 -83 -17 -83 -59z" />
    <glyph glyph-name="aring.ss03" horiz-adv-x="513" 
d="M251 506c-60 0 -109 48 -109 108c0 59 49 107 109 107c58 0 107 -48 107 -107c0 -60 -49 -108 -107 -108zM250 657c-23 0 -41 -20 -41 -44c0 -22 18 -42 41 -42c25 0 42 20 42 42c0 24 -17 44 -42 44zM242 487c121 0 218 -50 218 -196v-259c-57 -27 -136 -47 -219 -47
c-131 0 -210 51 -210 152c0 91 76 142 191 141h125v20c0 58 -37 90 -113 90c-57 0 -105 -24 -133 -45c-26 16 -45 43 -52 75c29 28 101 69 193 69zM146 140c0 -46 39 -67 103 -67c36 0 69 6 98 16v110h-118c-56 0 -83 -17 -83 -59z" />
    <glyph glyph-name="atilde.ss03" horiz-adv-x="513" 
d="M145 546c-25 0 -64 10 -80 28c14 68 61 108 119 108c51 -1 95 -40 126 -39c23 0 39 16 47 42c29 0 59 -10 79 -27c-15 -66 -62 -105 -116 -105c-52 0 -96 38 -127 38c-25 0 -40 -17 -48 -45zM242 487c121 0 218 -50 218 -196v-259c-57 -27 -136 -47 -219 -47
c-131 0 -210 51 -210 152c0 91 76 142 191 141h125v20c0 58 -37 90 -113 90c-57 0 -105 -24 -133 -45c-26 16 -45 43 -52 75c29 28 101 69 193 69zM146 140c0 -46 39 -67 103 -67c36 0 69 6 98 16v110h-118c-56 0 -83 -17 -83 -59z" />
    <glyph glyph-name="e.ss03" horiz-adv-x="518" 
d="M479 332c0 -83 -49 -131 -166 -131l-159 -1c9 -74 55 -119 135 -119c74 0 109 25 139 46c25 -17 45 -48 49 -77c-39 -31 -97 -65 -199 -65c-142 0 -241 88 -241 249c0 149 109 253 249 253c120 0 194 -70 193 -155zM154 279h149c43 0 62 22 62 54c0 37 -34 61 -82 61
c-75 0 -121 -51 -129 -115z" />
    <glyph glyph-name="eacute.ss03" horiz-adv-x="518" 
d="M187 517c-18 12 -27 25 -32 46l157 147c35 -19 54 -49 65 -90zM479 332c0 -83 -49 -131 -166 -131l-159 -1c9 -74 55 -119 135 -119c74 0 109 25 139 46c25 -17 45 -48 49 -77c-39 -31 -97 -65 -199 -65c-142 0 -241 88 -241 249c0 149 109 253 249 253
c120 0 194 -70 193 -155zM154 279h149c43 0 62 22 62 54c0 37 -34 61 -82 61c-75 0 -121 -51 -129 -115z" />
    <glyph glyph-name="ecaron.ss03" horiz-adv-x="518" 
d="M297 531c-23 -5 -46 -5 -69 0l-109 114c5 22 22 45 47 55l99 -79l101 79c22 -8 40 -28 47 -51zM479 332c0 -83 -49 -131 -166 -131l-159 -1c9 -74 55 -119 135 -119c74 0 109 25 139 46c25 -17 45 -48 49 -77c-39 -31 -97 -65 -199 -65c-142 0 -241 88 -241 249
c0 149 109 253 249 253c120 0 194 -70 193 -155zM154 279h149c43 0 62 22 62 54c0 37 -34 61 -82 61c-75 0 -121 -51 -129 -115z" />
    <glyph glyph-name="ecircumflex.ss03" horiz-adv-x="518" 
d="M164 525c-22 8 -40 27 -47 50l114 118c23 5 46 5 69 0l111 -114c-6 -22 -24 -45 -48 -55l-101 80zM479 332c0 -83 -49 -131 -166 -131l-159 -1c9 -74 55 -119 135 -119c74 0 109 25 139 46c25 -17 45 -48 49 -77c-39 -31 -97 -65 -199 -65c-142 0 -241 88 -241 249
c0 149 109 253 249 253c120 0 194 -70 193 -155zM154 279h149c43 0 62 22 62 54c0 37 -34 61 -82 61c-75 0 -121 -51 -129 -115z" />
    <glyph glyph-name="edieresis.ss03" horiz-adv-x="518" 
d="M161 545c-36 0 -65 28 -65 64c0 35 28 63 65 63c35 0 63 -28 63 -63c0 -36 -28 -64 -63 -64zM369 545c-35 0 -64 28 -64 64c0 35 28 63 64 63c35 0 64 -28 64 -63c0 -36 -29 -64 -64 -64zM479 332c0 -83 -49 -131 -166 -131l-159 -1c9 -74 55 -119 135 -119
c74 0 109 25 139 46c25 -17 45 -48 49 -77c-39 -31 -97 -65 -199 -65c-142 0 -241 88 -241 249c0 149 109 253 249 253c120 0 194 -70 193 -155zM154 279h149c43 0 62 22 62 54c0 37 -34 61 -82 61c-75 0 -121 -51 -129 -115z" />
    <glyph glyph-name="edotaccent.ss03" horiz-adv-x="518" 
d="M265 544c-41 0 -74 32 -74 72s33 72 74 72c39 0 72 -32 72 -72s-33 -72 -72 -72zM479 332c0 -83 -49 -131 -166 -131l-159 -1c9 -74 55 -119 135 -119c74 0 109 25 139 46c25 -17 45 -48 49 -77c-39 -31 -97 -65 -199 -65c-142 0 -241 88 -241 249c0 149 109 253 249 253
c120 0 194 -70 193 -155zM154 279h149c43 0 62 22 62 54c0 37 -34 61 -82 61c-75 0 -121 -51 -129 -115z" />
    <glyph glyph-name="egrave.ss03" horiz-adv-x="518" 
d="M368 562c-6 -20 -14 -34 -32 -45l-190 103c10 41 30 71 65 90zM479 332c0 -83 -49 -131 -166 -131l-159 -1c9 -74 55 -119 135 -119c74 0 109 25 139 46c25 -17 45 -48 49 -77c-39 -31 -97 -65 -199 -65c-142 0 -241 88 -241 249c0 149 109 253 249 253
c120 0 194 -70 193 -155zM154 279h149c43 0 62 22 62 54c0 37 -34 61 -82 61c-75 0 -121 -51 -129 -115z" />
    <glyph glyph-name="emacron.ss03" horiz-adv-x="518" 
d="M407 566h-283c-5 14 -6 28 -6 43s1 31 6 45h283c3 -14 5 -29 5 -44s-2 -30 -5 -44zM479 332c0 -83 -49 -131 -166 -131l-159 -1c9 -74 55 -119 135 -119c74 0 109 25 139 46c25 -17 45 -48 49 -77c-39 -31 -97 -65 -199 -65c-142 0 -241 88 -241 249
c0 149 109 253 249 253c120 0 194 -70 193 -155zM154 279h149c43 0 62 22 62 54c0 37 -34 61 -82 61c-75 0 -121 -51 -129 -115z" />
    <glyph glyph-name="eogonek.ss03" horiz-adv-x="518" 
d="M452 -94c18 -12 37 -36 37 -65c-21 -20 -58 -41 -115 -41c-55 0 -99 33 -99 85c0 39 22 74 48 102c-14 -1 -29 -2 -45 -2c-142 0 -241 88 -241 249c0 149 109 253 249 253c120 0 194 -70 193 -155c0 -83 -49 -131 -166 -131l-159 -1c9 -74 55 -119 135 -119
c74 0 109 25 139 46c25 -17 45 -48 49 -77c-9 -7 -19 -15 -31 -22c-42 -33 -79 -77 -79 -109c0 -24 17 -33 35 -33c21 0 39 12 50 20zM283 394c-75 0 -121 -51 -129 -115h149c43 0 62 22 62 54c0 37 -34 61 -82 61z" />
    <glyph glyph-name="g.ss03" horiz-adv-x="542" 
d="M530 488c-20 -50 -59 -77 -94 -90c25 -35 36 -73 34 -119c0 -45 -16 -87 -43 -122c40 -37 62 -85 62 -143c0 -129 -99 -214 -236 -214c-103 0 -177 45 -218 102c12 32 37 60 73 72c31 -42 73 -77 144 -77c86 0 126 51 126 116c0 34 -13 60 -34 80
c-28 -11 -59 -18 -93 -18c-141 0 -219 86 -219 205c0 125 106 206 230 206h77c54 0 86 6 109 56c36 -8 64 -27 82 -54zM142 282c-1 -69 41 -111 109 -111s109 51 110 109c0 37 -9 67 -29 109h-74c-63 0 -113 -33 -116 -107z" />
    <glyph glyph-name="gbreve.ss03" horiz-adv-x="542" 
d="M261 529c-108 0 -157 76 -157 149c24 10 48 12 76 9c9 -48 37 -77 83 -77c47 0 74 30 79 77c28 3 54 1 75 -9c0 -71 -49 -149 -156 -149zM530 488c-20 -50 -59 -77 -94 -90c25 -35 36 -73 34 -119c0 -45 -16 -87 -43 -122c40 -37 62 -85 62 -143
c0 -129 -99 -214 -236 -214c-103 0 -177 45 -218 102c12 32 37 60 73 72c31 -42 73 -77 144 -77c86 0 126 51 126 116c0 34 -13 60 -34 80c-28 -11 -59 -18 -93 -18c-141 0 -219 86 -219 205c0 125 106 206 230 206h77c54 0 86 6 109 56c36 -8 64 -27 82 -54zM142 282
c-1 -69 41 -111 109 -111s109 51 110 109c0 37 -9 67 -29 109h-74c-63 0 -113 -33 -116 -107z" />
    <glyph glyph-name="gcommaaccent.ss03" horiz-adv-x="542" 
d="M255 508c-16 0 -33 3 -46 9c-2 13 -3 26 -3 37c0 56 29 111 80 142c15 -2 32 -13 40 -30c-24 -31 -28 -68 -28 -91c0 -19 4 -40 10 -57c-13 -6 -33 -10 -53 -10zM530 488c-20 -50 -59 -77 -94 -90c25 -35 36 -73 34 -119c0 -45 -16 -87 -43 -122c40 -37 62 -85 62 -143
c0 -129 -99 -214 -236 -214c-103 0 -177 45 -218 102c12 32 37 60 73 72c31 -42 73 -77 144 -77c86 0 126 51 126 116c0 34 -13 60 -34 80c-28 -11 -59 -18 -93 -18c-141 0 -219 86 -219 205c0 125 106 206 230 206h77c54 0 86 6 109 56c36 -8 64 -27 82 -54zM142 282
c-1 -69 41 -111 109 -111s109 51 110 109c0 37 -9 67 -29 109h-74c-63 0 -113 -33 -116 -107z" />
    <glyph glyph-name="gdotaccent.ss03" horiz-adv-x="542" 
d="M261 544c-41 0 -74 32 -74 72s33 72 74 72c39 0 72 -32 72 -72s-33 -72 -72 -72zM530 488c-20 -50 -59 -77 -94 -90c25 -35 36 -73 34 -119c0 -45 -16 -87 -43 -122c40 -37 62 -85 62 -143c0 -129 -99 -214 -236 -214c-103 0 -177 45 -218 102c12 32 37 60 73 72
c31 -42 73 -77 144 -77c86 0 126 51 126 116c0 34 -13 60 -34 80c-28 -11 -59 -18 -93 -18c-141 0 -219 86 -219 205c0 125 106 206 230 206h77c54 0 86 6 109 56c36 -8 64 -27 82 -54zM142 282c-1 -69 41 -111 109 -111s109 51 110 109c0 37 -9 67 -29 109h-74
c-63 0 -113 -33 -116 -107z" />
    <glyph glyph-name="g.ss04" horiz-adv-x="535" 
d="M529 474c-19 -45 -56 -71 -90 -85c17 -29 25 -62 24 -102c-1 -97 -83 -181 -208 -181h-54c-28 0 -46 -18 -46 -43c0 -23 18 -41 46 -41h261c5 -17 7 -34 7 -51c0 -16 -2 -33 -7 -50h-257c-99 0 -158 39 -158 125c0 50 27 86 64 108c-38 31 -60 79 -60 135
c0 114 90 193 216 191l74 -2c57 -1 87 10 107 52c35 -10 63 -27 81 -56zM353 289c1 31 -1 57 -17 91l-72 1c-64 1 -103 -27 -103 -91c0 -58 31 -87 94 -87s96 33 98 86z" />
    <glyph glyph-name="gbreve.ss04" horiz-adv-x="535" 
d="M263 529c-108 0 -157 76 -157 149c24 10 48 12 76 9c9 -48 37 -77 83 -77c47 0 74 30 79 77c28 3 54 1 75 -9c0 -71 -49 -149 -156 -149zM529 474c-19 -45 -56 -71 -90 -85c17 -29 25 -62 24 -102c-1 -97 -83 -181 -208 -181h-54c-28 0 -46 -18 -46 -43
c0 -23 18 -41 46 -41h261c5 -17 7 -34 7 -51c0 -16 -2 -33 -7 -50h-257c-99 0 -158 39 -158 125c0 50 27 86 64 108c-38 31 -60 79 -60 135c0 114 90 193 216 191l74 -2c57 -1 87 10 107 52c35 -10 63 -27 81 -56zM353 289c1 31 -1 57 -17 91l-72 1c-64 1 -103 -27 -103 -91
c0 -58 31 -87 94 -87s96 33 98 86z" />
    <glyph glyph-name="gcommaaccent.ss04" horiz-adv-x="535" 
d="M256 508c-16 0 -33 3 -46 9c-2 13 -3 26 -3 37c0 56 29 111 80 142c15 -2 32 -13 40 -30c-24 -31 -28 -68 -28 -91c0 -19 4 -40 10 -57c-13 -6 -33 -10 -53 -10zM529 474c-19 -45 -56 -71 -90 -85c17 -29 25 -62 24 -102c-1 -97 -83 -181 -208 -181h-54
c-28 0 -46 -18 -46 -43c0 -23 18 -41 46 -41h261c5 -17 7 -34 7 -51c0 -16 -2 -33 -7 -50h-257c-99 0 -158 39 -158 125c0 50 27 86 64 108c-38 31 -60 79 -60 135c0 114 90 193 216 191l74 -2c57 -1 87 10 107 52c35 -10 63 -27 81 -56zM353 289c1 31 -1 57 -17 91l-72 1
c-64 1 -103 -27 -103 -91c0 -58 31 -87 94 -87s96 33 98 86z" />
    <glyph glyph-name="gdotaccent.ss04" horiz-adv-x="535" 
d="M262 544c-41 0 -74 32 -74 72s33 72 74 72c39 0 72 -32 72 -72s-33 -72 -72 -72zM529 474c-19 -45 -56 -71 -90 -85c17 -29 25 -62 24 -102c-1 -97 -83 -181 -208 -181h-54c-28 0 -46 -18 -46 -43c0 -23 18 -41 46 -41h261c5 -17 7 -34 7 -51c0 -16 -2 -33 -7 -50h-257
c-99 0 -158 39 -158 125c0 50 27 86 64 108c-38 31 -60 79 -60 135c0 114 90 193 216 191l74 -2c57 -1 87 10 107 52c35 -10 63 -27 81 -56zM353 289c1 31 -1 57 -17 91l-72 1c-64 1 -103 -27 -103 -91c0 -58 31 -87 94 -87s96 33 98 86z" />
    <glyph glyph-name="ordfeminine" unicode="&#xaa;" horiz-adv-x="385" 
d="M194 668c80 0 138 -35 138 -135v-162c-52 -21 -102 -31 -154 -31c-85 0 -134 38 -134 101c0 65 56 101 135 101c24 -1 46 -3 66 -10v15c0 33 -24 48 -63 48c-43 1 -77 -19 -91 -29c-20 11 -36 31 -39 56c24 19 75 46 142 46zM135 444c0 -28 24 -40 56 -40c20 0 38 3 54 8
v59c-15 7 -35 11 -55 11c-33 0 -55 -11 -55 -38z" />
    <glyph glyph-name="ordmasculine" unicode="&#xba;" horiz-adv-x="411" 
d="M204 340c-97 0 -165 61 -165 164s71 165 168 165s165 -61 165 -165c0 -101 -71 -164 -168 -164zM206 416c47 0 75 32 75 88c0 57 -28 89 -75 89s-76 -32 -76 -89c0 -56 29 -88 76 -88z" />
    <glyph glyph-name="zero" unicode="0" horiz-adv-x="613" 
d="M307 -16c-174 0 -260 142 -260 339c0 200 89 340 260 340c173 0 259 -143 259 -340s-89 -339 -259 -339zM307 85c104 0 140 99 140 238c0 138 -36 235 -140 235c-105 0 -141 -97 -141 -235c0 -139 36 -238 141 -238z" />
    <glyph glyph-name="one" unicode="1" horiz-adv-x="366" 
d="M241 655c14 0 29 -2 41 -5v-650c-19 -4 -38 -5 -57 -5c-18 0 -35 1 -54 5v512l-115 -53c-21 21 -41 58 -43 97l187 94c12 3 27 5 41 5z" />
    <glyph glyph-name="two" unicode="2" horiz-adv-x="530" 
d="M487 105c5 -15 7 -34 7 -51c0 -20 -3 -40 -7 -54h-438c-3 10 -5 23 -5 36c0 28 11 59 39 86c223 210 264 262 264 332c0 58 -35 100 -103 100s-110 -37 -140 -67c-38 11 -59 37 -72 69c41 57 119 107 216 107c122 0 217 -72 217 -206c0 -116 -99 -216 -242 -341l-20 -14
l24 2z" />
    <glyph glyph-name="three" unicode="3" horiz-adv-x="523" 
d="M52 645h401c4 -38 -7 -73 -28 -100l-118 -138c72 -10 169 -58 169 -196c0 -158 -116 -227 -245 -227c-99 0 -165 43 -194 73c10 36 32 65 66 85c35 -32 79 -57 128 -57c79 0 130 40 130 119c0 78 -42 122 -160 122h-43c-2 7 -3 12 -3 17c0 15 7 28 21 47l119 149h-243
c-4 18 -7 36 -7 54c1 17 3 35 7 52z" />
    <glyph glyph-name="four" unicode="4" horiz-adv-x="522" 
d="M499 193c0 -18 -2 -36 -6 -53h-71v-140c-17 -3 -35 -4 -52 -4c-18 0 -36 1 -54 4v140h-274c-28 50 -21 100 6 161l166 366c42 -5 74 -18 105 -37l-150 -338c-11 -24 -15 -35 -15 -50h162v161c18 3 36 4 54 4c17 0 35 -1 52 -4v-161h72c3 -16 5 -33 5 -49z" />
    <glyph glyph-name="five" unicode="5" horiz-adv-x="526" 
d="M236 -16c-96 0 -160 39 -188 64c8 37 28 69 57 87c18 -15 68 -51 134 -51c91 0 132 48 132 122c0 70 -42 113 -131 113c-59 0 -101 -24 -144 -24c-14 0 -25 3 -30 6v344h380c4 -18 6 -36 6 -54c0 -17 -2 -34 -5 -51h-277v-134c16 7 48 15 83 15c156 0 232 -78 232 -211
c0 -138 -89 -226 -249 -226z" />
    <glyph glyph-name="six" unicode="6" horiz-adv-x="542" 
d="M308 405c117 0 199 -72 199 -200c0 -135 -97 -222 -230 -222c-146 0 -232 98 -232 258c0 254 183 396 372 432c20 -18 32 -60 33 -100c-113 -23 -232 -74 -276 -211c36 26 78 43 134 43zM282 81c68 0 117 39 117 120c0 74 -58 105 -115 105s-95 -17 -127 -42
c-1 -9 -1 -18 -1 -27c0 -102 55 -156 126 -156z" />
    <glyph glyph-name="seven" unicode="7" horiz-adv-x="480" 
d="M454 642c4 -9 5 -21 5 -35c0 -28 -6 -64 -20 -92l-261 -538c-38 5 -76 23 -96 48l253 511h-307c-3 17 -5 36 -5 54c0 17 2 35 5 52h426z" />
    <glyph glyph-name="eight" unicode="8" horiz-adv-x="551" 
d="M398 338c60 -34 106 -80 106 -157c0 -146 -118 -197 -232 -197c-116 0 -226 42 -226 172c0 83 54 144 106 183c-51 32 -85 74 -86 144c0 107 83 180 210 180s209 -68 209 -170c0 -73 -44 -123 -87 -155zM276 572c-64 0 -103 -33 -103 -78c0 -53 51 -78 113 -105
c9 -3 17 -7 26 -11c43 32 68 62 68 108c0 57 -45 86 -104 86zM275 75c68 0 121 23 121 93c0 58 -59 85 -132 115c-11 5 -22 9 -32 14c-39 -29 -75 -74 -75 -130c0 -68 54 -92 118 -92z" />
    <glyph glyph-name="nine" unicode="9" horiz-adv-x="542" 
d="M260 663c152 0 234 -118 234 -316c0 -297 -163 -364 -377 -364c-9 17 -14 39 -14 62c0 12 2 24 4 36c141 3 250 9 273 187c-39 -30 -79 -44 -133 -44c-129 0 -214 75 -214 212c0 132 93 227 227 227zM140 438c0 -82 54 -117 117 -117c54 0 93 14 127 37
c-3 132 -50 204 -126 204c-69 0 -118 -46 -118 -124z" />
    <glyph glyph-name="zero.osf" horiz-adv-x="615" 
d="M308 -16c-171 0 -264 120 -264 283c0 164 94 283 264 283c171 0 263 -122 263 -283c0 -163 -94 -283 -263 -283zM308 85c101 0 144 76 144 182c0 104 -43 179 -144 179c-102 0 -144 -75 -144 -179c0 -106 42 -182 144 -182z" />
    <glyph glyph-name="one.osf" horiz-adv-x="344" 
d="M224 546c14 0 29 -2 41 -5v-541c-18 -4 -38 -5 -57 -5s-37 1 -56 5v407l-94 -44c-22 20 -41 57 -43 96l167 82c12 3 27 5 42 5z" />
    <glyph glyph-name="two.osf" horiz-adv-x="509" 
d="M468 101c5 -14 7 -33 7 -50c0 -18 -3 -38 -7 -51h-416c-3 10 -5 22 -5 35c0 34 14 65 70 107c177 136 208 169 208 229c0 42 -33 74 -91 74c-60 0 -101 -33 -131 -61c-38 11 -58 36 -71 70c41 50 117 97 203 97c118 0 206 -62 206 -176c0 -115 -81 -176 -196 -258
l-35 -20l38 4h220z" />
    <glyph glyph-name="three.osf" horiz-adv-x="494" 
d="M349 253c55 -22 104 -68 104 -161c0 -123 -110 -189 -228 -189c-102 0 -163 35 -198 69c7 35 28 66 60 83c43 -37 78 -55 135 -55c66 0 113 34 113 98c0 63 -39 99 -146 99c-5 14 -7 29 -7 45c0 14 2 30 8 43c90 0 120 36 120 89c0 45 -33 76 -86 76
c-59 0 -95 -25 -121 -49c-33 12 -53 34 -63 65c38 50 102 84 190 84c110 0 192 -60 192 -161c0 -65 -32 -109 -73 -136z" />
    <glyph glyph-name="four.osf" horiz-adv-x="557" 
d="M528 83c0 -17 -2 -35 -5 -52h-84v-125c-18 -3 -36 -4 -53 -4c-18 0 -36 1 -54 4v125h-302c-5 11 -9 26 -9 43c0 22 8 48 24 70l282 391c17 3 39 5 59 5c18 0 38 -2 53 -5v-406h85c2 -15 4 -30 4 -46zM151 129h181v230l1 28l-17 -27z" />
    <glyph glyph-name="five.osf" horiz-adv-x="509" 
d="M233 -97c-100 0 -161 37 -191 64c9 37 29 68 58 87c19 -18 67 -50 134 -50c80 0 121 40 121 107c0 70 -40 102 -181 102h-110v323h373c3 -19 5 -37 5 -56c0 -16 -1 -32 -4 -48h-268v-117h19c200 0 280 -65 280 -197c0 -135 -92 -215 -236 -215z" />
    <glyph glyph-name="six.osf" horiz-adv-x="531" 
d="M298 397c119 0 200 -72 200 -200c0 -130 -93 -213 -227 -213c-144 0 -231 92 -231 252c0 222 172 380 374 428c27 -18 38 -59 38 -98c-116 -30 -233 -85 -279 -209c34 24 75 40 125 40zM274 81c69 0 116 37 116 112c0 81 -61 107 -117 107c-54 0 -89 -19 -120 -44
c-1 -8 -1 -16 -1 -24c0 -97 54 -151 122 -151z" />
    <glyph glyph-name="seven.osf" horiz-adv-x="487" 
d="M460 535c3 -9 5 -21 5 -34c0 -28 -7 -64 -21 -91l-269 -523c-38 5 -76 22 -96 48l260 495h-308c-3 17 -5 35 -5 53c0 17 2 34 5 52h429z" />
    <glyph glyph-name="eight.osf" horiz-adv-x="523" 
d="M361 339c66 -39 117 -86 117 -167c0 -137 -111 -190 -218 -190c-110 0 -216 42 -216 164c0 83 60 143 116 179c-59 38 -104 87 -104 162c-1 103 83 178 208 178c119 0 200 -61 200 -166c0 -81 -54 -131 -103 -160zM261 573c-60 0 -97 -31 -97 -76c0 -56 50 -84 107 -113
c1 0 1 -1 2 -1c52 29 84 57 84 108s-39 82 -96 82zM261 72c58 0 107 23 107 81c0 66 -52 92 -118 124c-3 1 -6 3 -9 4c-44 -26 -85 -69 -85 -123c0 -59 50 -86 105 -86z" />
    <glyph glyph-name="nine.osf" horiz-adv-x="525" 
d="M250 550c149 0 231 -109 231 -280c0 -278 -171 -362 -375 -367c-9 18 -14 40 -14 62c0 12 1 24 3 36c136 6 240 32 266 182c-37 -28 -77 -42 -138 -42c-105 0 -194 70 -194 198c0 124 92 211 221 211zM138 342c0 -71 52 -103 107 -103c53 0 90 12 123 35
c-1 108 -50 176 -123 176c-63 0 -107 -40 -107 -108z" />
    <glyph glyph-name="zero.tf" horiz-adv-x="559" 
d="M280 -16c-163 0 -242 135 -242 337c0 205 82 337 242 337c163 0 241 -136 241 -337c0 -202 -81 -337 -241 -337zM280 83c87 0 117 96 117 238c0 140 -30 235 -117 235s-118 -95 -118 -235c0 -142 31 -238 118 -238z" />
    <glyph glyph-name="one.tf" horiz-adv-x="559" 
d="M500 99c3 -15 6 -30 6 -49c0 -16 -3 -32 -6 -50h-395c-4 17 -6 33 -6 49c0 18 2 34 6 50h149v411l-142 -63c-22 16 -42 57 -44 96l216 103c13 3 28 5 42 5c15 0 35 -2 42 -5v-547h132z" />
    <glyph glyph-name="two.tf" horiz-adv-x="559" 
d="M499 107c5 -16 8 -37 8 -55s-4 -39 -8 -52h-431c-3 10 -5 23 -5 36c0 28 12 58 40 86c201 210 253 265 253 329c0 61 -31 101 -99 101c-71 0 -108 -36 -138 -66c-37 13 -59 39 -72 73c44 52 123 99 218 99c121 0 212 -63 212 -193c0 -118 -100 -212 -227 -338l-25 -23
l37 3h237z" />
    <glyph glyph-name="three.tf" horiz-adv-x="559" 
d="M250 -16c-99 0 -166 38 -194 66c9 38 29 68 58 88c37 -30 84 -53 136 -53c81 0 132 41 132 122c0 78 -42 124 -165 124h-45c-1 7 -3 13 -3 20c0 18 9 35 29 59l114 129h-249c-4 19 -7 35 -7 54c0 17 3 35 7 52h411c1 -6 1 -11 1 -17c0 -32 -11 -61 -30 -83l-119 -134
c75 -10 172 -61 172 -196c0 -160 -116 -231 -248 -231z" />
    <glyph glyph-name="four.tf" horiz-adv-x="559" 
d="M517 206c0 -18 -2 -35 -6 -52h-70v-154c-17 -3 -35 -4 -53 -4s-37 1 -56 4v154h-271c-28 50 -18 98 7 160l156 352c42 -4 75 -16 106 -32l-144 -329c-10 -24 -15 -36 -15 -50h161v141c19 3 38 5 56 5s36 -2 53 -5v-141h71c3 -17 5 -33 5 -49z" />
    <glyph glyph-name="five.tf" horiz-adv-x="559" 
d="M257 -16c-101 0 -165 38 -193 62c8 38 28 70 57 89c18 -14 69 -48 135 -48c94 0 136 47 136 118c0 70 -42 112 -136 112c-59 0 -102 -24 -146 -24c-14 0 -25 2 -31 5v347h386c4 -18 6 -36 6 -53s-2 -35 -5 -52h-281v-132c17 6 51 14 85 14c156 0 235 -79 235 -214
c0 -136 -90 -224 -248 -224z" />
    <glyph glyph-name="six.tf" horiz-adv-x="559" 
d="M316 408c120 0 202 -72 202 -203c0 -137 -98 -222 -232 -222c-147 0 -234 99 -234 254c0 256 183 401 373 436c23 -23 32 -61 33 -101c-113 -24 -228 -73 -272 -206c36 25 78 42 130 42zM292 81c65 0 113 37 113 120c0 81 -57 108 -115 108c-53 0 -89 -16 -122 -38
c-1 -10 -1 -21 -1 -32c0 -99 50 -158 125 -158z" />
    <glyph glyph-name="seven.tf" horiz-adv-x="559" 
d="M508 642c5 -10 7 -23 7 -37c0 -28 -8 -62 -22 -90l-280 -537c-38 3 -78 23 -99 52l268 504h-321c-3 18 -5 37 -5 56c0 17 2 35 5 52h447z" />
    <glyph glyph-name="eight.tf" horiz-adv-x="559" 
d="M394 336c60 -37 104 -82 104 -162c0 -134 -102 -190 -221 -190c-114 0 -218 49 -218 172c0 82 55 144 105 182c-50 33 -85 74 -85 145c-1 107 80 180 203 180c122 0 198 -68 198 -170c0 -74 -45 -125 -86 -157zM279 572c-56 0 -90 -32 -90 -76c0 -52 43 -76 113 -110
l12 -6c36 31 57 60 57 108c0 55 -39 84 -92 84zM280 75c58 0 108 23 108 93c0 60 -54 84 -118 114c-9 4 -18 8 -26 13c-36 -29 -70 -73 -70 -127c0 -69 50 -93 106 -93z" />
    <glyph glyph-name="nine.tf" horiz-adv-x="559" 
d="M269 663c146 0 231 -105 231 -301c0 -295 -163 -379 -379 -379c-10 18 -15 40 -15 63c0 11 1 24 4 35c138 3 243 19 271 183c-36 -22 -75 -36 -122 -36c-128 0 -214 79 -214 211c0 133 96 224 224 224zM273 325c48 0 84 12 115 30v6c0 138 -47 202 -123 202
c-59 0 -110 -43 -110 -121c0 -81 64 -117 118 -117z" />
    <glyph glyph-name="fraction" unicode="&#x2044;" horiz-adv-x="556" 
d="M0 -47l471 712c28 6 57 6 85 0l-470 -712c-30 -7 -58 -7 -86 0z" />
    <glyph glyph-name="onehalf" unicode="&#xbd;" horiz-adv-x="774" 
d="M549 665c29 6 57 6 86 0l-470 -712c-31 -7 -59 -7 -86 0zM126 263v287l-68 -30c-15 14 -28 41 -31 69c92 46 118 57 155 57c13 0 26 -1 36 -4v-379c-16 -2 -32 -3 -46 -3c-16 0 -31 1 -46 3zM734 76c4 -9 5 -26 5 -39c0 -14 -2 -28 -5 -37h-275c-2 6 -3 13 -3 22
c0 17 7 36 24 53c107 109 145 148 145 186c0 25 -16 45 -50 45s-53 -16 -70 -34c-27 7 -44 24 -54 45c25 36 72 68 130 68c78 0 136 -42 136 -117c0 -63 -50 -118 -119 -183l-20 -12l29 3h127z" />
    <glyph glyph-name="onequarter" unicode="&#xbc;" horiz-adv-x="774" 
d="M542 665c28 6 57 6 86 0l-471 -712c-29 -7 -58 -7 -86 0zM126 264v288l-67 -30c-16 14 -29 41 -32 68c92 45 118 56 155 56c13 0 26 -1 36 -3v-379c-16 -2 -32 -3 -46 -3c-16 0 -31 1 -46 3zM744 99c0 -14 -1 -27 -3 -40h-33v-61c-14 -2 -28 -2 -42 -2s-29 0 -43 2v61
h-180c-14 28 -13 59 4 96l118 243c34 -1 59 -13 81 -32l-92 -200c-6 -14 -9 -21 -9 -30h78v97c14 2 29 3 43 3s28 -1 42 -3v-97h34c1 -12 2 -25 2 -37z" />
    <glyph glyph-name="threequarters" unicode="&#xbe;" horiz-adv-x="814" 
d="M593 665c28 6 57 6 86 0l-471 -712c-29 -7 -58 -7 -86 0zM165 328c44 0 71 23 71 61c0 41 -30 61 -84 61h-34c-2 3 -2 8 -2 13c0 8 3 18 8 26l64 79h-141c-3 15 -4 28 -4 42c0 12 1 24 4 35h262c3 -21 -3 -44 -16 -60l-68 -79c48 -7 100 -40 100 -114
c0 -93 -73 -137 -158 -137c-64 0 -109 27 -130 46c6 26 23 47 44 60c20 -16 46 -33 84 -33zM785 99c0 -14 -1 -27 -3 -40h-33v-61c-14 -2 -28 -2 -42 -2s-29 0 -43 2v61h-180c-14 28 -12 59 4 96l119 243c33 -1 58 -12 80 -30l-91 -202c-6 -14 -9 -21 -9 -30h77v97
c14 2 29 3 43 3s28 -1 42 -3v-97h34c1 -12 2 -25 2 -37z" />
    <glyph glyph-name="asterisk" unicode="*" horiz-adv-x="358" 
d="M225 547v-3l81 -34c-6 -33 -22 -57 -52 -72l-57 67c-2 -1 -5 -1 -7 -2l-7 -89c-33 -5 -60 4 -84 28l46 76c-2 2 -3 4 -4 6l-88 -21c-15 30 -15 59 0 89l88 -22c1 2 2 4 4 6l-48 78c24 24 51 33 85 28l6 -91c3 0 5 -1 8 -2l58 68c30 -15 47 -38 52 -71l-81 -33v-6z" />
    <glyph glyph-name="backslash" unicode="\" horiz-adv-x="544" 
d="M474 -190c-17 0 -34 2 -51 5l-400 830c18 3 34 5 51 5s33 -2 48 -5l400 -830c-16 -3 -31 -5 -48 -5z" />
    <glyph glyph-name="periodcentered" unicode="&#xb7;" horiz-adv-x="240" 
d="M120 265c-38 0 -69 31 -69 69s31 69 69 69s69 -31 69 -69s-31 -69 -69 -69z" />
    <glyph glyph-name="bullet" unicode="&#x2022;" horiz-adv-x="367" 
d="M184 158c-63 0 -114 50 -114 112c0 63 51 114 114 114c62 0 112 -51 112 -114c0 -62 -50 -112 -112 -112z" />
    <glyph glyph-name="colon" unicode=":" horiz-adv-x="269" 
d="M135 305c-43 0 -78 36 -78 79s35 78 78 78s78 -35 78 -78s-35 -79 -78 -79zM135 -17c-43 0 -78 36 -78 78c0 43 35 79 78 79s78 -36 78 -79c0 -42 -35 -78 -78 -78z" />
    <glyph glyph-name="comma" unicode="," horiz-adv-x="229" 
d="M77 -167c-18 0 -39 13 -45 29c25 44 32 89 32 146c0 36 -4 61 -13 87c19 8 42 12 66 12c16 0 35 -3 49 -9c5 -11 7 -30 7 -56c0 -90 -55 -172 -96 -209z" />
    <glyph glyph-name="ellipsis" unicode="&#x2026;" horiz-adv-x="591" 
d="M112 -14c-36 0 -65 29 -65 65c0 35 28 63 65 63c35 0 63 -28 63 -63c0 -36 -28 -65 -63 -65zM300 -14c-36 0 -65 29 -65 65c0 35 29 63 65 63c35 0 63 -28 63 -63c0 -36 -28 -65 -63 -65zM480 -14c-35 0 -64 29 -64 65c0 35 28 63 64 63c35 0 64 -28 64 -63
c0 -36 -29 -65 -64 -65z" />
    <glyph glyph-name="exclam" unicode="!" horiz-adv-x="259" 
d="M129 169c-11 0 -21 1 -32 4c-16 156 -27 308 -28 467c20 6 39 9 59 9c21 0 42 -3 62 -9c-1 -159 -11 -311 -29 -466c-10 -4 -21 -5 -32 -5zM129 -19c-37 0 -67 30 -67 67s30 67 67 67s67 -30 67 -67s-30 -67 -67 -67z" />
    <glyph glyph-name="exclamdown" unicode="&#xa1;" horiz-adv-x="248" 
d="M124 361c-37 0 -67 30 -67 67s30 67 67 67s67 -30 67 -67s-30 -67 -67 -67zM125 -173c-21 0 -42 3 -62 9c1 159 12 311 29 466c10 3 21 5 32 5s21 -1 32 -4c15 -156 27 -308 28 -467c-20 -6 -39 -9 -59 -9z" />
    <glyph glyph-name="numbersign" unicode="#" horiz-adv-x="670" 
d="M610 354h-82l-47 -141h89c0 -33 -10 -63 -30 -90h-89l-56 -170c-35 -8 -67 -8 -96 0l56 170h-146l-56 -170c-35 -8 -67 -8 -96 0l56 170h-84c-1 36 10 66 31 90h83l47 141h-90c-2 33 9 63 30 91h90l56 170c34 7 66 7 96 0l-56 -170h146l56 170c34 7 66 7 96 0l-56 -170
h82c1 -32 -9 -62 -30 -91zM385 213l47 141h-146l-47 -141h146z" />
    <glyph glyph-name="period" unicode="." horiz-adv-x="245" 
d="M122 -16c-42 0 -78 36 -78 79c0 42 36 78 78 78c44 0 78 -36 78 -78c0 -43 -34 -79 -78 -79z" />
    <glyph glyph-name="question" unicode="?" horiz-adv-x="427" 
d="M177 158c-10 0 -19 1 -28 2c-12 51 -20 102 -20 154h8c90 0 142 47 142 123c0 66 -45 109 -113 109c-43 0 -71 -13 -95 -27c-24 19 -39 45 -44 80c32 26 87 48 144 48c129 0 219 -79 219 -204c0 -108 -72 -184 -171 -208c-3 -25 -9 -50 -14 -74c-9 -2 -19 -3 -28 -3z
M178 -19c-37 0 -67 30 -67 67s30 67 67 67s67 -30 67 -67s-30 -67 -67 -67z" />
    <glyph glyph-name="questiondown" unicode="&#xbf;" horiz-adv-x="421" 
d="M245 364c-37 0 -67 29 -67 66c0 38 30 67 67 67s67 -29 67 -67c0 -37 -30 -66 -67 -66zM253 -169c-130 0 -220 79 -220 205c0 108 72 183 171 207c3 25 9 50 14 74c9 2 19 3 29 3c9 0 18 -1 27 -2c12 -51 20 -102 21 -154h-9c-90 0 -142 -47 -142 -122
c0 -67 45 -110 114 -110c42 0 70 13 94 28c24 -19 40 -46 44 -81c-32 -26 -86 -48 -143 -48z" />
    <glyph glyph-name="quotedbl" unicode="&#x22;" horiz-adv-x="322" 
d="M96 448c-7 0 -15 1 -26 3l-25 202c15 8 32 11 50 11c17 0 34 -3 50 -10l-26 -202c-7 -3 -15 -4 -23 -4zM229 448c-8 0 -15 1 -26 3l-26 202c15 8 33 11 51 11c17 0 34 -3 50 -10l-26 -202c-8 -3 -15 -4 -23 -4z" />
    <glyph glyph-name="quotesingle" unicode="'" horiz-adv-x="189" 
d="M96 448c-8 0 -15 1 -26 3l-26 202c15 8 33 11 51 11c17 0 34 -3 50 -10l-26 -202c-7 -3 -15 -4 -23 -4z" />
    <glyph glyph-name="semicolon" unicode=";" horiz-adv-x="274" 
d="M134 293c-43 0 -80 37 -80 80c0 45 37 81 80 81c45 0 81 -36 81 -81c0 -43 -36 -80 -81 -80zM104 -167c-18 0 -39 13 -45 29c25 44 32 89 32 146c0 36 -4 61 -12 87c18 8 41 12 66 12c15 0 35 -3 48 -9c5 -11 8 -30 8 -56c0 -90 -56 -172 -97 -209z" />
    <glyph glyph-name="slash" unicode="/" horiz-adv-x="554" 
d="M70 -190c-17 0 -32 2 -47 5l409 853c16 3 32 5 49 5s33 -2 50 -5l-409 -853c-18 -3 -35 -5 -52 -5z" />
    <glyph glyph-name="underscore" unicode="_" horiz-adv-x="445" 
d="M7 -115c-5 13 -7 26 -7 40s2 28 7 42h432c4 -13 6 -27 6 -41s-2 -28 -6 -41h-432z" />
    <glyph glyph-name="braceleft" unicode="{" horiz-adv-x="348" 
d="M280 -100h35c6 -30 6 -59 0 -89h-56c-103 0 -144 67 -144 148v177c0 46 -18 68 -62 68h-35c-5 17 -8 33 -8 50s3 37 8 51h42c39 0 55 21 55 65v177c0 81 41 148 144 148h56c6 -30 6 -59 0 -89h-35c-44 0 -62 -19 -62 -59v-184c0 -44 -15 -84 -51 -110
c36 -26 51 -66 51 -110v-184c0 -40 18 -59 62 -59z" />
    <glyph glyph-name="braceright" unicode="}" horiz-adv-x="348" 
d="M329 305c6 -14 8 -34 8 -51c0 -16 -2 -33 -8 -50h-35c-44 0 -62 -22 -62 -68v-177c0 -81 -41 -148 -144 -148h-56c-6 30 -6 59 0 89h35c44 0 62 19 62 59v184c0 44 15 84 51 110c-36 26 -51 66 -51 110v184c0 40 -18 59 -62 59h-35c-6 30 -6 59 0 89h56
c103 0 144 -67 144 -148v-177c0 -44 16 -65 56 -65h41z" />
    <glyph glyph-name="bracketleft" unicode="[" horiz-adv-x="311" 
d="M181 -100h98c6 -30 6 -59 0 -89h-199v884h199c6 -24 6 -65 0 -89h-98v-706z" />
    <glyph glyph-name="bracketright" unicode="]" horiz-adv-x="312" 
d="M33 695h199v-884h-199c-6 24 -6 65 0 89h97v706h-97c-6 30 -6 59 0 89z" />
    <glyph glyph-name="parenleft" unicode="(" horiz-adv-x="280" 
d="M162 -184c-79 135 -118 273 -119 437c1 164 40 302 119 437c26 6 72 -9 84 -33c-55 -113 -88 -244 -89 -404c1 -160 34 -291 89 -404c-17 -25 -57 -38 -84 -33z" />
    <glyph glyph-name="parenright" unicode=")" horiz-adv-x="280" 
d="M118 -184c-27 -5 -67 8 -83 33c55 113 88 244 89 404c-1 160 -34 291 -90 403c15 25 57 40 84 34c79 -135 118 -273 119 -437c-1 -164 -40 -302 -119 -437z" />
    <glyph glyph-name="emdash" unicode="&#x2014;" horiz-adv-x="1069" 
d="M67 208c-5 14 -7 27 -7 42c0 14 2 28 7 42h936c3 -14 5 -28 5 -42s-2 -28 -5 -42h-936z" />
    <glyph glyph-name="endash" unicode="&#x2013;" horiz-adv-x="570" 
d="M66 209c-5 13 -6 27 -6 41s1 27 6 41h438c4 -13 6 -27 6 -41s-2 -28 -6 -41h-438z" />
    <glyph glyph-name="hyphen" unicode="-" horiz-adv-x="390" 
d="M66 207c-5 13 -6 28 -6 43c0 14 1 29 6 43h258c4 -14 6 -28 6 -43s-2 -29 -6 -43h-258z" />
    <glyph glyph-name="guilsinglleft" unicode="&#x2039;" horiz-adv-x="283" 
d="M183 85l-150 168l148 171c23 -4 38 -15 48 -33l-79 -136l79 -139c-7 -15 -23 -27 -46 -31z" />
    <glyph glyph-name="guilsinglright" unicode="&#x203a;" horiz-adv-x="283" 
d="M101 85c-22 4 -39 16 -47 31l79 137l-80 138c9 18 24 29 46 33l150 -170z" />
    <glyph glyph-name="quotedblbase" unicode="&#x201e;" horiz-adv-x="378" 
d="M77 -125c-16 1 -36 12 -41 28c26 35 30 89 30 120c0 33 -5 58 -14 78c16 6 38 10 60 10c15 0 32 -1 45 -7c5 -12 8 -29 8 -55c0 -77 -49 -144 -88 -174zM235 -125c-15 1 -36 12 -41 28c27 35 31 89 31 120c0 33 -5 58 -14 78c15 6 36 10 60 10c14 0 32 -1 44 -7
c5 -12 8 -29 8 -55c0 -77 -49 -144 -88 -174z" />
    <glyph glyph-name="quotedblleft" unicode="&#x201c;" horiz-adv-x="372" 
d="M97 449c-14 0 -32 2 -44 7c-5 12 -8 30 -8 55c0 77 49 144 87 175c15 -1 37 -12 42 -28c-28 -36 -32 -90 -32 -120c0 -34 6 -59 15 -78c-15 -7 -37 -11 -60 -11zM255 449c-15 0 -32 2 -45 7c-5 12 -8 30 -8 55c0 77 50 144 89 175c15 -1 36 -12 41 -28
c-27 -36 -31 -90 -31 -120c0 -34 5 -59 14 -78c-16 -7 -37 -11 -60 -11z" />
    <glyph glyph-name="quotedblright" unicode="&#x201d;" horiz-adv-x="367" 
d="M83 446c-15 1 -36 12 -41 28c27 35 31 89 31 120c0 33 -5 58 -15 78c16 6 38 10 61 10c14 0 31 -1 44 -7c5 -12 8 -29 8 -55c0 -77 -50 -144 -88 -174zM242 446c-16 1 -37 12 -42 28c28 35 32 89 32 120c0 33 -6 58 -15 78c15 6 37 10 60 10c14 0 31 -1 44 -7
c5 -12 8 -29 8 -55c0 -77 -49 -144 -87 -174z" />
    <glyph glyph-name="quoteleft" unicode="&#x2018;" horiz-adv-x="215" 
d="M97 449c-14 0 -31 2 -44 7c-5 12 -8 30 -8 55c0 77 49 144 88 175c15 -1 36 -12 41 -28c-27 -36 -31 -90 -31 -120c0 -34 5 -59 15 -78c-16 -7 -38 -11 -61 -11z" />
    <glyph glyph-name="quoteright" unicode="&#x2019;" horiz-adv-x="208" 
d="M82 449c-15 1 -36 12 -41 28c27 35 31 90 31 120c0 33 -5 59 -14 78c16 7 37 11 60 11c14 0 31 -2 44 -7c5 -12 8 -30 8 -55c0 -77 -49 -144 -88 -175z" />
    <glyph glyph-name="quotesinglbase" unicode="&#x201a;" horiz-adv-x="221" 
d="M77 -125c-16 1 -37 12 -42 28c28 35 32 89 32 120c0 33 -6 58 -15 78c16 6 38 10 61 10c14 0 31 -1 44 -7c5 -12 8 -29 8 -55c0 -77 -49 -144 -88 -174z" />
    <glyph glyph-name="space" unicode=" " horiz-adv-x="224" 
 />
    <glyph glyph-name="uni00A0" unicode="&#xa0;" horiz-adv-x="224" 
 />
    <glyph glyph-name="cent" unicode="&#xa2;" horiz-adv-x="500" 
d="M462 134c-28 -28 -74 -58 -142 -64v-103c-9 -2 -21 -3 -33 -3s-25 1 -34 3v103c-128 14 -215 101 -215 241c0 133 88 225 215 240v105c9 2 21 3 34 3c12 0 24 -1 33 -3v-104c66 -7 115 -35 141 -62c-9 -31 -30 -59 -62 -76c-20 20 -46 35 -79 40v-286c42 6 66 26 84 42
c28 -16 49 -41 58 -76zM153 311c0 -66 32 -125 100 -141v282c-68 -16 -100 -75 -100 -141z" />
    <glyph glyph-name="currency" unicode="&#xa4;" horiz-adv-x="621" 
d="M554 327c0 -50 -15 -96 -40 -134l53 -55c-17 -30 -44 -58 -74 -75l-56 57c-36 -23 -80 -36 -126 -36s-90 13 -127 36l-55 -57c-31 18 -58 45 -75 75l54 56c-25 38 -40 84 -40 133c0 50 15 96 40 134l-54 56c17 30 43 57 75 74l56 -57c36 23 80 36 126 36s89 -13 126 -35
l56 56c30 -16 56 -43 74 -74l-54 -55c26 -39 41 -85 41 -135zM310 192c73 0 133 60 133 136s-59 136 -133 136s-132 -60 -132 -136s58 -136 132 -136z" />
    <glyph glyph-name="dollar" unicode="$" horiz-adv-x="526" 
d="M488 217c0 -119 -78 -179 -191 -189v-84c-9 -2 -21 -3 -33 -3s-23 1 -33 3v84c-98 7 -165 44 -194 70c7 37 29 66 58 82c26 -22 75 -48 136 -55v152c-107 11 -184 61 -184 160c-1 93 68 162 184 175v84c9 1 21 2 33 2s24 -1 33 -2v-83c78 -5 143 -34 177 -60
c-10 -34 -30 -64 -54 -81c-33 23 -74 38 -123 44v-139c118 -13 191 -66 191 -160zM149 452c0 -30 10 -52 82 -66v130c-55 -6 -82 -29 -82 -64zM297 125c57 7 86 34 86 73c0 32 -10 61 -86 73v-146z" />
    <glyph glyph-name="sterling" unicode="&#xa3;" horiz-adv-x="554" 
d="M508 104c4 -18 6 -36 6 -50c0 -18 -2 -36 -6 -54h-435c0 107 64 143 64 247v16h-93c-4 14 -6 28 -6 43c0 14 2 29 6 43h76c-10 30 -21 57 -21 107c0 108 84 205 227 205c85 0 140 -26 184 -61c-7 -40 -26 -71 -58 -90c-31 25 -74 45 -124 45c-76 0 -116 -45 -116 -101
c0 -47 12 -73 22 -105h148c4 -15 6 -29 6 -44c0 -14 -2 -28 -6 -42h-132v-17c0 -37 -19 -100 -43 -142h301z" />
    <glyph glyph-name="yen" unicode="&#xa5;" horiz-adv-x="587" 
d="M478 255h-129v-57h129c3 -11 4 -22 4 -33s-1 -22 -4 -33h-129v-132c-18 -4 -38 -5 -57 -5s-38 1 -58 5v132h-131c-3 11 -4 22 -4 33s1 22 4 33h131v57h-131c-3 11 -4 22 -4 33s1 22 4 33h108l-185 314c24 5 48 8 73 8c17 0 40 -1 54 -3l128 -231l16 -33l15 33l134 231
c17 3 34 3 51 3c22 0 44 -3 65 -8l-188 -314h104c3 -11 4 -22 4 -33s-1 -22 -4 -33z" />
    <glyph glyph-name="currency.osf" horiz-adv-x="610" 
d="M548 259c0 -49 -15 -95 -40 -134l54 -55c-17 -31 -44 -58 -75 -74l-55 56c-37 -23 -80 -36 -127 -36s-90 13 -127 36l-55 -56c-31 17 -57 44 -75 74l54 56c-25 38 -39 84 -39 133s15 96 40 134l-55 56c18 31 45 58 75 75l56 -57c37 22 80 35 126 35s90 -13 126 -35l56 57
c31 -16 57 -44 75 -75l-54 -55c25 -39 40 -85 40 -135zM304 124c73 0 133 60 133 136s-59 136 -133 136c-73 0 -132 -60 -132 -136s59 -136 132 -136z" />
    <glyph glyph-name="dollar.osf" horiz-adv-x="490" 
d="M456 167c0 -111 -72 -168 -175 -178v-104c-5 -1 -19 -2 -32 -2c-14 0 -28 1 -34 2v103c-91 7 -155 44 -183 70c8 38 30 66 58 82c25 -21 70 -47 125 -55v131c-101 10 -172 59 -173 152c0 90 65 150 173 162v98c6 1 20 2 33 2c14 0 28 -1 33 -2v-97c72 -5 130 -32 161 -57
c-4 -34 -24 -65 -54 -81c-29 21 -64 36 -107 41v-118c108 -12 175 -60 175 -149zM148 379c0 -24 8 -43 67 -54v109c-45 -7 -67 -28 -67 -55zM281 85c46 8 69 30 69 63c0 27 -8 52 -69 62v-125z" />
    <glyph glyph-name="sterling.osf" horiz-adv-x="516" 
d="M467 96c5 -15 7 -31 7 -43c0 -17 -2 -35 -7 -53h-398c0 84 40 122 41 220h-65c-4 13 -6 26 -6 39s2 26 6 39h58c-3 18 -5 37 -5 59c0 114 81 194 205 194c84 0 134 -29 169 -61c-8 -39 -30 -67 -65 -85c-25 25 -58 44 -99 44c-63 0 -98 -31 -98 -93c0 -19 3 -38 6 -58
h150c4 -13 7 -26 7 -40c0 -13 -3 -26 -7 -38h-144c-1 -34 -10 -88 -23 -124h268z" />
    <glyph glyph-name="yen.osf" horiz-adv-x="565" 
d="M457 205h-119v-52h119c3 -11 4 -22 4 -33s-1 -22 -4 -33h-119v-87c-18 -4 -38 -5 -57 -5s-38 1 -58 5v87h-121c-3 11 -4 22 -4 33s1 22 4 33h121v52h-121c-3 11 -4 22 -4 33s1 22 4 33h86l-164 259c24 5 47 9 73 9c20 0 47 -1 63 -4l116 -203l11 -23l10 23l124 203
c18 3 37 4 56 4c23 0 44 -4 66 -9l-166 -259h80c3 -11 4 -22 4 -33s-1 -22 -4 -33z" />
    <glyph glyph-name="approxequal" unicode="&#x2248;" horiz-adv-x="542" 
d="M115 249c-18 5 -46 24 -56 45c29 54 79 86 131 86c62 0 103 -43 161 -43c28 0 51 19 72 47c18 -4 48 -20 60 -46c-30 -55 -80 -88 -134 -88c-71 0 -109 43 -160 43c-28 0 -52 -10 -74 -44zM116 63c-19 6 -47 24 -57 45c29 54 79 86 131 86c62 0 103 -43 161 -43
c28 0 51 19 72 47c18 -4 48 -20 60 -45c-30 -56 -80 -89 -134 -89c-71 0 -109 44 -160 44c-28 0 -52 -11 -73 -45z" />
    <glyph glyph-name="asciitilde" unicode="~" horiz-adv-x="558" 
d="M135 158c-30 3 -60 15 -81 39c27 64 81 101 142 101c56 0 112 -36 161 -36c28 0 51 19 65 46c33 -2 63 -18 81 -41c-24 -65 -81 -102 -140 -102c-68 0 -119 36 -162 36c-29 0 -51 -18 -66 -43z" />
    <glyph glyph-name="divide" unicode="&#xf7;" horiz-adv-x="516" 
d="M258 326c-39 0 -71 31 -71 70s32 71 71 71s71 -32 71 -71s-32 -70 -71 -70zM48 198c-3 13 -5 27 -5 40s2 27 5 40h420c3 -13 5 -27 5 -40s-2 -27 -5 -40h-420zM258 10c-39 0 -71 32 -71 71c0 38 32 70 71 70s71 -32 71 -70c0 -39 -32 -71 -71 -71z" />
    <glyph glyph-name="equal" unicode="=" horiz-adv-x="559" 
d="M67 289c-3 14 -4 28 -4 42s1 28 4 42h424c3 -14 5 -28 5 -42s-2 -28 -5 -42h-424zM67 90c-3 14 -4 28 -4 42s1 28 4 42h424c3 -14 5 -28 5 -42s-2 -28 -5 -42h-424z" />
    <glyph glyph-name="greater" unicode="&#x3e;" horiz-adv-x="577" 
d="M538 295c5 -20 6 -41 6 -59c0 -19 -2 -38 -7 -57l-459 -178c-20 27 -30 57 -32 91l378 138l22 7l-22 5l-373 129c2 35 14 68 32 94z" />
    <glyph glyph-name="less" unicode="&#x3c;" horiz-adv-x="577" 
d="M153 230l377 -138c-1 -34 -12 -64 -31 -91l-459 178c-5 19 -7 38 -7 57c0 18 1 39 6 59l455 170c18 -26 29 -59 31 -94l-372 -129l-22 -5z" />
    <glyph glyph-name="minus" unicode="&#x2212;" horiz-adv-x="559" 
d="M68 196c-4 13 -5 28 -5 42s1 28 5 41h424c3 -13 5 -27 5 -41s-2 -29 -5 -42h-424z" />
    <glyph glyph-name="multiply" unicode="&#xd7;" horiz-adv-x="468" 
d="M419 370l-126 -126l126 -126c-15 -23 -36 -44 -60 -59l-125 126l-125 -125c-23 15 -45 36 -59 59l125 125l-125 125c15 23 35 44 59 59l125 -125l125 126c24 -15 45 -36 60 -59z" />
    <glyph glyph-name="notequal" unicode="&#x2260;" horiz-adv-x="559" 
d="M297 180h194c3 -13 5 -27 5 -41s-2 -28 -5 -42h-243l-69 -118c-23 6 -44 20 -61 38l47 80h-98c-3 14 -4 28 -4 42s1 28 4 41h147l64 109h-211c-3 14 -4 28 -4 42s1 28 4 42h261l61 104c24 -7 45 -19 61 -37l-39 -67h80c3 -14 5 -28 5 -42s-2 -28 -5 -42h-130z" />
    <glyph glyph-name="percent" unicode="%" horiz-adv-x="745" 
d="M181 340c-97 0 -151 64 -151 152s54 152 151 152c95 0 149 -64 149 -152s-54 -152 -149 -152zM103 -47l436 674c31 7 58 7 83 0l-437 -674c-31 -5 -59 -5 -82 0zM181 409c48 0 70 35 70 83c0 47 -22 83 -70 83c-50 0 -72 -36 -72 -83c0 -48 22 -83 72 -83zM565 -16
c-97 0 -151 64 -151 152s54 151 151 151c95 0 149 -63 149 -151s-54 -152 -149 -152zM565 53c49 0 70 35 70 83c0 47 -21 83 -70 83c-50 0 -72 -36 -72 -83c0 -48 22 -83 72 -83z" />
    <glyph glyph-name="perthousand" unicode="&#x2030;" horiz-adv-x="1107" 
d="M119 -47l436 674c30 6 57 6 83 0l-437 -674c-29 -7 -57 -7 -82 0zM181 300c-97 0 -151 64 -151 152s54 151 151 151c95 0 149 -63 149 -151s-54 -152 -149 -152zM181 369c49 0 70 35 70 83c0 47 -21 83 -70 83c-50 0 -72 -36 -72 -83c0 -48 22 -83 72 -83zM578 -16
c-96 0 -151 64 -151 152s55 151 151 151c95 0 150 -63 150 -151s-55 -152 -150 -152zM925 -16c-96 0 -150 64 -150 152s54 151 150 151c95 0 150 -63 150 -151s-55 -152 -150 -152zM578 53c49 0 70 35 70 83c0 47 -21 83 -70 83s-71 -36 -71 -83c0 -48 22 -83 71 -83z
M925 53c49 0 71 35 71 83c0 47 -22 83 -71 83s-71 -36 -71 -83c0 -48 22 -83 71 -83z" />
    <glyph glyph-name="plus" unicode="+" horiz-adv-x="505" 
d="M465 287c6 -27 6 -56 0 -83h-171v-171c-27 -6 -57 -6 -84 0v171h-170c-6 27 -6 57 0 83h170v171c27 6 57 6 84 0v-171h171z" />
    <glyph glyph-name="plusminus" unicode="&#xb1;" horiz-adv-x="541" 
d="M228 267h-169c-7 27 -7 57 0 84h169v135c28 6 57 6 85 0v-135h170c6 -27 6 -57 0 -84h-170v-138c-28 -7 -58 -7 -85 0v138zM59 60h424c6 -27 6 -56 0 -83h-424c-7 26 -7 56 0 83z" />
    <glyph glyph-name="bar" unicode="|" horiz-adv-x="242" 
d="M78 -180v875c27 7 62 6 86 0v-875c-24 -9 -61 -9 -86 0z" />
    <glyph glyph-name="brokenbar" unicode="&#xa6;" horiz-adv-x="241" 
d="M78 335v360c26 7 61 7 85 0v-360c-23 -9 -60 -9 -85 0zM78 -180v353c26 7 61 7 85 0v-353c-24 -9 -61 -9 -85 0z" />
    <glyph glyph-name="at" unicode="@" horiz-adv-x="867" 
d="M434 648c222 0 385 -146 385 -376c0 -148 -66 -222 -171 -222c-60 0 -90 25 -114 60c-33 -29 -69 -43 -117 -43c-109 0 -181 70 -181 193c0 115 86 203 208 203c65 0 120 -17 159 -45v-221c0 -38 14 -61 54 -61c33 0 66 26 66 136c0 155 -118 286 -289 286
c-160 0 -293 -119 -293 -300c0 -168 118 -291 278 -291c51 0 92 11 134 31c15 -12 32 -53 32 -83c-41 -22 -102 -38 -166 -38c-221 0 -377 157 -377 381c0 231 181 390 392 390zM427 153c31 0 60 10 81 32v177c-19 9 -41 14 -65 14c-63 0 -109 -44 -109 -114
c0 -71 39 -109 93 -109z" />
    <glyph glyph-name="ampersand" unicode="&#x26;" horiz-adv-x="621" 
d="M599 335c0 -16 -2 -31 -7 -46h-93v-237c-49 -36 -125 -66 -212 -66c-135 0 -242 56 -242 190c0 81 42 135 107 163c-48 28 -78 74 -78 139c0 102 79 174 197 174c86 0 139 -23 173 -51c-6 -36 -27 -66 -53 -83c-34 23 -65 35 -111 35c-58 0 -95 -30 -95 -85
c0 -54 35 -87 121 -87h285c6 -13 8 -31 8 -46zM393 108v181h-101c-84 0 -130 -34 -130 -102c0 -62 43 -102 126 -102c40 0 74 7 105 23z" />
    <glyph glyph-name="paragraph" unicode="&#xb6;" horiz-adv-x="618" 
d="M303 656c77 0 171 -11 228 -29v-813c-19 -5 -37 -6 -55 -6s-35 1 -53 6v401c-38 -4 -79 -7 -124 -7c-174 0 -272 92 -272 224c0 135 92 224 276 224zM300 308c48 0 89 2 123 6v233c-39 6 -81 10 -122 10c-105 0 -155 -43 -155 -124c0 -73 49 -125 154 -125zM235 137
c17 3 35 5 54 5c17 0 35 -1 52 -5v-323c-16 -4 -34 -6 -52 -6c-19 0 -38 2 -54 6v323z" />
    <glyph glyph-name="copyright" unicode="&#xa9;" horiz-adv-x="760" 
d="M381 -37c-191 0 -338 150 -338 345s147 346 338 346c189 0 335 -151 335 -346s-146 -345 -335 -345zM381 31c145 0 265 121 265 277c0 158 -120 276 -265 276c-149 0 -267 -118 -267 -276c0 -156 118 -277 267 -277zM391 107c-120 0 -199 74 -199 200
c0 121 85 200 199 200c57 0 108 -22 131 -45c-6 -28 -25 -54 -50 -70c-19 17 -44 30 -81 30c-71 0 -105 -51 -105 -114c0 -64 33 -116 105 -116c45 0 69 16 85 30c23 -13 41 -36 48 -67c-25 -24 -71 -48 -133 -48z" />
    <glyph glyph-name="registered" unicode="&#xae;" horiz-adv-x="759" 
d="M381 758c185 0 335 -151 335 -347s-150 -346 -335 -346c-188 0 -338 150 -338 346s150 347 338 347zM381 134c148 0 266 122 266 277c0 156 -118 276 -266 276c-151 0 -267 -120 -267 -276c0 -155 116 -277 267 -277zM532 492c0 -57 -33 -95 -79 -115l94 -161
c-12 -3 -24 -5 -40 -5c-12 0 -30 0 -40 1l-88 151c-21 0 -44 1 -66 3v-152c-10 -3 -19 -3 -29 -3c-14 0 -28 0 -44 3v386c39 9 93 14 139 14c107 0 153 -48 153 -122zM313 543v-108c23 -3 45 -3 67 -3c59 0 75 26 75 59c0 35 -20 56 -75 56c-21 0 -44 -1 -67 -4z" />
    <glyph glyph-name="section" unicode="&#xa7;" horiz-adv-x="569" 
d="M256 110l-130 116c-47 42 -92 110 -92 193c0 140 112 246 251 246c81 0 149 -25 207 -73c-5 -36 -29 -71 -66 -86c-44 36 -83 52 -139 52c-79 0 -145 -61 -145 -142c0 -46 23 -86 59 -117l126 -113c-14 -36 -37 -62 -71 -76zM284 -122c-82 0 -150 25 -207 74
c6 36 30 71 66 86c44 -36 84 -52 140 -52c80 0 144 60 144 141c0 48 -22 88 -57 120l-126 112c13 38 36 63 71 77l130 -116c45 -43 91 -111 91 -196c0 -139 -113 -246 -252 -246z" />
    <glyph glyph-name="trademark" unicode="&#x2122;" horiz-adv-x="777" 
d="M649 668c19 0 37 -1 58 -4v-356c-16 -2 -30 -3 -44 -3c-11 0 -25 1 -38 3v142l5 62l-66 -160c-16 -4 -28 -4 -40 -4c-14 0 -25 0 -42 4l-68 161l5 -63v-142c-12 -2 -28 -3 -39 -3c-15 0 -27 1 -43 3v356c15 2 38 4 55 4c9 0 30 -1 41 -2l86 -196l8 -26l7 26l80 196
c12 1 25 2 35 2zM35 665h279c2 -14 3 -25 3 -39c0 -12 -1 -26 -3 -38h-95v-281c-15 -2 -27 -3 -43 -3s-28 1 -43 3v281h-98c-2 12 -3 26 -3 38c0 14 1 25 3 39z" />
    <glyph glyph-name="degree" unicode="&#xb0;" horiz-adv-x="331" 
d="M165 427c-70 0 -128 57 -128 129c0 70 58 127 128 127c71 0 129 -57 129 -127c0 -72 -58 -129 -129 -129zM166 493c34 0 63 29 63 62c0 36 -29 63 -63 63s-63 -27 -63 -63c0 -33 29 -62 63 -62z" />
    <glyph glyph-name="dagger" unicode="&#x2020;" horiz-adv-x="500" 
d="M453 493c0 -17 -2 -36 -6 -54l-147 10v-607c-15 -4 -34 -6 -51 -6s-35 2 -51 6v607l-145 -10c-4 17 -6 36 -6 53s2 36 6 53l145 -10v185c17 3 34 5 51 5s35 -2 51 -5v-185l147 10c4 -14 6 -33 6 -52z" />
    <glyph glyph-name="daggerdbl" unicode="&#x2021;" horiz-adv-x="500" 
d="M300 112l147 10c4 -15 6 -34 6 -52c0 -17 -2 -36 -6 -54l-147 10v-184c-15 -4 -34 -6 -51 -6s-35 2 -51 6v184l-145 -10c-4 17 -6 35 -6 53c0 17 2 36 6 53l145 -10v337l-145 -10c-4 17 -6 36 -6 53s2 36 6 53l145 -10v185c17 3 34 5 51 5s35 -2 51 -5v-185l147 10
c4 -14 6 -33 6 -52c0 -17 -2 -36 -6 -54l-147 10v-337z" />
    <glyph glyph-name="ampersand.ss02" horiz-adv-x="646" 
d="M490 144l129 -138c-12 -6 -32 -10 -58 -12c-17 -1 -40 -2 -56 0l-62 64c-41 -46 -103 -73 -181 -73c-140 0 -224 75 -224 194c0 88 49 150 115 183c-33 37 -54 72 -54 126c0 92 77 162 182 162c75 0 122 -24 157 -53c-8 -31 -27 -60 -57 -77c-30 26 -59 39 -95 39
c-48 0 -82 -28 -82 -70c0 -29 14 -55 54 -97l147 -157v148h200c8 -26 8 -61 0 -87h-106v-89c-1 -22 -4 -43 -9 -63zM272 83c45 0 84 16 107 42l-161 168c-45 -19 -68 -60 -68 -106c0 -59 41 -104 122 -104z" />
    <glyph glyph-name="gravecomb" unicode="&#x300;" 
d="M-53 517l-190 103c10 41 30 71 65 90l157 -148c-6 -20 -14 -34 -32 -45z" />
    <glyph glyph-name="acutecomb" unicode="&#x301;" 
d="M-207 517c-18 12 -27 25 -32 46l157 147c35 -19 54 -49 65 -90z" />
    <glyph glyph-name="caroncomb.alt" 
d="M-96 511c-16 2 -32 9 -42 24c17 37 20 79 20 107c0 21 -4 50 -12 69c13 7 32 11 51 11c16 0 34 -3 46 -10c4 -16 5 -28 5 -43c0 -60 -28 -123 -68 -158z" />
    <glyph glyph-name="tildecomb" unicode="&#x303;" 
d="M-301 546c-25 0 -64 10 -80 28c14 68 61 108 119 108c51 -1 95 -40 126 -39c23 0 39 16 47 42c29 0 59 -10 79 -27c-15 -66 -62 -105 -116 -105c-52 0 -96 38 -127 38c-25 0 -40 -17 -48 -45z" />
    <glyph glyph-name="gravecomb.case" 
d="M-42 676l-210 75c0 43 16 75 51 98l183 -127c-3 -20 -10 -35 -24 -46z" />
    <glyph glyph-name="acutecomb.case" 
d="M-233 676c-13 11 -21 26 -23 46l183 127c35 -23 50 -55 51 -98z" />
    <glyph glyph-name="tildecomb.case" 
d="M-311 688c-25 0 -63 10 -79 28c14 67 61 106 120 106c54 0 99 -38 131 -38c25 0 41 17 47 43c30 0 62 -10 79 -27c-14 -67 -62 -106 -117 -106c-53 0 -100 36 -132 36c-26 0 -43 -16 -49 -42z" />
    <glyph glyph-name="acute" unicode="&#xb4;" horiz-adv-x="256" 
d="M54 517c-18 12 -27 25 -32 46l157 147c35 -19 54 -49 65 -90z" />
    <glyph glyph-name="breve" unicode="&#x2d8;" horiz-adv-x="356" 
d="M178 529c-108 0 -157 76 -157 149c24 10 48 12 76 9c9 -48 37 -77 83 -77c47 0 74 30 79 77c28 3 54 1 75 -9c0 -71 -49 -149 -156 -149z" />
    <glyph glyph-name="caron" unicode="&#x2c7;" horiz-adv-x="338" 
d="M135 531l-109 114c5 22 22 45 47 55l99 -79l101 79c22 -8 40 -28 47 -51l-116 -118c-23 -5 -46 -5 -69 0z" />
    <glyph glyph-name="cedilla" unicode="&#xb8;" horiz-adv-x="252" 
d="M106 11h67l-17 -48c40 -8 76 -27 76 -73c0 -75 -72 -94 -122 -94c-31 0 -68 10 -83 21c1 24 12 46 26 59c14 -9 29 -14 46 -14c22 0 39 9 39 29c0 26 -27 33 -65 34z" />
    <glyph glyph-name="circumflex" unicode="&#x2c6;" horiz-adv-x="339" 
d="M207 693l111 -114c-6 -22 -24 -45 -48 -55l-101 80l-98 -79c-22 8 -40 27 -47 50l114 118c23 5 46 5 69 0z" />
    <glyph glyph-name="dieresis" unicode="&#xa8;" horiz-adv-x="378" 
d="M85 545c-36 0 -65 28 -65 64c0 35 28 63 65 63c35 0 63 -28 63 -63c0 -36 -28 -64 -63 -64zM293 545c-35 0 -64 28 -64 64c0 35 28 63 64 63c35 0 64 -28 64 -63c0 -36 -29 -64 -64 -64z" />
    <glyph glyph-name="dotaccent" unicode="&#x2d9;" horiz-adv-x="232" 
d="M117 544c-41 0 -74 32 -74 72s33 72 74 72c39 0 72 -32 72 -72s-33 -72 -72 -72z" />
    <glyph glyph-name="grave" unicode="`" horiz-adv-x="268" 
d="M214 517l-190 103c10 41 30 71 65 90l157 -148c-6 -20 -14 -34 -32 -45z" />
    <glyph glyph-name="hungarumlaut" unicode="&#x2dd;" horiz-adv-x="353" 
d="M55 519c-19 7 -32 15 -41 32l88 163c39 -6 61 -24 79 -58zM213 519c-20 7 -32 15 -41 33l91 161c38 -7 60 -25 77 -59z" />
    <glyph glyph-name="macron" unicode="&#xaf;" horiz-adv-x="340" 
d="M29 566c-5 14 -6 28 -6 43s1 31 6 45h283c3 -14 5 -29 5 -44s-2 -30 -5 -44h-283z" />
    <glyph glyph-name="ogonek" unicode="&#x2db;" horiz-adv-x="277" 
d="M130 -200c-55 0 -99 33 -99 85c0 64 57 116 99 147h77c-44 -34 -84 -80 -84 -113c0 -24 17 -33 35 -33c21 0 39 12 50 20c18 -12 37 -36 37 -65c-21 -20 -58 -41 -115 -41z" />
    <glyph glyph-name="ring" unicode="&#x2da;" horiz-adv-x="254" 
d="M128 506c-60 0 -109 48 -109 108c0 59 49 107 109 107c58 0 107 -48 107 -107c0 -60 -49 -108 -107 -108zM127 571c25 0 42 20 42 42c0 24 -17 44 -42 44c-23 0 -41 -20 -41 -44c0 -22 18 -42 41 -42z" />
    <glyph glyph-name="tilde" unicode="&#x2dc;" horiz-adv-x="392" 
d="M91 546c-24 0 -64 10 -80 28c15 68 61 108 119 108c52 -1 95 -40 126 -39c24 0 40 16 47 42c29 0 60 -10 79 -27c-15 -66 -61 -105 -116 -105c-51 0 -96 38 -126 38c-26 0 -41 -17 -49 -45z" />
    <glyph glyph-name="acute.case" horiz-adv-x="272" 
d="M40 676c-13 11 -21 26 -23 46l183 127c35 -23 50 -55 51 -98z" />
    <glyph glyph-name="breve.case" horiz-adv-x="361" 
d="M181 686c-100 0 -155 66 -155 136c23 9 47 11 73 8c10 -41 45 -60 84 -60c40 0 75 20 80 60c26 3 50 1 71 -8c0 -67 -55 -136 -153 -136z" />
    <glyph glyph-name="caron.case" horiz-adv-x="350" 
d="M141 692l-117 93c5 23 17 41 36 54l119 -68l111 68c17 -10 30 -29 35 -52l-116 -95c-23 -6 -46 -6 -68 0z" />
    <glyph glyph-name="circumflex.case" horiz-adv-x="348" 
d="M59 685c-17 11 -31 29 -35 53l116 94c22 6 45 6 68 0l117 -92c-5 -24 -17 -42 -36 -55l-119 68z" />
    <glyph glyph-name="dieresis.case" horiz-adv-x="378" 
d="M84 700c-36 0 -64 28 -64 63s28 63 64 63c34 0 62 -28 62 -63s-28 -63 -62 -63zM295 700c-35 0 -64 28 -64 63s28 63 64 63c34 0 63 -28 63 -63s-29 -63 -63 -63z" />
    <glyph glyph-name="dotaccent.case" horiz-adv-x="203" 
d="M102 692c-40 0 -72 31 -72 71s32 71 72 71c39 0 71 -31 71 -71s-32 -71 -71 -71z" />
    <glyph glyph-name="grave.case" horiz-adv-x="276" 
d="M231 676l-210 75c0 43 16 75 51 98l183 -127c-3 -20 -10 -35 -24 -46z" />
    <glyph glyph-name="hungarumlaut.case" horiz-adv-x="384" 
d="M55 664c-19 8 -30 18 -38 36l105 144c36 -7 62 -30 73 -66zM227 664c-19 8 -30 18 -38 36l105 144c36 -7 62 -30 73 -66z" />
    <glyph glyph-name="macron.case" horiz-adv-x="345" 
d="M28 718c-3 13 -6 27 -6 41s3 28 6 42h289c4 -13 6 -27 6 -42c0 -14 -2 -28 -6 -41h-289z" />
    <glyph glyph-name="ring.case" horiz-adv-x="254" 
d="M128 658c-60 0 -108 48 -108 107c0 60 48 108 108 108c58 0 106 -48 106 -108c0 -59 -48 -107 -106 -107zM127 723c24 0 40 20 40 42c0 23 -16 43 -40 43s-40 -20 -40 -43c0 -22 16 -42 40 -42z" />
    <glyph glyph-name="tilde.case" horiz-adv-x="400" 
d="M89 688c-25 0 -63 10 -79 28c14 67 61 106 120 106c54 0 99 -38 131 -38c25 0 41 17 47 43c30 0 62 -10 79 -27c-14 -67 -62 -106 -117 -106c-53 0 -100 36 -132 36c-26 0 -43 -16 -49 -42z" />
    <glyph glyph-name="dotlessj" unicode="&#xf6be;" horiz-adv-x="257" 
d="M20 -198c-55 0 -101 18 -124 40c3 28 25 63 53 78c17 -12 36 -22 58 -22c42 0 70 24 70 83v491c19 4 37 5 56 5s39 -1 58 -5v-488c0 -123 -83 -182 -171 -182z" />
    <glyph glyph-name="IJacute" horiz-adv-x="537" 
d="M54 668c-14 10 -22 25 -26 45l177 133c35 -22 52 -53 55 -96zM322 668c-14 10 -23 25 -26 45l177 133c35 -22 52 -53 55 -96zM130 103c-20 0 -38 2 -59 5v533c19 5 39 7 57 7c19 0 38 -2 58 -7v-533c-18 -3 -37 -5 -56 -5zM268 -107c-69 0 -119 32 -142 57
c8 40 32 72 63 87c9 -10 37 -39 76 -39c50 0 80 25 80 88v555c18 5 39 6 58 6s38 -1 58 -6v-554c0 -127 -81 -194 -193 -194z" />
    <glyph glyph-name="ijacute" horiz-adv-x="496" 
d="M55 517c-17 11 -25 24 -31 43l156 150c35 -19 55 -49 65 -90zM296 517c-17 11 -25 24 -30 43l156 150c35 -19 54 -49 65 -90zM122 -5c-18 0 -37 1 -56 5v473c19 4 37 5 56 5s38 -1 57 -5v-473c-18 -4 -38 -5 -57 -5zM250 -198c-54 0 -95 16 -122 42c7 30 26 61 53 77
c16 -14 36 -24 63 -24c44 0 73 26 73 88v487c19 4 37 5 56 5c18 0 38 -1 57 -5v-485c0 -124 -83 -185 -180 -185z" />
    <glyph glyph-name="slashlong" horiz-adv-x="578" 
d="M89 -30c-22 7 -39 24 -47 47l439 485c21 -8 39 -23 47 -43z" />
    <glyph glyph-name="slashshort" horiz-adv-x="298" 
d="M42 254c-20 16 -32 43 -34 68l251 130c18 -18 30 -43 33 -69z" />
    <glyph glyph-name="stroke" horiz-adv-x="334" 
d="M30 443c-4 11 -6 24 -6 37s2 26 6 39h274c4 -12 6 -25 6 -38s-2 -26 -6 -38h-274z" />
    <glyph glyph-name="caronalt" horiz-adv-x="161" 
d="M65 511c-16 2 -32 9 -42 24c17 37 20 79 20 107c0 21 -4 50 -12 69c13 7 32 11 51 11c16 0 34 -3 46 -10c4 -16 5 -28 5 -43c0 -60 -28 -123 -68 -158z" />
    <glyph glyph-name="slashlong.case" horiz-adv-x="700" 
d="M87 -32c-33 10 -57 34 -68 65l592 646c31 -10 55 -32 68 -61z" />
    <glyph glyph-name="slashshort.case" horiz-adv-x="339" 
d="M57 248c-18 14 -34 48 -36 72l263 137c17 -17 33 -49 35 -73z" />
    <glyph glyph-name="uni01EA" unicode="&#x1ea;" horiz-adv-x="736" 
d="M525 22c-39 -33 -71 -73 -71 -103c0 -24 17 -33 35 -33c21 0 39 12 50 20c18 -12 37 -36 37 -65c-21 -20 -58 -41 -115 -41c-55 0 -99 33 -99 85c0 39 21 73 47 101c-13 -1 -27 -2 -41 -2c-191 0 -328 140 -328 338c0 195 137 339 328 339s328 -139 328 -339
c0 -134 -66 -245 -171 -300zM162 322c0 -137 81 -232 206 -232s206 95 206 232c0 140 -81 233 -206 233s-206 -93 -206 -233z" />
    <glyph glyph-name="uni1E9E" unicode="&#x1e9e;" horiz-adv-x="646" 
d="M469 370c89 -51 148 -91 148 -198c0 -119 -87 -188 -195 -188c-88 0 -146 34 -173 63c7 40 30 70 60 89c28 -27 63 -48 112 -48c54 0 82 32 82 73c0 37 -11 62 -86 103c-65 37 -129 75 -129 162c0 50 23 88 61 114c-20 -2 -34 -2 -45 -2c-66 0 -118 -34 -118 -109v-429
c-18 -4 -36 -5 -55 -5c-20 0 -39 1 -59 5v427c0 133 96 215 232 215h219c4 -16 6 -33 6 -49c0 -19 -2 -39 -6 -57c-77 -4 -116 -37 -116 -86c0 -31 13 -51 62 -80z" />
    <glyph glyph-name="uni0162" unicode="&#x162;" horiz-adv-x="543" 
d="M328 -1c-8 -1 -16 -3 -25 -4l-11 -32c40 -8 76 -27 76 -73c0 -75 -72 -94 -122 -94c-31 0 -68 10 -83 21c1 24 12 46 26 59c14 -9 29 -14 46 -14c22 0 39 9 39 29c0 26 -27 33 -65 34l27 71l-21 3v541h-195c-4 17 -6 34 -6 51s2 34 6 51h502c4 -17 6 -34 6 -51
s-2 -33 -6 -51h-194v-541z" />
    <glyph glyph-name="uni021A" unicode="&#x21a;" horiz-adv-x="543" 
d="M528 591c0 -17 -2 -33 -6 -51h-194v-541c-19 -3 -37 -6 -57 -6c-18 0 -37 3 -56 6v541h-195c-4 17 -6 34 -6 51s2 34 6 51h502c4 -17 6 -34 6 -51zM277 -37c16 0 33 -3 46 -9c2 -13 3 -26 3 -37c0 -56 -29 -111 -80 -142c-15 2 -32 13 -40 30c24 31 28 68 28 91
c0 19 -4 40 -10 57c13 6 33 10 53 10z" />
    <glyph glyph-name="uni1EF8" unicode="&#x1ef8;" horiz-adv-x="597" 
d="M189 688c-25 0 -63 10 -79 28c14 67 61 106 120 106c54 0 99 -38 131 -38c25 0 41 17 47 43c30 0 62 -10 79 -27c-14 -67 -62 -106 -117 -106c-53 0 -100 36 -132 36c-26 0 -43 -16 -49 -42zM588 640l-233 -399v-241c-19 -4 -38 -6 -57 -6s-37 2 -57 6v247l-235 392
c25 6 50 10 77 10c17 0 37 -2 52 -4l149 -255l19 -42l19 42l146 255c16 3 34 4 51 4c24 0 47 -4 69 -9z" />
    <glyph glyph-name="i.loclTRK" horiz-adv-x="245" 
d="M123 545c-41 0 -74 32 -74 72s33 72 74 72c39 0 72 -32 72 -72s-33 -72 -72 -72zM123 -5c-18 0 -38 1 -57 5v473c19 4 38 5 57 5c18 0 38 -1 56 -5v-473c-18 -4 -37 -5 -56 -5z" />
    <glyph glyph-name="uni01EB" unicode="&#x1eb;" horiz-adv-x="576" 
d="M434 -94c18 -12 37 -36 37 -65c-21 -20 -58 -41 -115 -41c-55 0 -99 33 -99 85c0 38 21 73 46 100h-17c-146 0 -249 103 -249 251c0 147 107 252 253 252s249 -104 249 -252c0 -98 -49 -178 -125 -220c-36 -31 -65 -69 -65 -97c0 -24 17 -33 35 -33c21 0 39 12 50 20z
M151 236c0 -90 52 -152 137 -152s137 62 137 152c0 91 -52 154 -137 154s-137 -63 -137 -154z" />
    <glyph glyph-name="uni0163" unicode="&#x163;" horiz-adv-x="428" 
d="M279 -37c40 -8 76 -27 76 -73c0 -75 -72 -94 -122 -94c-31 0 -68 10 -83 21c1 24 12 46 26 59c14 -9 29 -14 46 -14c22 0 39 9 39 29c0 26 -27 33 -65 34l26 67c-72 15 -120 63 -120 154v229h-81c-3 15 -4 30 -4 47c0 15 1 30 4 45h81v126c19 4 38 5 57 5s37 -1 55 -5
v-126h177c4 -15 5 -30 5 -45c0 -16 -1 -31 -5 -47h-177v-203c0 -70 33 -88 80 -88c34 0 64 18 79 32c24 -16 44 -48 48 -79c-28 -24 -73 -49 -134 -51z" />
    <glyph glyph-name="uni021B" unicode="&#x21b;" horiz-adv-x="428" 
d="M421 37c-29 -25 -77 -51 -142 -51c-102 0 -177 46 -177 160v229h-81c-3 15 -4 30 -4 47c0 15 1 30 4 45h81v126c19 4 38 5 57 5s37 -1 55 -5v-126h177c4 -15 5 -30 5 -45c0 -16 -1 -31 -5 -47h-177v-203c0 -70 33 -88 80 -88c34 0 64 18 79 32c24 -16 44 -48 48 -79z
M265 -37c16 0 33 -3 46 -9c2 -13 3 -26 3 -37c0 -56 -29 -111 -80 -142c-15 2 -32 13 -40 30c24 31 28 68 28 91c0 19 -4 40 -10 57c13 6 33 10 53 10z" />
    <glyph glyph-name="uni1EF9" unicode="&#x1ef9;" horiz-adv-x="517" 
d="M159 546c-25 0 -64 10 -80 28c14 68 61 108 119 108c51 -1 95 -40 126 -39c23 0 39 16 47 42c29 0 59 -10 79 -27c-15 -66 -62 -105 -116 -105c-52 0 -96 38 -127 38c-25 0 -40 -17 -48 -45zM429 476c25 0 51 -5 71 -12c-60 -300 -162 -500 -356 -673
c-37 10 -61 42 -72 74c51 49 97 98 128 147c-93 150 -144 292 -183 454c18 6 49 10 78 10c14 0 31 -2 46 -4c26 -122 63 -235 119 -352c3 -7 6 -14 8 -20c3 7 5 14 8 20c54 111 84 231 108 352c14 2 31 4 45 4z" />
    <glyph glyph-name="uni1EF9.ss01" horiz-adv-x="560" 
d="M175 546c-25 0 -64 10 -80 28c14 68 61 108 119 108c51 -1 95 -40 126 -39c23 0 39 16 47 42c29 0 59 -10 79 -27c-15 -66 -62 -105 -116 -105c-52 0 -96 38 -127 38c-25 0 -40 -17 -48 -45zM438 476c19 0 38 -2 57 -5v-454c0 -134 -101 -216 -239 -216
c-107 0 -179 43 -179 125c0 53 35 94 90 120c-71 25 -108 78 -108 159v266c20 3 38 5 57 5s38 -2 56 -5v-227c0 -77 22 -120 112 -120c34 0 71 7 98 24v323c19 3 38 5 56 5zM257 -111c80 0 125 50 125 118v33c-23 -7 -49 -12 -76 -15c-86 -12 -121 -39 -121 -80
c0 -39 30 -56 72 -56z" />
    <glyph glyph-name="uni1EF9.ss02" horiz-adv-x="560" 
d="M174 546c-25 0 -64 10 -80 28c14 68 61 108 119 108c51 -1 95 -40 126 -39c23 0 39 16 47 42c29 0 59 -10 79 -27c-15 -66 -62 -105 -116 -105c-52 0 -96 38 -127 38c-25 0 -40 -17 -48 -45zM438 476c19 0 38 -2 57 -5v-451c0 -137 -97 -219 -236 -219
c-100 0 -171 35 -212 80c6 30 29 60 66 74c31 -34 74 -60 142 -60c89 0 127 48 127 112v32c-34 -14 -73 -23 -116 -23c-141 0 -207 78 -207 188v267c20 3 38 5 57 5s38 -2 56 -5v-234c0 -77 22 -120 112 -120c34 0 71 8 98 25v329c19 3 38 5 56 5z" />
    <glyph glyph-name="guillemotleft" unicode="&#xab;" horiz-adv-x="466" 
d="M183 85l-150 168l148 171c23 -4 38 -15 48 -33l-79 -136l79 -139c-7 -15 -23 -27 -46 -31zM366 85l-150 168l148 171c23 -4 38 -15 48 -33l-79 -136l79 -139c-7 -15 -23 -27 -46 -31z" />
    <glyph glyph-name="guillemotright" unicode="&#xbb;" horiz-adv-x="466" 
d="M101 85c-22 4 -39 16 -47 31l79 137l-80 138c9 18 24 29 46 33l150 -170zM284 85c-22 4 -39 16 -47 31l79 137l-80 138c9 18 24 29 46 33l150 -170z" />
    <glyph glyph-name="Euro" unicode="&#x20ac;" horiz-adv-x="642" 
d="M550 125c32 -21 50 -45 57 -85c-33 -27 -90 -55 -186 -55c-156 0 -263 93 -295 240h-92c-2 11 -4 22 -4 33s2 23 4 34h83c-1 10 -1 21 -1 32c0 12 0 23 1 34h-65c-3 11 -4 22 -4 33s1 23 4 34h75c35 144 146 237 299 237c76 0 134 -22 173 -50c-8 -34 -27 -67 -56 -85
c-37 24 -68 33 -115 33c-93 0 -156 -47 -181 -135h183c3 -11 4 -23 4 -34s-1 -22 -4 -33h-195c-1 -11 -1 -22 -1 -34c0 -11 0 -22 1 -32h178c2 -11 3 -23 3 -34s-1 -22 -3 -33h-166c27 -89 91 -138 177 -138c63 0 97 17 126 38z" />
    <glyph glyph-name="cent.osf" horiz-adv-x="500" 
d="M462 78c-28 -29 -74 -58 -142 -65v-102c-9 -2 -21 -3 -33 -3s-25 1 -34 3v103c-128 14 -215 100 -215 240c0 134 88 226 215 241v104c9 2 21 4 34 4c12 0 24 -2 33 -4v-104c66 -6 115 -34 141 -62c-9 -31 -30 -58 -62 -75c-20 20 -46 35 -79 40v-286c42 6 66 26 84 42
c28 -16 49 -42 58 -76zM153 254c0 -65 32 -124 100 -140v282c-68 -16 -100 -76 -100 -142z" />
    <glyph glyph-name="Euro.osf" horiz-adv-x="564" 
d="M474 119c27 -19 44 -46 52 -84c-30 -25 -84 -50 -166 -50c-137 0 -225 69 -252 193h-75c-2 11 -4 22 -4 33c0 12 2 23 4 34h66v22c0 10 0 19 1 28h-48c-2 11 -4 22 -4 34c0 11 2 22 4 33h59c30 116 120 188 250 188c75 0 129 -24 161 -48c-9 -33 -29 -62 -55 -81
c-33 22 -61 30 -104 30c-70 0 -114 -32 -135 -89h137c3 -11 4 -22 4 -33c0 -12 -1 -23 -4 -34h-150c-1 -9 -1 -18 -1 -28c0 -8 0 -15 1 -22h131c3 -11 4 -22 4 -34c0 -11 -1 -22 -4 -33h-119c20 -62 66 -94 133 -94c57 0 87 14 114 35z" />
    <glyph glyph-name="uniF8FF" unicode="&#xf8ff;" horiz-adv-x="1451" 
d="M691 583c0 35 27 62 61 62c35 0 62 -27 62 -62c0 -34 -27 -61 -62 -61c-34 0 -61 27 -61 61zM219 270h-119c0 153 7 274 9 314h100c2 -40 10 -159 10 -314zM694 270c0 62 1 110 3 147h-61l3 -65c2 -2 8 -4 15 -4c6 0 14 1 18 5v-74c-10 -11 -39 -15 -68 -15
c-54 0 -82 23 -82 66c0 21 4 81 4 87h-22v79l119 30l1 -17h178c7 -45 10 -158 10 -239h-118zM328 265c-57 0 -92 36 -92 114c0 85 42 135 134 135c85 0 124 -43 124 -117v-127h-83l-8 61c-8 -41 -27 -66 -75 -66zM1090 270h-114c0 46 2 73 2 93s-2 29 -15 29
c-16 0 -18 -12 -18 -29c0 -20 3 -47 3 -93h-114c0 81 3 194 10 239h80c3 -22 6 -56 6 -76c2 17 14 81 80 81c59 0 75 -35 77 -106zM1351 391c0 -79 -38 -126 -123 -126s-122 48 -122 124c0 64 26 125 124 125c97 0 121 -60 121 -123zM390 375c0 19 -9 26 -24 26
s-22 -7 -22 -26s7 -30 22 -30s24 11 24 30zM1251 375c0 19 -9 26 -23 26s-21 -7 -21 -26s7 -30 21 -30s23 11 23 30zM428 238h104c4 -21 10 -85 10 -138c0 -106 -37 -150 -152 -150c-59 0 -80 12 -88 17v83c6 -4 27 -16 70 -16c46 0 54 22 54 28c-6 -4 -19 -11 -49 -11
c-59 0 -90 26 -90 83v13h-55l3 -65c3 -2 7 -4 15 -4c11 0 16 3 18 5v-73c-5 -4 -18 -15 -68 -15c-61 0 -81 23 -81 71c0 15 2 67 3 81h-18v80l117 29l-1 -18h177v-119c0 -21 3 -27 15 -27s16 7 16 27v119zM733 243c49 0 80 -39 80 -113c0 -90 -45 -135 -137 -135
c1 -15 1 -32 1 -39h-119c0 170 8 254 10 282h78c2 -12 7 -58 7 -76c3 14 17 81 80 81zM1070 127c0 -11 -1 -26 -3 -35h-124c5 -8 19 -18 50 -18c19 0 41 4 55 12v-75c-10 -7 -35 -16 -78 -16c-95 0 -141 43 -141 122c0 78 45 126 125 126c73 0 116 -41 116 -116zM978 109
c2 18 -4 27 -17 27c-14 0 -23 -9 -23 -27h40zM670 72c7 0 37 6 37 37c0 16 -8 23 -20 23c-14 0 -22 -9 -22 -31c0 -16 4 -26 5 -29zM1074 13c0 -14 10 -23 24 -23s24 9 24 23s-10 23 -24 23s-24 -9 -24 -23zM1080 13c0 12 7 18 18 18s18 -6 18 -18s-7 -18 -18 -18
s-18 6 -18 18zM1108 2l-6 9c3 0 7 2 7 7c0 4 -3 7 -10 7h-11v-23h5v9h5l4 -9h6zM1100 15h-7v6h7c3 0 4 -1 4 -3s-1 -3 -4 -3z" />
    <glyph glyph-name="asciicircum" unicode="^" horiz-adv-x="552" 
d="M122 311c-36 7 -64 24 -85 49l188 325c34 8 68 8 102 0l188 -325c-20 -25 -48 -42 -85 -49l-154 266z" />
    <glyph glyph-name="uni0308" unicode="&#x308;" 
d="M-293 545c-36 0 -65 28 -65 64c0 35 28 63 65 63c35 0 63 -28 63 -63c0 -36 -28 -64 -63 -64zM-85 545c-35 0 -64 28 -64 64c0 35 28 63 64 63c35 0 64 -28 64 -63c0 -36 -29 -64 -64 -64z" />
    <glyph glyph-name="uni0307" unicode="&#x307;" 
d="M-115 544c-41 0 -74 32 -74 72s33 72 74 72c39 0 72 -32 72 -72s-33 -72 -72 -72z" />
    <glyph glyph-name="uni030B" unicode="&#x30b;" 
d="M-310 519c-19 7 -32 15 -41 32l88 163c39 -6 61 -24 79 -58zM-152 519c-20 7 -32 15 -41 33l91 161c38 -7 60 -25 77 -59z" />
    <glyph glyph-name="uni0302" unicode="&#x302;" 
d="M-139 693l111 -114c-6 -22 -24 -45 -48 -55l-101 80l-98 -79c-22 8 -40 27 -47 50l114 118c23 5 46 5 69 0z" />
    <glyph glyph-name="uni030C" unicode="&#x30c;" 
d="M-210 531l-109 114c5 22 22 45 47 55l99 -79l101 79c22 -8 40 -28 47 -51l-116 -118c-23 -5 -46 -5 -69 0z" />
    <glyph glyph-name="uni0306" unicode="&#x306;" 
d="M-176 529c-108 0 -157 76 -157 149c24 10 48 12 76 9c9 -48 37 -77 83 -77c47 0 74 30 79 77c28 3 54 1 75 -9c0 -71 -49 -149 -156 -149z" />
    <glyph glyph-name="uni030A" unicode="&#x30a;" 
d="M-123 506c-60 0 -109 48 -109 108c0 59 49 107 109 107c58 0 107 -48 107 -107c0 -60 -49 -108 -107 -108zM-124 571c25 0 42 20 42 42c0 24 -17 44 -42 44c-23 0 -41 -20 -41 -44c0 -22 18 -42 41 -42z" />
    <glyph glyph-name="uni0304" unicode="&#x304;" 
d="M-311 566c-5 14 -6 28 -6 43s1 31 6 45h283c3 -14 5 -29 5 -44s-2 -30 -5 -44h-283z" />
    <glyph glyph-name="uni0326" unicode="&#x326;" 
d="M-118 -225c-15 2 -32 13 -40 30c24 31 28 68 28 91c0 19 -4 40 -10 57c13 6 33 10 53 10c16 0 33 -3 46 -9c2 -13 3 -26 3 -37c0 -56 -29 -111 -80 -142z" />
    <glyph glyph-name="uni0327" unicode="&#x327;" 
d="M-149 11h67l-17 -48c40 -8 76 -27 76 -73c0 -75 -72 -94 -122 -94c-31 0 -68 10 -83 21c1 24 12 46 26 59c14 -9 29 -14 46 -14c22 0 39 9 39 29c0 26 -27 33 -65 34z" />
    <glyph glyph-name="uni0328" unicode="&#x328;" 
d="M-130 -200c-55 0 -99 33 -99 85c0 64 57 116 99 147h77c-44 -34 -84 -80 -84 -113c0 -24 17 -33 35 -33c21 0 39 12 50 20c18 -12 37 -36 37 -65c-21 -20 -58 -41 -115 -41z" />
    <glyph glyph-name="uni0335" unicode="&#x335;" 
d="M-304 443c-4 11 -6 24 -6 37s2 26 6 39h274c4 -12 6 -25 6 -38s-2 -26 -6 -38h-274z" />
    <glyph glyph-name="uni0336" unicode="&#x336;" 
d="M-690 434c-5 12 -7 25 -7 38s2 27 7 39h664c4 -11 6 -25 6 -38s-2 -26 -6 -39h-664z" />
    <glyph glyph-name="uni0337" unicode="&#x337;" 
d="M-256 254c-20 16 -32 43 -34 68l251 130c18 -18 30 -43 33 -69z" />
    <glyph glyph-name="uni0338" unicode="&#x338;" 
d="M-489 -30c-22 7 -39 24 -47 47l439 485c21 -8 39 -23 47 -43z" />
    <glyph glyph-name="uni0308.case" 
d="M-294 700c-36 0 -64 28 -64 63s28 63 64 63c34 0 62 -28 62 -63s-28 -63 -62 -63zM-83 700c-35 0 -64 28 -64 63s28 63 64 63c34 0 63 -28 63 -63s-29 -63 -63 -63z" />
    <glyph glyph-name="uni0307.case" 
d="M-101 692c-40 0 -72 31 -72 71s32 71 72 71c39 0 71 -31 71 -71s-32 -71 -71 -71z" />
    <glyph glyph-name="uni030B.case" 
d="M-331 664c-19 8 -30 18 -38 36l105 144c36 -7 62 -30 73 -66zM-159 664c-19 8 -30 18 -38 36l105 144c36 -7 62 -30 73 -66z" />
    <glyph glyph-name="uni0302.case" 
d="M-292 685c-18 11 -31 29 -35 53l115 94c23 6 46 6 69 0l116 -92c-5 -24 -17 -42 -36 -55l-118 68z" />
    <glyph glyph-name="uni030C.case" 
d="M-210 692l-116 93c5 23 17 41 36 54l118 -68l111 68c18 -10 31 -29 35 -52l-115 -95c-23 -6 -46 -6 -69 0z" />
    <glyph glyph-name="uni0306.case" 
d="M-181 686c-100 0 -155 66 -155 136c23 9 46 11 73 8c10 -41 44 -60 84 -60s74 20 80 60c26 3 50 1 71 -8c0 -67 -55 -136 -153 -136z" />
    <glyph glyph-name="uni030A.case" 
d="M-123 658c-60 0 -108 48 -108 107c0 60 48 108 108 108c58 0 106 -48 106 -108c0 -59 -48 -107 -106 -107zM-124 723c24 0 40 20 40 42c0 23 -16 43 -40 43s-40 -20 -40 -43c0 -22 16 -42 40 -42z" />
    <glyph glyph-name="uni0304.case" 
d="M-318 718c-3 13 -6 27 -6 41s3 28 6 42h289c4 -13 6 -27 6 -42c0 -14 -2 -28 -6 -41h-289z" />
    <glyph glyph-name="uni0337.case" 
d="M-282 248c-18 14 -34 48 -36 72l263 137c17 -17 33 -49 35 -73z" />
    <glyph glyph-name="uni0338.case" 
d="M-613 -32c-33 10 -57 34 -68 65l592 646c31 -10 55 -32 68 -61z" />
    </font>
</defs>
</svg>
