<?xml version="1.0" encoding="utf-8"?>
<!-- Generator: Adobe Illustrator 24.0.0, SVG Export Plug-In . SVG Version: 6.00 Build 0)  -->
<svg version="1.1" id="Layer_1" xmlns="http://www.w3.org/2000/svg" xmlns:xlink="http://www.w3.org/1999/xlink" x="0px" y="0px"
	 viewBox="0 0 350.54 111.24" style="enable-background:new 0 0 350.54 111.24;" xml:space="preserve">
<style type="text/css">
	.st0{fill:#1D1D1B;}
</style>
<g>
	<g>
		<path class="st0" d="M125.05,39.1c0.98,0,1.47,0.49,1.47,1.47v44.79c0,6.49,0.92,11.81,2.75,15.97c1.84,4.16,4.83,6.24,8.99,6.24
			c3.92-0.12,7.04-2.69,9.36-7.71c2.32-5.02,3.49-10.52,3.49-16.52v-10.1c0-3.91-0.28-7.16-0.83-9.73c-0.55-2.57-1.5-4.62-2.85-6.15
			c-1.35-1.53-3.06-2.48-5.14-2.85c-1.1-0.24-1.65-0.73-1.65-1.47c0-0.85,0.49-1.28,1.47-1.28c4.16-0.12,8.23-0.76,12.21-1.93
			c3.97-1.16,7.43-2.54,10.37-4.13c2.94-1.59,5.08-2.85,6.43-3.76c1.35-0.92,2.45-1.74,3.3-2.48c0.24-0.24,0.55-0.37,0.92-0.37
			c0.98,0,1.47,0.49,1.47,1.47v46.81c0,4.53,0.37,8.2,1.1,11.01c0.98,3.43,2.69,5.39,5.14,5.87c0.24,0.12,0.76,0.16,1.56,0.09
			c0.79-0.06,1.25-0.09,1.38-0.09c0.73,0,1.19,0.34,1.38,1.01c0.18,0.67-0.03,1.19-0.64,1.56c-5.39,2.94-10.71,4.41-15.97,4.41
			c-8.81,0-14.81-2.75-17.99-8.26c-4.16,5.63-11.63,8.38-22.39,8.26c-8.69,0-15.79-2.26-21.29-6.79
			c-5.51-4.53-8.26-10.89-8.26-19.09V73.24c0-5.87-0.67-10.31-2.02-13.31c-1.35-3-3.61-4.8-6.79-5.42c-1.1-0.24-1.65-0.73-1.65-1.47
			c0-0.85,0.49-1.28,1.47-1.28c5.38-0.24,10.77-1.4,16.15-3.49c5.38-2.08,9.09-3.79,11.11-5.14c2.02-1.35,3.7-2.57,5.05-3.67
			C124.38,39.22,124.69,39.1,125.05,39.1z"/>
		<path class="st0" d="M243.91,38.18c6.48,0,11.22,2.45,14.23,7.34c3,4.9,2.85,10.16-0.46,15.79c-1.47,2.33-3.52,3.95-6.15,4.86
			c-2.63,0.92-5.23,1.01-7.8,0.27c-4.29-1.22-6.43-3.73-6.43-7.53c0-1.96,1.07-3.67,3.21-5.14c2.14-1.47,3.21-2.94,3.21-4.41
			c0-2.2-0.74-3.97-2.2-5.32c-1.47-1.35-3.37-1.84-5.69-1.47c-4.04,1.23-6.73,3.89-8.08,7.99c-1.35,4.1-2.02,10.37-2.02,18.81v21.48
			c0,5.51,0.7,9.52,2.11,12.02c1.41,2.51,3.88,4.01,7.43,4.5c0.98,0.12,1.47,0.55,1.47,1.28c0,0.98-0.49,1.47-1.47,1.47h-44.6
			c-0.98,0-1.47-0.49-1.47-1.47c0-0.73,0.49-1.16,1.47-1.28c3.67-0.49,6.18-1.96,7.53-4.41c1.35-2.45,2.02-6.48,2.02-12.12V73.24
			c0-5.87-0.71-10.31-2.11-13.31c-1.41-3-3.7-4.8-6.88-5.42c-1.1-0.24-1.65-0.73-1.65-1.47c0-0.85,0.55-1.28,1.65-1.28
			c5.26-0.24,10.58-1.4,15.97-3.49c5.38-2.08,9.09-3.79,11.11-5.14c2.02-1.35,3.7-2.57,5.05-3.67c0.49-0.37,1.01-0.46,1.56-0.28
			c0.55,0.18,0.83,0.64,0.83,1.38v5.51c3.67-3.55,7.46-5.87,11.38-6.97C239.57,38.49,241.83,38.18,243.91,38.18z"/>
		<path class="st0" d="M296.25,39.1c10.03,0,18.57,3.52,25.61,10.55c7.04,7.04,10.55,15.57,10.55,25.61
			c0,9.91-3.52,18.39-10.55,25.42c-7.04,7.04-15.57,10.55-25.61,10.55c-9.91,0-18.39-3.52-25.42-10.55
			c-7.04-7.04-10.55-15.51-10.55-25.42c0-10.03,3.52-18.57,10.55-25.61C277.87,42.62,286.34,39.1,296.25,39.1z M289.09,42.95
			c-0.61,0-1.1,0-1.47,0c-3.55,0.98-5.48,4.93-5.78,11.84c-0.31,6.92,0.76,14.78,3.21,23.59c2.57,9.18,5.66,16.55,9.27,22.12
			c3.61,5.57,7.19,7.86,10.74,6.88c3.55-0.98,5.47-4.89,5.78-11.75c0.3-6.85-0.77-14.68-3.21-23.49c-2.33-8.56-5.17-15.6-8.54-21.11
			C295.73,45.52,292.4,42.83,289.09,42.95z"/>
		<path class="st0" d="M340.27,90.31c1.84,0,3.55,0.49,5.14,1.47c1.59,0.98,2.85,2.27,3.76,3.85c0.92,1.59,1.38,3.37,1.38,5.32
			c0,2.82-1.01,5.23-3.03,7.25c-2.02,2.02-4.47,3.03-7.34,3.03c-2.88,0-5.32-1.01-7.34-3.03c-2.02-2.02-3.03-4.43-3.03-7.25
			c0-2.94,1.01-5.44,3.03-7.53C334.85,91.35,337.33,90.31,340.27,90.31z"/>
		<g>
			<path class="st0" d="M46.26,107.38c-3.55-0.49-6.06-1.99-7.53-4.5c-1.47-2.51-2.2-6.52-2.2-12.02V77.59
				c-16.17-1.77-23.63-8.74-25.51-10.55v23.82c0,5.63-0.64,9.67-1.93,12.12c-1.28,2.45-3.83,3.92-7.62,4.41
				C0.49,107.5,0,107.93,0,108.66c0,0.98,0.49,1.47,1.47,1.47h44.79c0.86,0,1.28-0.49,1.28-1.47
				C47.54,107.93,47.11,107.5,46.26,107.38z"/>
			<path class="st0" d="M79.39,9.09C72.11,3.03,62.71,0,51.21,0H1.47C0.49,0,0,0.49,0,1.47C0,2.2,0.49,2.63,1.47,2.75
				C5.26,3.24,7.8,4.71,9.09,7.16c1.28,2.45,1.93,6.49,1.93,12.11V29c3.06-1.84,6.36-2.81,9.91-2.94
				c6.36,0.25,11.26,2.08,14.68,5.51c0.37,0.25,0.67,0.55,0.92,0.92V2.75c8.69,0,15.57,3.06,20.65,9.18
				c5.08,6.12,7.62,13.95,7.62,23.49c0,9.3-2.54,17.38-7.62,24.23c-5.08,6.85-11.53,10.46-19.36,10.83c-1.96,0-3.7-0.58-5.23-1.74
				c-1.53-1.16-2.48-2.6-2.85-4.31c-0.49-2.32-0.37-4.28,0.37-5.87c0.24-0.61,0.55-1.13,0.92-1.56c0.37-0.43,0.86-0.89,1.47-1.38
				c0.61-0.49,0.98-0.86,1.1-1.1c2.94-2.94,4.4-6.45,4.4-10.55s-1.47-7.62-4.4-10.55c-2.94-2.57-6.55-4.04-10.83-4.41
				c-5.51-0.49-10.07,1.16-13.67,4.96c-3.61,3.8-5.32,8.54-5.14,14.23c0.18,5.69,2.48,10.73,7.07,14.96
				c5.06,4.67,15.42,12.03,32.77,12.03c14.36,0,26.75-4,34.78-12.03c7.3-7.3,11.75-15.97,11.75-27.72
				C90.31,23.92,86.67,15.14,79.39,9.09z"/>
		</g>
	</g>
</g>
</svg>
