<?xml version="1.0" encoding="utf-8"?>
<!-- Generator: Adobe Illustrator 24.0.0, SVG Export Plug-In . SVG Version: 6.00 Build 0)  -->
<svg version="1.1" id="Layer_1" xmlns="http://www.w3.org/2000/svg" xmlns:xlink="http://www.w3.org/1999/xlink" x="0px" y="0px"
	 viewBox="0 0 43.76 43.76" style="enable-background:new 0 0 43.76 43.76;" xml:space="preserve">
<style type="text/css">
	.st0{fill:#FFFFFF;}
</style>
<g>
	<g>
		<path class="st0" d="M21.87,43.76C9.77,43.76-0.02,33.94,0,21.82C0.02,9.8,9.86-0.03,21.86,0c12.17,0.03,21.92,9.8,21.9,21.96
			C43.75,34,33.94,43.77,21.87,43.76z M11.28,30.23c7.23,0,14.4,0,21.62,0c-2.29-3.07-4.56-6.1-6.84-9.14
			c-1.34,1.17-2.65,2.31-3.97,3.46c-1.33-1.16-2.64-2.3-3.97-3.46C15.84,24.15,13.57,27.17,11.28,30.23z M22.09,23.29
			c3.87-3.38,7.71-6.73,11.6-10.13c-7.76,0-15.45,0-23.21,0C14.38,16.56,18.23,19.91,22.09,23.29z M17.55,20.59
			c-2.39-2.08-4.75-4.14-7.16-6.25c0,5.3,0,10.53,0,15.81C12.8,26.94,15.16,23.78,17.55,20.59z M26.63,20.59
			c2.38,3.18,4.73,6.32,7.12,9.51c0-5.28,0-10.48,0-15.73C31.37,16.46,29.01,18.51,26.63,20.59z"/>
	</g>
</g>
</svg>
