<?xml version="1.0" encoding="utf-8"?>
<!-- Generator: Adobe Illustrator 24.0.0, SVG Export Plug-In . SVG Version: 6.00 Build 0)  -->
<svg version="1.1" id="Layer_1" xmlns="http://www.w3.org/2000/svg" xmlns:xlink="http://www.w3.org/1999/xlink" x="0px" y="0px"
	 viewBox="0 0 42.03 42.03" style="enable-background:new 0 0 42.03 42.03;" xml:space="preserve">
<style type="text/css">
	.st0{fill:#FFFFFF;}
</style>
<g>
	<path class="st0" d="M19.53,0c0.98,0,1.97,0,2.95,0c0.67,0.09,1.35,0.16,2.02,0.28c4.69,0.83,8.7,2.94,11.91,6.46
		c4.72,5.19,6.47,11.31,5.23,18.2c-0.94,5.2-3.59,9.44-7.76,12.67c-4.66,3.61-9.96,4.98-15.79,4.21c-4.11-0.54-7.75-2.22-10.87-4.96
		c-3.7-3.25-6.02-7.3-6.9-12.15C0.19,23.98,0.11,23.23,0,22.49c0-0.98,0-1.97,0-2.95c0.06-0.47,0.11-0.94,0.18-1.42
		c0.6-4.09,2.21-7.72,4.93-10.84c3.26-3.74,7.34-6.08,12.24-6.96C18.08,0.19,18.81,0.11,19.53,0z M33,21.01c0.05,0,0.09,0,0.14,0
		c-0.07-1.97-0.1-3.94-0.23-5.9c-0.08-1.3-0.53-2.51-1.34-3.55c-1.4-1.8-3.33-2.48-5.51-2.52c-3.36-0.06-6.73-0.04-10.09,0
		c-1.57,0.02-3.06,0.4-4.34,1.37c-1.84,1.39-2.55,3.35-2.59,5.55c-0.06,3.36-0.04,6.73,0,10.09c0.02,1.58,0.41,3.09,1.4,4.37
		c1.4,1.82,3.34,2.52,5.53,2.55c3.36,0.06,6.73,0.04,10.09,0c1.58-0.02,3.08-0.41,4.37-1.4c1.8-1.39,2.48-3.31,2.56-5.49
		C33.04,24.4,33,22.71,33,21.01z"/>
	<path class="st0" d="M21,11.06c1.87,0.06,3.74,0.08,5.61,0.2c2.39,0.15,4.05,1.76,4.14,4.16c0.12,3,0.11,6.01,0.11,9.02
		c0,0.99-0.05,2.01-0.25,2.97c-0.43,2.01-1.9,3.28-3.96,3.35c-3.04,0.11-6.09,0.11-9.14,0.11c-0.96,0-1.95-0.05-2.89-0.25
		c-2.02-0.44-3.29-1.9-3.36-3.96c-0.11-3.03-0.12-6.07-0.12-9.1c0-0.99,0.05-2,0.26-2.97c0.43-1.99,1.89-3.19,3.93-3.34
		c0.94-0.07,1.88-0.11,2.83-0.13c0.94-0.02,1.89,0,2.83,0C21,11.1,21,11.08,21,11.06z M27.19,21.03c0.01-3.44-2.71-6.18-6.15-6.2
		c-3.44-0.01-6.19,2.71-6.21,6.13c-0.02,3.45,2.72,6.21,6.17,6.22C24.43,27.19,27.18,24.46,27.19,21.03z M27.46,16.01
		c0.79,0,1.43-0.65,1.43-1.44c0-0.78-0.65-1.44-1.43-1.44c-0.8-0.01-1.46,0.65-1.45,1.46C26.02,15.38,26.67,16.01,27.46,16.01z"/>
	<path class="st0" d="M16.99,20.95c0.03-2.23,1.85-3.99,4.1-3.96c2.21,0.03,3.96,1.85,3.94,4.08c-0.03,2.23-1.85,3.99-4.1,3.96
		C18.72,25,16.97,23.18,16.99,20.95z"/>
</g>
</svg>
